<svg xmlns="http://www.w3.org/2000/svg" viewBox="0 0 263.95 99.72"><defs><style>.cls-1{fill:#0b040c;}.cls-2,.cls-3,.cls-4{fill:none;stroke:#fff;stroke-miterlimit:10;}.cls-2{stroke-width:0.39px;}.cls-3{stroke-width:0.43px;}.cls-4{stroke-width:3.1px;}</style></defs><title>Asset 124</title><g id="Layer_2" data-name="Layer 2"><g id="Main"><path class="cls-1" d="M6.49,92.82A6,6,0,0,0,10,91.72a3.79,3.79,0,0,0,1.54-3.3h.68l0,.09a4.33,4.33,0,0,1-1.71,3.72,6.44,6.44,0,0,1-4.08,1.38,5.74,5.74,0,0,1-4.76-2.18A9,9,0,0,1,0,85.67v-.62a9,9,0,0,1,1.72-5.74,5.7,5.7,0,0,1,4.74-2.19,6.23,6.23,0,0,1,4.17,1.45,4.87,4.87,0,0,1,1.65,4.07l0,.09h-.68a4.37,4.37,0,0,0-1.5-3.57,5.48,5.48,0,0,0-3.62-1.24,4.87,4.87,0,0,0-4.23,2A8.56,8.56,0,0,0,.79,85.05v.62a8.58,8.58,0,0,0,1.44,5.16,4.91,4.91,0,0,0,4.26,2"/><path class="cls-1" d="M23.35,78l-1-.09a4.58,4.58,0,0,0-3.46,1.38,6.73,6.73,0,0,0-1.72,3.62V93.3h-.79V77.42H17l.15,2.76v.54a5.72,5.72,0,0,1,2-2.65,5.31,5.31,0,0,1,3.21-.95,3.58,3.58,0,0,1,.62.05l.49.11Z"/><path class="cls-1" d="M31.47,93.61a6.11,6.11,0,0,1-4.69-2.19,7.86,7.86,0,0,1-2-5.45V85a8.39,8.39,0,0,1,1.91-5.66,6,6,0,0,1,4.71-2.24,5.82,5.82,0,0,1,4.38,1.76,6.53,6.53,0,0,1,1.69,4.73v1.22H25.6V86a7.27,7.27,0,0,0,1.69,4.86,5.28,5.28,0,0,0,4.19,2,8,8,0,0,0,3-.48,5.39,5.39,0,0,0,2.05-1.46l.42.62a6.07,6.07,0,0,1-2.28,1.58,8.54,8.54,0,0,1-3.16.53m0-15.69a5.1,5.1,0,0,0-3.93,1.72A7,7,0,0,0,25.72,84l0,.09h11v-.48a5.74,5.74,0,0,0-1.47-4,4.93,4.93,0,0,0-3.82-1.61"/><path class="cls-1" d="M51.17,90.37a6.21,6.21,0,0,1-2.45,2.34,8,8,0,0,1-3.95.9,4.83,4.83,0,0,1-3.48-1.21A4.33,4.33,0,0,1,40,89.14a4,4,0,0,1,1.89-3.35,7.89,7.89,0,0,1,4.72-1.35h4.54V82.12A3.88,3.88,0,0,0,49.9,79a5.27,5.27,0,0,0-3.57-1.11,5.44,5.44,0,0,0-3.47,1,3.27,3.27,0,0,0-1.31,2.69l-.66,0,0-.08a3.71,3.71,0,0,1,1.44-3.13,6.07,6.07,0,0,1,4-1.28,6.15,6.15,0,0,1,4.09,1.29A4.59,4.59,0,0,1,52,82.15v8a13.72,13.72,0,0,0,.09,1.63,10.77,10.77,0,0,0,.32,1.57h-.88c-.13-.7-.21-1.22-.26-1.56a9.41,9.41,0,0,1-.06-1.12Zm-6.4,2.47a7.28,7.28,0,0,0,4-1,6,6,0,0,0,2.4-3V85.24H46.68a7.31,7.31,0,0,0-4.16,1.14,3.32,3.32,0,0,0-1.69,2.81,3.46,3.46,0,0,0,1.08,2.62,4,4,0,0,0,2.87,1"/><path class="cls-1" d="M62.45,92.82A6,6,0,0,0,66,91.72a3.8,3.8,0,0,0,1.54-3.3h.68l0,.09a4.35,4.35,0,0,1-1.71,3.72,6.44,6.44,0,0,1-4.09,1.38,5.73,5.73,0,0,1-4.76-2.18A9,9,0,0,1,56,85.67v-.62a9,9,0,0,1,1.72-5.74,5.7,5.7,0,0,1,4.74-2.19,6.25,6.25,0,0,1,4.18,1.45,4.88,4.88,0,0,1,1.65,4.07l0,.09h-.68a4.37,4.37,0,0,0-1.5-3.57,5.48,5.48,0,0,0-3.63-1.24,4.88,4.88,0,0,0-4.23,2,8.59,8.59,0,0,0-1.44,5.14v.62a8.61,8.61,0,0,0,1.44,5.16,4.92,4.92,0,0,0,4.26,2"/><path class="cls-1" d="M73.3,72.43h-.79v-2h.79Zm0,20.87h-.79V77.42h.79Z"/><path class="cls-1" d="M77.27,85.06a8.38,8.38,0,0,1,1.93-5.71,6.8,6.8,0,0,1,10,0,8.38,8.38,0,0,1,1.93,5.71v.62a8.41,8.41,0,0,1-1.93,5.72,6.79,6.79,0,0,1-10,0,8.39,8.39,0,0,1-1.94-5.72Zm.79.62a7.82,7.82,0,0,0,1.67,5.07,5.48,5.48,0,0,0,4.5,2.08,5.42,5.42,0,0,0,4.46-2.08,7.83,7.83,0,0,0,1.67-5.06v-.62a7.79,7.79,0,0,0-1.69-5,5.81,5.81,0,0,0-9,0,7.83,7.83,0,0,0-1.67,5Zm8.87-14.38h1.15l0,.07-3.39,3.83h-1l0-.08Z"/><path class="cls-1" d="M95.64,77.42l.1,3.27a5.82,5.82,0,0,1,2.1-2.63,6,6,0,0,1,3.41-.93,4.67,4.67,0,0,1,3.9,1.64q1.3,1.64,1.3,5.19V93.3h-.79V83.92q0-3.3-1.18-4.65a4,4,0,0,0-3.21-1.35,4.81,4.81,0,0,0-3.88,1.53,7.43,7.43,0,0,0-1.63,3.93V93.3H95V77.42Z"/><path class="cls-1" d="M122.81,90.43,123.4,92h.09l.09-.23,5.49-14.36h.88l-7.06,18.52a10,10,0,0,1-1.51,2.72,3.34,3.34,0,0,1-2.74,1,4.22,4.22,0,0,1-.62-.05,3,3,0,0,1-.5-.11l.13-.75a4,4,0,0,0,.48.09,4.09,4.09,0,0,0,.5,0,2.77,2.77,0,0,0,2.11-.79,7,7,0,0,0,1.35-2.35l1-2.58-6.32-15.79h.86Z"/><path class="cls-1" d="M139.43,85.35a10.15,10.15,0,0,1,1.59-6,5.11,5.11,0,0,1,4.4-2.22,6,6,0,0,1,3.22.83,6.16,6.16,0,0,1,2.17,2.29V70.41h.79V93.3h-.76l0-2.47a5.71,5.71,0,0,1-2.18,2,6.72,6.72,0,0,1-3.24.75A5.14,5.14,0,0,1,141,91.47a9.62,9.62,0,0,1-1.58-5.81Zm.82.31a9.24,9.24,0,0,0,1.3,5.23,4.3,4.3,0,0,0,3.82,1.94,5.92,5.92,0,0,0,3.44-.94,5.31,5.31,0,0,0,2-2.51V81.93A6.61,6.61,0,0,0,149,79.07a5.1,5.1,0,0,0-3.55-1.15A4.27,4.27,0,0,0,141.56,80a9.86,9.86,0,0,0-1.31,5.36Z"/><path class="cls-1" d="M162,93.61a6.11,6.11,0,0,1-4.69-2.19,7.85,7.85,0,0,1-2-5.45V85a8.41,8.41,0,0,1,1.91-5.66A6,6,0,0,1,162,77.13a5.82,5.82,0,0,1,4.38,1.76,6.53,6.53,0,0,1,1.69,4.73v1.22H156.16V86a7.25,7.25,0,0,0,1.69,4.86,5.27,5.27,0,0,0,4.18,2,8,8,0,0,0,3-.48,5.37,5.37,0,0,0,2-1.46l.43.62a6.11,6.11,0,0,1-2.28,1.58,8.55,8.55,0,0,1-3.17.53m0-15.69a5.09,5.09,0,0,0-3.93,1.72A7,7,0,0,0,156.28,84l0,.09h11v-.48a5.76,5.76,0,0,0-1.47-4A4.94,4.94,0,0,0,162,77.92"/><path class="cls-1" d="M181.5,89.41a3.11,3.11,0,0,0-1.08-2.29,7.92,7.92,0,0,0-3.77-1.62,10.91,10.91,0,0,1-4.1-1.55,3.29,3.29,0,0,1-1.27-2.81,3.53,3.53,0,0,1,1.44-2.85,6,6,0,0,1,3.88-1.15,6.36,6.36,0,0,1,4.14,1.23,3.74,3.74,0,0,1,1.44,3.21l0,.09h-.68A3.32,3.32,0,0,0,180.15,79a5.39,5.39,0,0,0-3.56-1.09,5.14,5.14,0,0,0-3.38,1,2.85,2.85,0,0,0-1.14,2.22,2.77,2.77,0,0,0,1,2.13,9.13,9.13,0,0,0,3.85,1.54,10.47,10.47,0,0,1,4,1.68,3.55,3.55,0,0,1,1.37,3,3.63,3.63,0,0,1-1.53,3,6.52,6.52,0,0,1-4.05,1.16,6.86,6.86,0,0,1-4.35-1.24,3.44,3.44,0,0,1-1.48-3l0-.09h.65A3.11,3.11,0,0,0,173.18,92a7.13,7.13,0,0,0,3.54.83,5.44,5.44,0,0,0,3.49-1,3,3,0,0,0,1.29-2.38"/><path class="cls-1" d="M196.69,90.37a6.21,6.21,0,0,1-2.45,2.34,8,8,0,0,1-3.95.9,4.83,4.83,0,0,1-3.48-1.21,4.34,4.34,0,0,1-1.26-3.27,4,4,0,0,1,1.89-3.35,7.89,7.89,0,0,1,4.72-1.35h4.54V82.12A3.88,3.88,0,0,0,195.42,79a5.27,5.27,0,0,0-3.57-1.11,5.44,5.44,0,0,0-3.47,1,3.27,3.27,0,0,0-1.31,2.69l-.66,0,0-.08a3.71,3.71,0,0,1,1.44-3.13,6.07,6.07,0,0,1,4-1.28,6.15,6.15,0,0,1,4.09,1.29,4.59,4.59,0,0,1,1.54,3.73v8a13.67,13.67,0,0,0,.09,1.63,10.71,10.71,0,0,0,.32,1.57H197c-.13-.7-.21-1.22-.26-1.56a9.41,9.41,0,0,1-.06-1.12Zm-6.4,2.47a7.28,7.28,0,0,0,4-1,6,6,0,0,0,2.4-3V85.24H192.2A7.31,7.31,0,0,0,188,86.38a3.32,3.32,0,0,0-1.69,2.81,3.46,3.46,0,0,0,1.08,2.62,4,4,0,0,0,2.87,1"/><path class="cls-1" d="M209.59,78l-1-.09a4.58,4.58,0,0,0-3.46,1.38,6.73,6.73,0,0,0-1.72,3.62V93.3h-.79V77.42h.65l.15,2.76v.54a5.72,5.72,0,0,1,2-2.65,5.31,5.31,0,0,1,3.21-.95,3.58,3.58,0,0,1,.62.05l.49.11Z"/><path class="cls-1" d="M219.57,78l-1-.09a4.58,4.58,0,0,0-3.46,1.38,6.73,6.73,0,0,0-1.72,3.62V93.3h-.79V77.42h.65l.15,2.76v.54a5.72,5.72,0,0,1,2-2.65,5.31,5.31,0,0,1,3.21-.95,3.58,3.58,0,0,1,.62.05l.49.11Z"/><path class="cls-1" d="M221,85.05a8.38,8.38,0,0,1,1.93-5.71,6.8,6.8,0,0,1,10,0,8.4,8.4,0,0,1,1.93,5.71v.62A8.43,8.43,0,0,1,233,91.4a6.79,6.79,0,0,1-10,0A8.39,8.39,0,0,1,221,85.67Zm.79.62a7.82,7.82,0,0,0,1.67,5.07A5.49,5.49,0,0,0,228,92.82a5.43,5.43,0,0,0,4.46-2.08,7.83,7.83,0,0,0,1.67-5.06v-.62a7.78,7.78,0,0,0-1.69-5,5.81,5.81,0,0,0-9,0,7.83,7.83,0,0,0-1.67,5Z"/><rect class="cls-1" x="238.91" y="70.41" width="0.79" height="22.9"/><rect class="cls-1" x="245.1" y="70.41" width="0.79" height="22.9"/><path class="cls-1" d="M249.86,85.05a8.38,8.38,0,0,1,1.93-5.71,6.8,6.8,0,0,1,10,0,8.38,8.38,0,0,1,1.93,5.71v.62a8.41,8.41,0,0,1-1.93,5.72,6.79,6.79,0,0,1-10,0,8.39,8.39,0,0,1-1.94-5.72Zm.79.62a7.82,7.82,0,0,0,1.67,5.07,5.48,5.48,0,0,0,4.5,2.08,5.42,5.42,0,0,0,4.46-2.08A7.83,7.83,0,0,0,263,85.67v-.62a7.8,7.8,0,0,0-1.69-5,5.81,5.81,0,0,0-9,0,7.83,7.83,0,0,0-1.67,5Z"/><rect class="cls-1" x="178.65" y="1.55" width="8.49" height="61.96"/><rect class="cls-2" x="178.65" y="1.55" width="8.49" height="61.96"/><rect class="cls-1" x="190.7" y="1.55" width="2.42" height="61.96"/><rect class="cls-2" x="190.7" y="1.55" width="2.42" height="61.96"/><rect class="cls-1" x="195.41" y="1.55" width="6.07" height="61.96"/><rect class="cls-3" x="195.41" y="1.55" width="6.07" height="61.96"/><rect class="cls-1" x="212.81" y="1.55" width="4.84" height="61.96"/><rect class="cls-4" x="212.81" y="1.55" width="4.84" height="61.96"/><rect class="cls-1" x="221.34" y="1.55" width="18.61" height="61.96"/><rect class="cls-2" x="221.34" y="1.55" width="18.61" height="61.96"/><rect class="cls-1" x="249.84" y="1.55" width="13.91" height="61.96"/><rect class="cls-2" x="249.84" y="1.55" width="13.91" height="61.96"/><path class="cls-1" d="M18.15,45.57V35.5H.64V32.23L17.87,6h4.07V32.29h5.43V35.5H21.93V45.57Zm0-13.28V10.85l-14,21.44Z"/><path class="cls-1" d="M58.59,57V59.3H29.47V57Z"/><path class="cls-1" d="M60.63,33.91l4,0Q64.64,38.52,67,41a8.63,8.63,0,0,0,6.6,2.5q4.55,0,7-2.35T83,34.45q0-4.27-2.52-6.33t-7.72-2.06H71.65l-.64,0,0-3q.28,0,.75,0l.7,0q4.69,0,7.07-2a7.09,7.09,0,0,0,2.37-5.8A7.06,7.06,0,0,0,79.74,10a7.86,7.86,0,0,0-5.66-2,8.19,8.19,0,0,0-6.21,2.3A9.74,9.74,0,0,0,65.53,17H61.91q.2-5.72,3.44-8.91a12,12,0,0,1,8.79-3.2,12,12,0,0,1,8.4,2.86,9.93,9.93,0,0,1,3.11,7.69,9.73,9.73,0,0,1-1.42,5.32A9.86,9.86,0,0,1,80,24.3,9.2,9.2,0,0,1,85.16,28a11.56,11.56,0,0,1,1.78,6.61,11.56,11.56,0,0,1-3.53,8.89q-3.53,3.28-9.55,3.28t-9.7-3.38Q60.63,40,60.63,34Z"/><path class="cls-1" d="M118.7,57V59.3H89.58V57Z"/><path class="cls-1" d="M120.75,33.91l4,0q.06,4.58,2.42,7.08a8.63,8.63,0,0,0,6.6,2.5q4.55,0,7-2.35t2.42-6.72q0-4.27-2.52-6.33t-7.72-2.06h-1.09l-.64,0,0-3q.28,0,.75,0l.7,0q4.69,0,7.07-2A7.09,7.09,0,0,0,142,15.4,7.06,7.06,0,0,0,139.85,10a7.86,7.86,0,0,0-5.66-2,8.19,8.19,0,0,0-6.21,2.3A9.74,9.74,0,0,0,125.64,17H122q.2-5.72,3.44-8.91a13.72,13.72,0,0,1,17.19-.34,9.93,9.93,0,0,1,3.11,7.69,9.73,9.73,0,0,1-1.42,5.32,9.86,9.86,0,0,1-4.21,3.58A9.2,9.2,0,0,1,145.27,28,11.56,11.56,0,0,1,147,34.57a11.56,11.56,0,0,1-3.53,8.89Q140,46.74,134,46.74t-9.7-3.38Q120.75,40,120.75,34Z"/></g></g></svg>