<svg xmlns="http://www.w3.org/2000/svg" viewBox="0 0 220.53 169.64"><title>Asset 116</title><g id="Layer_2" data-name="Layer 2"><g id="Main"><path d="M88.59,28.49a28.14,28.14,0,0,1-9.65,3,18,18,0,0,1-16.16-5.73,12.4,12.4,0,0,1-3.61-7.83c-.34-5.25,2.61-9.16,7.94-10.73a23.51,23.51,0,0,1,9-.4C85.63,7.69,94.52,11,103.5,14c8,2.64,15.83,5.72,24.06,7.61a38.63,38.63,0,0,0,11,1.27,13.84,13.84,0,0,0,2.71-.4c4.4-1.17,6.34-4.78,4.87-9.12-1.52-4.49-4.94-7-9.19-8.61a20.91,20.91,0,0,0-15.54.15,8.78,8.78,0,0,1-1.81.55A20.47,20.47,0,0,1,125.5,2.9c6.1-1.7,12-1.52,17.34,2.24,3.49,2.45,6.07,5.59,6.57,10,.55,4.82-1.59,8.46-6,10.49-3.16,1.45-6.46,1.49-9.83,1.22-9.69-.79-18.72-4.12-27.83-7.12-8-2.64-15.91-5.78-24.17-7.69-4.06-.94-8.14-1.81-12.35-1.3a12.94,12.94,0,0,0-2.15.42c-4.05,1.22-5.9,4.64-4.64,8.7,1.48,4.75,5,7.36,9.49,9a21.06,21.06,0,0,0,15-.09A2.42,2.42,0,0,1,88.59,28.49Z"/><path d="M64.69,105.92c-.4,4.38-.76,8.37-1.11,12.36-.2,2.24-.42,4.47-.54,6.71-.1,1.89.15,2.11,2,2.39.26,0,.56-.06.77.18,0,0,0,.09.08.31H57.25l-.12-.27a1.68,1.68,0,0,1,.36-.17c2.48-.54,2.54-.54,2.85-3.13,1-8.41,2-16.83,2.94-25.24a9.25,9.25,0,0,1,.11-1c.06-.26.11-.57.42-.65a.73.73,0,0,1,.8.41A10.31,10.31,0,0,1,65.19,99q5.64,11.2,11.29,22.4c.2.39.29.87.78,1.15l10.24-21.09q.81-1.66,1.63-3.32c.14-.28.27-.65.64-.64s.53.46.58.8q.37,2.79.7,5.59c.76,6.6,1.49,13.2,2.26,19.79.31,2.65,1.32,3.57,4,3.75.3,0,.61.06.91.1,0,.67-.49.56-.79.55-2.29,0-4.58-.09-6.87-.19-.69,0-1.16,0-.92-1.2a16.8,16.8,0,0,0-.24-4.77c-.49-5.06-1-10.12-1.51-15.18,0-.25-.07-.5-.12-.81-.52.31-.6.79-.79,1.18q-4.53,9.23-9,18.46a7.12,7.12,0,0,1-.42.86c-.37.54-.42,1.5-1.22,1.49s-.87-.86-1.17-1.4c-3.49-6.22-6.56-12.65-9.65-19.08C65.27,107,65.06,106.65,64.69,105.92Z"/><path d="M193.07,104.23c-.34.19-.24.44-.24.65.16,6.28.29,12.56.51,18.83.11,3.19.3,3.3,3.46,3.71a1.37,1.37,0,0,1,.36.17c-.66.51-8.6.61-9.59.14,0-.21.16-.29.37-.32,2.48-.4,2.68-.58,2.69-3.17,0-8,0-16,0-23.93,0-1-.46-2.36.54-2.75s1.51,1,2.16,1.65q10.56,11,21.08,22.08a11.3,11.3,0,0,1,.74,1,1.19,1.19,0,0,0,.31-1.18q-.18-9.35-.38-18.7c0-.5,0-1-.07-1.51-.12-1.31-.72-2.13-2.17-2.13a11.46,11.46,0,0,1-1.58-.21l0-.34h9.19a.31.31,0,0,1-.31.4c-2.53.06-2.47,1.2-2.48,3.22-.07,8.3-.08,16.59-.13,24.89,0,.52.27,1.25-.28,1.51s-1.06-.39-1.48-.77c-6.18-5.61-11.87-11.72-17.63-17.75C196.49,107.86,194.78,106,193.07,104.23Z"/><path d="M167.85,128.57c-10.57,0-16.66-5.59-17.54-14.56-.73-7.51,5.32-15.11,12.95-16.31a19.88,19.88,0,0,1,10.28.92c11,4.13,11.43,16.76,6.16,23.65A15.31,15.31,0,0,1,167.85,128.57Zm10.85-15a16.73,16.73,0,0,0-2.57-9.52c-4.77-7.06-15.9-6.89-19.87.3-2.92,5.29-2.07,13.81,1.91,18.37a11.82,11.82,0,0,0,11.52,4c4.28-.74,6.94-3.46,8.23-7.55A19.8,19.8,0,0,0,178.69,113.6Z"/><path d="M130.36,127.87H120c-.07-.26,0-.39.24-.44,2.11-.48,2.26-.6,2.39-2.77.12-1.92.19-3.85.19-5.77,0-5.82,0-11.64-.11-17.45,0-2.4-.19-2.45-2.59-2.79-.25,0-.56,0-.72-.26s.17-.41.41-.4c4.57.2,9.16-.34,13.73.24,6,.76,8.68,6,5.89,11.31a14.24,14.24,0,0,1-3.27,4c-.47.42-.71.68-.19,1.3,2.54,3.07,5,6.23,7.67,9.17,1.76,1.91,3.71,3.41,6.47,3.39.1,0,.21.13.3.19s-.06.26-.09.27c-4.16.47-8.15.49-11-3.42-2-2.77-4.22-5.42-6.29-8.15a2.13,2.13,0,0,0-2-1c-1.23,0-2.47,0-3.71,0-.68,0-1,.1-1,.88.08,2.88.05,5.77.16,8.66.07,1.85.56,2.27,2.41,2.52C129.46,127.41,130,127.27,130.36,127.87Zm.46-13.92c3.22,0,4.78-1,5.57-3.73a10.61,10.61,0,0,0,0-6.22,6.14,6.14,0,0,0-5-4.47,14.7,14.7,0,0,0-3.68,0c-.95.06-1.21.45-1.2,1.37.05,2.92,0,5.85,0,8.77C126.44,113.88,126.44,113.88,130.81,113.95Z"/><path d="M32.24,128c-3.07.18-5.93,0-9.08-.06,1.1-.93.67-1.75.3-2.63q-1.54-3.66-3-7.37a1.25,1.25,0,0,0-1.39-1c-2.7.05-5.41,0-8.11,0-.53,0-1,0-1.19.64-.86,2.55-2,5-2.66,7.63-.43,1.75-.27,1.92,1.56,2.19.19,0,.36.06.41.47H0c-.06-.38.14-.48.39-.47,2.35.09,3.57-1.27,4.35-3.29,1.71-4.43,3.45-8.85,5.18-13.27q2.32-5.93,4.64-11.87c.25-.62.34-1.64,1-1.66s.9,1,1.16,1.68c3.24,7.85,6.44,15.72,9.66,23.58.33.8.72,1.58,1.12,2.34a4.18,4.18,0,0,0,3.82,2.47,1.86,1.86,0,0,1,.53.09C31.94,127.51,32,127.62,32.24,128ZM15.11,103.73h-.36l-4.06,11.52h8.73Z"/><path d="M44.53,98.29c-.08.12-.1.19-.13.19-3.07.6-3.11.6-3.09,3.81.06,7.05-.27,14.11.21,21.15.14,2.09.71,2.63,2.77,2.84a30.5,30.5,0,0,0,5.49.1,3.62,3.62,0,0,0,3.68-3,3,3,0,0,1,.24-.64c0-.07.14-.11.21-.16.41.91,0,4.6-.59,5.18a2.38,2.38,0,0,1-1.82.44c-3.21-.06-6.41-.17-9.62-.21-1.92,0-3.85,0-5.77.06a2.33,2.33,0,0,1-1.49-.21c.09-.15.14-.33.23-.35,2.24-.55,2.43-.65,2.5-3,.27-7.92.22-15.85.05-23.77,0-1.58-1-2-2.33-2.06-.33,0-.92.1-.92-.33,0-.59.62-.35,1-.35,2.79,0,5.59,0,8.38,0C43.87,98,44.28,97.82,44.53,98.29Z"/><path d="M72.89,15.7a107.4,107.4,0,0,1,15.23,3.15C98.27,21.49,108,25.33,118,28.54c5.62,1.81,11.35,3.3,17.3,3.38A23,23,0,0,0,147,29.11a.44.44,0,0,1,.57,0A20.79,20.79,0,0,1,138.06,33c-6.33,1-12.47-.19-18.58-1.76-7.5-1.93-14.65-4.92-21.94-7.46C89.38,20.92,81.24,18,72.89,15.7Z"/><path d="M62.74,4.17C63.58,2.91,65,2.53,66.26,2c4.57-2,9.39-2.25,14.27-1.74,9.24,1,17.82,4.3,26.43,7.52a279.93,279.93,0,0,0,28.49,9.48c.75.19,1.5.36,2.57.62a96.85,96.85,0,0,1-16-3.12C113,12.38,104.19,9,95.35,5.94A83.72,83.72,0,0,0,78.62,1.73a26.07,26.07,0,0,0-15,2.08c-.29.14-.59.23-.89.35Z"/><path d="M71.8,157.07H64.63c1.87-.07,1.73-1.45,1.76-2.7,0-1.69,0-3.39.09-5.09,0-.71-.22-1-.95-.94-2.38,0-4.77.05-7.15,0-.84,0-1,.33-1,1,0,1.56,0,3.12,0,4.67.05,2.44.06,2.44,2.39,3H52.65c1.8,0,1.82-1.32,1.83-2.59q0-5.77,0-11.55c0-2.32,0-2.32-2.12-3h7c-.57.55-1.6.12-1.76,1a12.19,12.19,0,0,0-.14,2c0,1,0,2,0,3,0,.83.12,1.22,1.1,1.19,2.29-.08,4.58-.06,6.87,0,.86,0,1.13-.27,1.08-1.1-.06-1.05,0-2.11,0-3.16,0-2.28-.05-2.28-2.14-3h6.83c-2.18.15-1.79,1.78-1.8,3.14,0,3.57,0,7.15,0,10.73C69.38,156.4,69.41,156.4,71.8,157.07Z"/><path d="M102.73,127.78c.12-.33.3-.39.49-.38,1.64,0,2.05-1,2.15-2.38.39-5.35.19-10.71.23-16.06,0-2.52,0-5-.08-7.55-.1-2.21-.22-2.26-2.37-2.76-.21,0-.47,0-.49-.51h9.47l.11.26a2,2,0,0,1-.35.18c-2.43.73-2.48.73-2.5,3.34-.06,7.33-.16,14.65.08,22,.1,3.09.15,3.12,3.23,3.52.18,0,.36,0,.43.26C112.46,128.06,103.83,128.17,102.73,127.78Z"/><path d="M91.27,139.49c5.65,0,9.17,3.37,9.16,8.67,0,5.53-4,9.42-9.64,9.35-5.42-.06-9.13-3.73-9.12-9S85.56,139.47,91.27,139.49Zm5.9,9.85a9.31,9.31,0,0,0-1.93-6.51c-2.51-3-7.25-3-9.23,0s-1.38,9.16,1.38,11.72a6,6,0,0,0,6,1.51c2.13-.59,3.08-2.26,3.57-4.29A14,14,0,0,0,97.17,149.35Z"/><path d="M132.59,65.35c0-3.85,0-7.74,0-11.63,0-1.51-1.12-1.49-2.06-1.88h5c-1.55.24-1.43,1.41-1.44,2.5q0,6.6-.06,13.2c0,.5,0,1,0,1.92-5.11-4.55-9.39-9.36-13.87-14-.43.28-.24.68-.23,1,.07,3.25.14,6.51.25,9.76.07,2,.17,2.07,2.06,2.36a13.78,13.78,0,0,1-5.39.06c2,0,1.77-1.35,1.77-2.54,0-4.45,0-8.89,0-13.34,0-.45-.14-1.07.31-1.26s.77.38,1.07.69q5.81,6.05,11.59,12.12C131.93,64.73,132.3,65.06,132.59,65.35Z"/><path d="M144.76,146.67l-.37,4c-.49-1-.49-2.13-1.76-2.1-1,0-1.92,0-2.89,0-.46,0-.48.31-.48.65,0,1.74,0,3.48,0,5.22A1.5,1.5,0,0,0,141,156l1.1,0c2.29,0,2.5-.13,3.41-2.36a6.7,6.7,0,0,1-.15,3,.73.73,0,0,1-.82.58c-3.32,0-6.65,0-10.12-.23,1.8,0,1.9-1.18,1.91-2.33,0-4.26,0-8.52.07-12.78,0-1.56-1.06-1.65-2.14-1.76,0-.46.31-.36.5-.36,3.25,0,6.5.18,9.75-.06.37,0,.65,0,.55.46a14.69,14.69,0,0,1-.45,3.18c-.24-1.42-.67-2.28-2-2.25-1,0-2,0-3,0-.27,0-.34.26-.34.5,0,1.7,0,3.39,0,5.09,0,.39.14.64.54.61C141.43,147.19,143.11,147.63,144.76,146.67Z"/><path d="M109.36,142.85c-.35-1,.09-1.91.21-2.84,0-.34.25-.49.68-.43a91.38,91.38,0,0,0,13.3.17c1,0,1.19.17,1.1,1.06a18.42,18.42,0,0,1-.19,2.29c-.54-2.12-2.2-1.88-3.66-1.93-2.28-.07-2.28,0-2.28,2.23,0,3.48,0,7,0,10.44,0,2.55,0,2.55,2.43,3.23h-7.29c1.65-.11,1.88-1.17,1.87-2.51,0-4.17,0-8.34,0-12.5,0-.84-.3-1-1-.93s-1.56,0-2.33,0C111,141.18,109.85,141.4,109.36,142.85Z"/><path d="M71.74,51.37a3.28,3.28,0,0,1,.9,1.65c1.77,4.3,3.51,8.62,5.29,12.92.57,1.38,1.22,2.74,3.08,2.9H76.53c-.18,0-.26,0-.25-.31,0-2-1.27-3.61-1.81-5.45-.12-.41-.48-.51-.88-.49s-.83,0-1.24,0c-1.27.09-3-.58-3.7.26-1,1.13-1.28,2.88-1.76,4.4-.29.93-.12,1.07,1.38,1.56h-5.4c1.77-.12,2.37-1.39,2.91-2.79,1.71-4.47,3.46-8.93,5.21-13.39C71.16,52.18,71.21,51.65,71.74,51.37Zm-.41,3.37-2.41,6.86h5Z"/><path d="M140.3,68.82c1.75-.15,2.33-1.39,2.86-2.77,1.75-4.56,3.55-9.11,5.33-13.65.14-.36.15-.95.63-.94s.5.58.65.94q2.82,6.84,5.62,13.68c.56,1.37,1.29,2.55,3,2.75h-4.53c-.09,0-.27-.14-.26-.18.36-2-1.17-3.35-1.55-5.08a1.1,1.1,0,0,0-1.39-1c-.31,0-.64,0-1,0-1.27.1-3-.59-3.7.27-1,1.2-1.25,3-1.79,4.54-.31.9.36,1.13,1,1.4Zm8.42-14-2.39,6.79h4.94Z"/><path d="M168.33,153.8c-.1.85-.2,1.71-.31,2.56-.09.67-.53.91-1.15.91-3.42,0-6.83-.29-10.35-.22,1.93-.18,1.87-1.57,1.88-2.84,0-3.71,0-7.41,0-11.12,0-2.37,0-2.37-2.39-3.18h7.27a1,1,0,0,1-.05.22c-1.67,0-2,1-2,2.39.05,3.84-.09,7.69.09,11.53a1.73,1.73,0,0,0,1.85,1.88l.82,0c1.77,0,3.59.15,3.89-2.49Z"/><path d="M56.64,54.91c-1.1-2.25-2.72-3-4.79-2.46a2.5,2.5,0,0,0-1.31,4.27,13.48,13.48,0,0,0,2.79,2.21,11.63,11.63,0,0,1,3.15,2.83,4.61,4.61,0,0,1-3.15,7.32A12.36,12.36,0,0,1,49,69a1.42,1.42,0,0,1-1.32-1.82A7.08,7.08,0,0,1,48,65c.75,2.67,1.89,3.48,4.54,3.28a3,3,0,0,0,2.08-5.17,22.79,22.79,0,0,0-2.21-1.85,23.75,23.75,0,0,1-2.94-2.48,4.2,4.2,0,0,1,2.69-7.28,12,12,0,0,1,4.09.26c.39.08.58.19.55.6C56.74,53.14,56.7,53.93,56.64,54.91Z"/><path d="M172.25,54.67c-1.19-2-2.87-2.81-5-2.2A2.48,2.48,0,0,0,166,56.65a12.76,12.76,0,0,0,2.77,2.23A11.8,11.8,0,0,1,172,61.8,4.58,4.58,0,0,1,169.29,69a10.83,10.83,0,0,1-4.9,0c-1-.21-1.43-.67-1.27-1.7a5.75,5.75,0,0,1,.39-2.34c.21,1.16.41,2.16,1.36,2.74a5,5,0,0,0,3,.63,2.93,2.93,0,0,0,2.84-1.8,3,3,0,0,0-.8-3.52c-.85-.76-1.78-1.43-2.66-2.16s-1.64-1.33-2.38-2.07a4.13,4.13,0,0,1-1.05-4.54,4.2,4.2,0,0,1,3.68-2.68,12.65,12.65,0,0,1,4.23.25c.44.08.49.28.49.64C172.24,53.15,172.25,53.91,172.25,54.67Z"/><path d="M86,51.81h5.64C90,52,89.94,53.14,90,54.41c0,3.67,0,7.33.05,11,0,2.2.39,2.51,2.59,2.57h1c2.44,0,2.53,0,3.6-2.1.51,2.36-.09,3.12-2.43,3.12-2.66,0-5.31-.32-8-.09a1,1,0,0,1-.55-.23c1.27-.06,1.51-.91,1.51-1.85,0-4.44,0-8.89,0-13.34C87.79,52.18,86.78,52.22,86,51.81Z"/><path d="M157.37,81.72h29.41c.37,0,.73,0,1.1,0s.48.07.49.36-.21.38-.46.4-.64,0-1,0h-60c-.32,0-.71,0-.67-.46s.39-.3.64-.31.64,0,1,0Z"/><path d="M63.15,81.72H93.39c.23,0,.48,0,.51.33s-.24.44-.54.44H33.7a4.33,4.33,0,0,1-.55,0c-.37,0-1,.18-1-.42s.65-.34,1-.34Q48.16,81.71,63.15,81.72Z"/><path d="M109.28,51.82c-1.57.24-1.44,1.4-1.43,2.51,0,4,0,8,0,11.94,0,2,.15,2.09,2,2.5h-5.71c1.18-.17,1.41-1,1.42-2,0-4.39,0-8.78,0-13.17,0-1.09-.62-1.48-1.53-1.76Z"/><path d="M99.29,86.4c.9-1.22.83-6.93-.1-7.71,1.69,0,3.31-.08,4.93,0A3.45,3.45,0,0,1,107.57,82a3.86,3.86,0,0,1-2.8,4.19,8.31,8.31,0,0,1-2.72.25C101.18,86.39,100.31,86.4,99.29,86.4Zm2-4.09h0c0,.68,0,1.37,0,2.05-.05,1.12.46,1.54,1.56,1.52,2,0,3-.91,3.16-2.81a3.29,3.29,0,0,0-2.85-3.84c-1.75-.28-1.88-.18-1.88,1.56C101.32,81.3,101.32,81.8,101.32,82.3Z"/><path d="M150.44,169.43c-1.21.36-1.68-.25-1.65-1.61a5.47,5.47,0,0,0-.61-2.41l-2,4c-1.08-1.14-1.32-2.69-2.38-4.06-.18,1.36-.35,2.48-.47,3.6,0,.38-.12.61-.56.56s-.37-.4-.3-.62c.7-2,.61-4.15,1.23-6.44l2.66,5.3,2.57-5.27C149.74,164.85,149.45,167.28,150.44,169.43Z"/><path d="M114.22,85.12c.2,1.06-.3,1.33-1.28,1.27-1.23-.07-2.47,0-3.73,0,.88-1.23.8-6.89-.27-7.76,1.63,0,3.06,0,4.49,0,1.15.05.31.79.4,1.2a1.75,1.75,0,0,0-2.39-.46c-.63.41-.36,1.55-.14,2.28.17.56,1,.35,1.49.23,1.1-.27,1.26.14,1,1.09a2.54,2.54,0,0,0-2.47-.3,5.15,5.15,0,0,0,.17,2.77A2.14,2.14,0,0,0,114.22,85.12Z"/><path d="M85.33,165.88a3.41,3.41,0,0,1-3.56,3.65,3.34,3.34,0,0,1-3.63-3.42,3.44,3.44,0,0,1,3.6-3.49C83.91,162.59,85.31,163.86,85.33,165.88Zm-1.2.41c0-1.91-1.08-3.21-2.63-3.19-1.4,0-2.14,1-2.12,2.76S80.5,169.1,82,169.1C83.31,169.11,84.13,168,84.13,166.29Z"/><path d="M174,92.19c-3.54,0-6.61,1.19-9.69,2.29-.25-.66.23-.74.49-.9,2.09-1.32,4.21-2.57,6.28-3.92.88-.58,1.39-.4,1.82.49C173.25,90.78,173.61,91.4,174,92.19Z"/><path d="M95.83,169.38a2.32,2.32,0,0,1-2.66-1.16c-.28-.42-.59-.81-.88-1.22a.77.77,0,0,0-.86-.27c-.49.08-.29.48-.32.76a6.39,6.39,0,0,0,0,.69c0,1.48,0,1.48-1.55,1.14a.51.51,0,0,0,.43-.53,24.45,24.45,0,0,0-.14-5.73c-.08-.36,0-.26.2-.26.73,0,1.46,0,2.2,0a1.69,1.69,0,0,1,1.68,1,1.56,1.56,0,0,1-.38,1.89c-.66.61-.45,1,0,1.55A8.85,8.85,0,0,0,95.83,169.38ZM91,164.7c.4.46-.49,1.57.9,1.52.92,0,1.07-.68,1.09-1.41,0-.89-.37-1.59-1.29-1.59C90.59,163.2,91.36,164.18,91,164.7Z"/><path d="M133.59,169.4a27.48,27.48,0,0,0-.08-6.61c.72,0,1.58-.05,2.43,0,1.7.13,2.37,1.46,1.29,2.76-.59.72-.51,1.12.05,1.68.35.36.63.79,1,1.15s.74.65,1.13,1a2.16,2.16,0,0,1-2.49-1.07c-.28-.42-.6-.81-.88-1.23a.83.83,0,0,0-1-.36c-.48.1-.28.52-.27.79,0,.64-.3,1.42.61,1.89Zm3.11-4.54c-.06-.87-.36-1.62-1.3-1.65-1.13,0-.4.93-.6,1.41a.46.46,0,0,0,0,.27c.12.51-.42,1.37.74,1.33C136.48,166.19,136.58,165.53,136.7,164.86Z"/><path d="M116,78.65h2.56c-.69.38-.62.91-.63,1.41,0,1.32,0,2.65,0,4,0,.54-.28,1.33.49,1.54a2.29,2.29,0,0,0,2.44-.3c.11-.11.2-.23.33-.39.17,1.26-.38,1.59-1.48,1.52-1.27-.08-2.55,0-3.87,0C116.63,85.36,116.72,79.71,116,78.65Z"/><path d="M58.47,169.32a1.2,1.2,0,0,1-1.6-.33c-.31-.4-.63-.79-1-1.16s-.57-1.37-1.37-1.09-.23,1.1-.34,1.67.4,1.18-.64,1.08c-.5,0-.7.05-.6-.73a42.31,42.31,0,0,0,.11-5.34c0-.21-.2-.42-.29-.62.88,0,1.75-.06,2.61,0,1.59.14,2.26,1.49,1.25,2.71-.63.75-.53,1.18.06,1.78S57.83,168.59,58.47,169.32ZM54,164.7c.57.36-.57,1.51.85,1.52.94,0,1.11-.68,1.13-1.37,0-.89-.35-1.7-1.37-1.64S54.43,164.16,54,164.7Z"/><path d="M125.07,162.79h2.86c.25,0,.57-.16.66.25a.64.64,0,0,1-.06.4c-.28.5-.38-.09-.58-.11-.48,0-1.1-.35-1.39.1a2.52,2.52,0,0,0-.09,1.87c.13.62.79.37,1.16.3,1-.18,1,.23.73.95-.58-.53-1.45-.72-1.78-.22a2.14,2.14,0,0,0,0,2.33c.54.65,1.44.42,2.12-.17-.13,1.14-.13,1.14-3.61.9A26,26,0,0,0,125.07,162.79Z"/><path d="M66.17,168.54c-.89,1.94-2.66.25-3.89,1.1.67-2.43.32-4.62.3-6.86h2.83c.21,0,.48-.14.55.19a.74.74,0,0,1,0,.53c-.22.26-.37-.08-.56-.14-.49-.16-1.27-.34-1.41,0a3.19,3.19,0,0,0-.1,2c.17.59.88.16,1.33.26.22,0,.57-.27.61.23,0,.18,0,.42-.07.53-.31.33-.29-.3-.58-.22s-1.18-.36-1.29.28-.44,1.82.22,2.35A1.64,1.64,0,0,0,66.17,168.54Z"/><path d="M117.11,169.38a28,28,0,0,0,.17-5.73c0-.53-.53-.35-.86-.37a2.77,2.77,0,0,0-1.51.38c.11-.53-.12-1,.77-1a27,27,0,0,0,4.24.05c.91-.06,1,.23.77,1a1.85,1.85,0,0,0-2-.41c-.57.22-.26.89-.27,1.35,0,1.14,0,2.28,0,3.42,0,.46-.14,1.07.59,1.26Z"/><path d="M160.19,169.41c-1.06.3-1.8,0-2-1.27-.12-.82-.63-1-1.45-1.05s-1.17.42-1.4,1.14c-.38,1.2-.4,1.19-1.32,1.17,1.21-2.16,1.85-4.53,3-6.9C158.29,164.79,158.72,167.37,160.19,169.41Zm-2.57-2.78a5.88,5.88,0,0,0-.9-2l-.75,2A3.42,3.42,0,0,0,157.62,166.63Z"/><path d="M102.44,169.39l-.84,0H99.85c.66-.38.57-.85.57-1.29,0-1,0-2.1,0-3.15,0-1.92-.59-2.25-2.42-1.27,0-.69.06-1.08,1-1a28.74,28.74,0,0,0,4.24,0c.83,0,.78.35.64,1.07a1.24,1.24,0,0,0-.88-.5c-.91-.18-1.6-.2-1.46,1.12s0,2.46,0,3.69C101.55,168.66,101.54,169.18,102.44,169.39Z"/><path d="M70.48,167.78a4.78,4.78,0,0,0,.64,1,1.22,1.22,0,0,0,1.74,0,1,1,0,0,0,0-1.58c-.46-.5-1-.9-1.51-1.39a1.78,1.78,0,0,1-.42-2.35,2.27,2.27,0,0,1,2.59-.77c.79.15.37.79.5,1.26a4.44,4.44,0,0,0-1-.79,1,1,0,0,0-1.34.34.91.91,0,0,0,.24,1.23c.54.5,1.16.91,1.64,1.45a1.92,1.92,0,0,1,.16,2.63,2.87,2.87,0,0,1-2.92.56C70.15,169,70.53,168.4,70.48,167.78Z"/><path d="M168.25,168.28c-.16,1.39.48,1.23-4,1.12a22.14,22.14,0,0,0,0-6.59h0c.84-.05,1.76-.4,1.33,1.19a11.44,11.44,0,0,0,0,3.28c0,.56-.29,1.34.45,1.57A1.77,1.77,0,0,0,168.25,168.28Z"/><path d="M62.73,4.16l-.32.2c0-.33.2-.15.33-.19Z"/><path d="M89.4,28l-.19-.1s.07-.07.09-.07a1.14,1.14,0,0,1,.2.09Z"/><path d="M88.82,28.25s-.07.07-.1.07-.06-.06-.1-.09.07-.08.11-.07S88.79,28.22,88.82,28.25Z"/></g></g></svg>