<svg xmlns="http://www.w3.org/2000/svg" viewBox="0 0 240.63 132.07"><title>Asset 121</title><g id="Layer_2" data-name="Layer 2"><g id="Main"><path d="M19.42,22.35c1.2-.93,2.39-1.89,3.61-2.79A93.59,93.59,0,0,1,51,5.73,124.11,124.11,0,0,1,75.56.79a152.84,152.84,0,0,1,23-.6,177.91,177.91,0,0,1,65.87,16.13,153.42,153.42,0,0,1,36.5,23.21,127.48,127.48,0,0,1,13.88,13.89c.28.33.59.64,1,1.12l.13-2.22c.43,0,.79-.07,1.15-.07,3.65,0,7.3,0,10.95,0a12.45,12.45,0,0,1,12.37,10.17,14.21,14.21,0,0,1,.2,2.6c0,2.49,0,5,0,7.46a12.14,12.14,0,0,1-6.51,11.23c-.14.08-.27.18-.51.35a104.52,104.52,0,0,1,6.54,24.41H238.7c-5.14,0-10.29,0-15.43.07-2,0-4,.12-6,.18-.41,0-.81,0-1.31,0a71,71,0,0,0-5.5-21.81c0,.3-.06.59-.06.89,0,3-.05,6,0,9a10.82,10.82,0,0,1-5.17,9.62,16.46,16.46,0,0,1-18.33-.25A11.11,11.11,0,0,1,182,96.58c0-10.53.06-21.07,0-31.6,0-4.76,2.1-8.13,6.07-10.52.35-.21.71-.41,1.2-.69-.4-.43-.75-.82-1.11-1.2a149.27,149.27,0,0,0-38.09-28.47A160.87,160.87,0,0,0,110.51,9.29,138,138,0,0,0,72.25,5.79a108.49,108.49,0,0,0-34.62,7.35A95,95,0,0,0,21.27,21.5L19.6,22.56ZM193.2,58.12a29.23,29.23,0,0,0-3,1.64,5.38,5.38,0,0,0-2.4,4.65q0,16.28,0,32.57a5.43,5.43,0,0,0,2.24,4.49,10.78,10.78,0,0,0,12.42.08,5.32,5.32,0,0,0,2.28-4.46q0-10.81,0-21.63a3.72,3.72,0,0,0-.56-2,110,110,0,0,0-7.47-11C195.6,61.08,194.47,59.71,193.2,58.12ZM231.28,78.7c2.26-1.5,3.53-3.35,3.53-5.95,0-2.77,0-5.55,0-8.32A6.78,6.78,0,0,0,228.33,58c-1.9,0-3.81,0-5.71,0a9,9,0,0,0-1,.11c0,1,0,1.84,0,2.7a3.79,3.79,0,0,0,.76,2.54,103.36,103.36,0,0,1,7.49,12.58C230.33,76.79,230.77,77.67,231.28,78.7Z"/><path d="M87.42,48.66H82.57V13.5a83.68,83.68,0,0,0-13.24.85V48.67H64.58c0-2.78,0-5.54,0-8.29s0-5.64,0-8.46V15.28c-1.35-.22-10.11,1.81-13.13,3,0,3.26,0,6.61,0,10s0,6.8,0,10.2V48.69L49,48.74H46.65V20c-.5.15-.81.22-1.11.34a81.84,81.84,0,0,0-10.64,5.1,2.11,2.11,0,0,0-1.25,2.13c.05,6.51,0,13,0,19.53v1.57H28.82V29.57A40.08,40.08,0,0,0,20.29,38a27.83,27.83,0,0,0-5,10.67H.33c.27-.54.49-1,.73-1.47A64.64,64.64,0,0,1,23.5,23.36a85.5,85.5,0,0,1,26.42-10.9,115.72,115.72,0,0,1,30.48-3,129.25,129.25,0,0,1,40.76,7.64,3.13,3.13,0,0,1,.87.46,172.17,172.17,0,0,0-34.61-4Z"/><path d="M45.47,81l.94.88a11.44,11.44,0,0,1,3.93,8.91c-.07,5.43,0,10.86,0,16.29,0,.48,0,1-.07,1.51H44.59c0-.52-.07-1-.07-1.49q0-8.15,0-16.29A6.56,6.56,0,0,0,39,83.95a3.42,3.42,0,0,0-.73-.09h-7a2.7,2.7,0,0,0-.48.12v24.64H25.28c-.3-.93-.48-53.37-.18-56.3.37,0,.77-.06,1.16-.06,3.65,0,7.3,0,10.95,0A12.47,12.47,0,0,1,49.85,64.59c.08,2.73,0,5.47,0,8.21a10.56,10.56,0,0,1-3.45,7.35C46.13,80.44,45.82,80.71,45.47,81ZM30.94,58c-.26,1.76-.19,19.94.08,20.86,1.88,0,3.79,0,5.69,0a14.29,14.29,0,0,0,2.46-.23,5.85,5.85,0,0,0,4.75-5.34c.05-3.15,0-6.29,0-9.44a7.25,7.25,0,0,0-1.3-4A3.66,3.66,0,0,0,39.69,58C36.79,57.93,33.9,58,30.94,58Z"/><path d="M157.7,108.63H152V52.32h5.65v26.1a105.66,105.66,0,0,0,13.45.12V52.45a8.79,8.79,0,0,1,2.9-.2c.91,0,1.81,0,2.61,0l.21.16a.23.23,0,0,1,.06.1,2.67,2.67,0,0,1,.08.49q0,27.43,0,54.87a2.42,2.42,0,0,1-.06.49,1.25,1.25,0,0,1-.16.28h-5.54c-.1-1.37,0-2.73,0-4.07s0-2.74,0-4.11V83.87H157.7Z"/><path d="M147,70.75h-5.65c0-.49-.06-.9-.06-1.3,0-1.49,0-3,0-4.48a6.55,6.55,0,0,0-4.73-6.55,7.29,7.29,0,0,0-8.06,2,5.8,5.8,0,0,0-1.67,4.16c0,2.61,0,5.23,0,7.84a4.76,4.76,0,0,0,2.3,4.28,8.63,8.63,0,0,0,4,1.44,22,22,0,0,1,7.32,1.72,13.05,13.05,0,0,1,4.23,3A8.33,8.33,0,0,1,147,88.58c0,2.53,0,5.06,0,7.59,0,5.65-2.8,9.53-7.87,11.72a13.16,13.16,0,0,1-17.2-6.73,11.31,11.31,0,0,1-.93-4.22c0-1.87,0-3.73,0-5.6a5.18,5.18,0,0,1,.1-.68h5.54c0,.43.07.83.08,1.24,0,1.24,0,2.49,0,3.73,0,4,2.05,6.57,6,7.45a7.13,7.13,0,0,0,8.33-5.3,6.64,6.64,0,0,0,.13-1.36c0-2.45,0-4.89,0-7.34A4.21,4.21,0,0,0,139,85.19a9.9,9.9,0,0,0-5.22-1.36,14.21,14.21,0,0,1-7.22-2,10.61,10.61,0,0,1-5.37-7.12,12.8,12.8,0,0,1-.21-2.47c0-2.24,0-4.48,0-6.72,0-7.12,4.15-11.94,11.17-13.14,5.35-.91,12,2.14,14.12,8.13a12.28,12.28,0,0,1,.67,3.39C147.05,66.16,147,68.4,147,70.75Z"/><path d="M61.18,78.68H75.71a13.26,13.26,0,0,1,.06,5.09H61.32c-.3,1-.41,16.76-.14,19.22H77.7v5.51c-.94.27-21,.3-22.28,0V52.32H77.74c.08,1.83,0,3.67,0,5.61H61.32C61,58.9,60.91,76.09,61.18,78.68Z"/><path d="M87.28,103h16.66v5.59H81.68V52.33h22.25v5.61H87.36V78.68h14.75v5.08H87.29C87.28,90.21,87.28,96.52,87.28,103Z"/><path d="M.16,52.28H22.38c.15,1.87.05,3.7.06,5.68H5.78V78.7H20.53v5.09H5.72v24.82H.28l-.08-.07s-.06-.06-.07-.1c0-.33-.08-.66-.08-1Q0,80.1,0,52.74A1.84,1.84,0,0,1,.16,52.28Z"/><path d="M24.45,122.38c0,1.4,0,2.64,0,3.87a4.92,4.92,0,0,1-.1,1.1.85.85,0,0,1-.93.67.89.89,0,0,1-.85-.77,5.32,5.32,0,0,1,0-.87q0-5.77,0-11.55c0-1.61.46-2.1,2.05-2.08a36.43,36.43,0,0,1,4.94.21,4.29,4.29,0,0,1,3.76,4.63,4.38,4.38,0,0,1-3.81,4.6,13.9,13.9,0,0,1-2,.18C26.55,122.4,25.6,122.38,24.45,122.38Zm.07-1.94c1.5,0,2.93,0,4.36,0a2.34,2.34,0,0,0,2.36-2,3.14,3.14,0,0,0-1.1-3.43,1.81,1.81,0,0,0-.68-.28,38.78,38.78,0,0,0-4.94-.09Z"/><path d="M188.07,116.79c0-.83,0-1.66,0-2.48a4.73,4.73,0,0,1,.07-1,.87.87,0,0,1,.88-.74.92.92,0,0,1,.94.81,3,3,0,0,1,0,.62c0,3.85,0,7.69,0,11.54a1.55,1.55,0,0,1-.92,1.59,8.31,8.31,0,0,1-4.41,1,4.33,4.33,0,0,1-4.11-4.08,21.26,21.26,0,0,1,0-3.59,4,4,0,0,1,4.41-4C186,116.49,186.92,116.65,188.07,116.79Zm0,2.09a5.68,5.68,0,0,0-3.24-.71,2.18,2.18,0,0,0-2.28,1.87,10.22,10.22,0,0,0,0,4.31,2.4,2.4,0,0,0,2,2,4.53,4.53,0,0,0,3.11-.54,1.06,1.06,0,0,0,.41-.8C188.08,123,188.07,120.94,188.07,118.88Z"/><path d="M133.51,121.24c0-.57,0-.94,0-1.3a1.76,1.76,0,0,0-1.78-1.72,13.84,13.84,0,0,0-2.93.34c-1,.21-1.41.19-1.62-.34s.13-1,1.09-1.35a7.53,7.53,0,0,1,4.74-.18,3,3,0,0,1,2.27,2.67c.14,1.27.13,2.56.16,3.84,0,.87,0,1.74,0,2.61a1.31,1.31,0,0,1-.72,1.33,8,8,0,0,1-6,.75,3.35,3.35,0,0,1-2.45-3.23,3.3,3.3,0,0,1,2.22-3.38,7.07,7.07,0,0,1,3.67-.26C132.58,121.07,133,121.15,133.51,121.24Zm0,1.76a6.74,6.74,0,0,0-3.89-.32,1.77,1.77,0,0,0-1.44,1.77,1.81,1.81,0,0,0,1.5,1.87,5,5,0,0,0,3.84-.58Z"/><path d="M56.86,121.24a11.05,11.05,0,0,0-.08-1.44A1.83,1.83,0,0,0,55,118.19a6.8,6.8,0,0,0-2.94.34c-1,.32-1.43.19-1.61-.33s.17-1,1.13-1.35a7.53,7.53,0,0,1,4.63-.2,3.09,3.09,0,0,1,2.41,3c.11,2.15,0,4.31.07,6.47a1.12,1.12,0,0,1-.72,1.06,8,8,0,0,1-5.89.73,3.33,3.33,0,0,1-2.49-3.32,3.28,3.28,0,0,1,2.29-3.33,7.19,7.19,0,0,1,3.68-.2Zm0,1.77a7,7,0,0,0-4-.33,1.8,1.8,0,0,0-1.43,1.8A1.77,1.77,0,0,0,53,126.32a9.55,9.55,0,0,0,2.82-.14c1.07-.22,1.06-.33,1.07-1.46C56.86,124.18,56.86,123.65,56.86,123Z"/><path d="M80.42,124.9l2.07-5.19c.32-.81.63-1.62,1-2.42s.75-.85,1.27-.64.7.67.46,1.36c-.31.86-.68,1.69-1,2.53-1,2.34-1.87,4.7-2.92,7a21.14,21.14,0,0,1-2.06,3.37,4.39,4.39,0,0,1-1.37,1,.83.83,0,0,1-1.18-.34.88.88,0,0,1,.27-1.21A14.28,14.28,0,0,0,78.46,129a2.53,2.53,0,0,0,.4-3.06c-1.18-2.37-2.15-4.84-3.2-7.27a5.48,5.48,0,0,1-.36-.92.81.81,0,0,1,.47-1A.87.87,0,0,1,77,117a7.78,7.78,0,0,1,.48,1Z"/><path d="M153.42,122.78c0-1.33,0-2.66,0-4a1.46,1.46,0,0,1,.84-1.52,8.14,8.14,0,0,1,6-.59,3.29,3.29,0,0,1,2.36,2.51,8.09,8.09,0,0,1,.23,1.84c0,1.78,0,3.57,0,5.35a4.35,4.35,0,0,1,0,.87.88.88,0,0,1-.87.76.87.87,0,0,1-.92-.68,4.19,4.19,0,0,1-.09-1c0-1.74,0-3.48,0-5.23,0-2.13-.94-3-3.09-2.94a5.51,5.51,0,0,0-.74,0c-1.66.26-1.83.45-1.83,2.13q0,2.86,0,5.72c0,.25,0,.5,0,.75,0,.81-.39,1.23-1,1.2s-.88-.44-.89-1.26C153.41,125.44,153.42,124.11,153.42,122.78Z"/><path d="M215.61,125.55c0-2.43,0-4.83,0-7.23a8.85,8.85,0,0,1,0-1,.84.84,0,0,1,.83-.78.86.86,0,0,1,.95.78,4.65,4.65,0,0,1,0,.74c0,2.48,0,5,0,7.45a1.62,1.62,0,0,1-1,1.68,7.28,7.28,0,0,1-5.63.64,3.59,3.59,0,0,1-2.73-3.34c-.12-2.31-.07-4.63-.08-6.95a.93.93,0,0,1,.87-1c.52-.06,1,.37,1,1,0,1.66,0,3.31,0,5,0,.41,0,.83,0,1.24a2.48,2.48,0,0,0,2.47,2.57A5.13,5.13,0,0,0,215.61,125.55Z"/><path d="M105.63,116.43a4.68,4.68,0,0,1,2.85.7c.45.28.8.62.53,1.22s-.72.68-1.36.35a4.45,4.45,0,0,0-2.75-.52,1.51,1.51,0,0,0-1.46,1.29c-.09.67.23,1.15,1.06,1.46.54.2,1.11.32,1.66.48s1.12.29,1.65.5a3.12,3.12,0,0,1,.53,5.45,6.28,6.28,0,0,1-6.56-.32,1,1,0,0,1-.31-1.32.87.87,0,0,1,1.31-.16,4.31,4.31,0,0,0,3.28.81,2.7,2.7,0,0,0,1.4-.67,1.25,1.25,0,0,0-.34-2.08,8.29,8.29,0,0,0-1.4-.47,22.7,22.7,0,0,1-2.58-.86c-2.21-1-1.85-4-.32-5.08A4.25,4.25,0,0,1,105.63,116.43Z"/><path d="M215.17,113.16c-.09.12-.22.4-.44.53-.89.51-1.8,1-2.73,1.44a.83.83,0,0,1-1.2-.23c-.27-.42-.12-.85.5-1.19.86-.48,1.73-.95,2.63-1.36A.8.8,0,0,1,215.17,113.16Z"/></g></g></svg>