<svg xmlns="http://www.w3.org/2000/svg" viewBox="0 0 435 98.21"><title>Asset 128</title><g id="Layer_2" data-name="Layer 2"><g id="Main"><path d="M35.38,0C46,0,56.7-.07,67.36.07,80.26.23,90.61,5.54,97.85,16.3,112.43,38,99.13,68,73.3,71.85a39.85,39.85,0,0,1-5.73.4q-15.89.06-31.79,0c-1.33,0-1.95.34-2.3,1.71-1.33,5.21-2.82,10.37-4.23,15.56-1.6,5.91-5.2,8.7-11.28,8.7-4.9,0-9.79,0-14.69,0C.88,98.19.41,97.58,1,95.25,5,79.38,9,63.51,13,47.62c.43-1.72,1.36-2,2.92-2q25.47.05,50.94,0c4.9,0,8.61-2.63,9.71-6.81a9.11,9.11,0,0,0-8.81-11.47c-15.43,0-30.86,0-46.29-.05a33.47,33.47,0,0,1-11.86-1.8A14,14,0,0,1,0,11.66C0,8.75,0,5.84,0,2.93,0,.29.24,0,2.85,0Z"/><path d="M233.9,44.16c.93-4.57,2-9.51,2.92-14.48.27-1.46.83-2,2.3-2a45.21,45.21,0,0,0,5.57,0c2-.15,1.94.92,1.66,2.3q-1.9,9.35-3.77,18.71c-1.45,7.21-2.94,14.41-4.32,21.63-.29,1.51-.9,2.12-2.45,2a46.17,46.17,0,0,0-5.38,0c-1.55.08-2.26-.35-1.75-2a.86.86,0,0,0,0-.48c-2.07,1-4,2.42-6.24,3C214.77,75,207.75,70.8,206,63.05c-1.64-7.33-.33-14.09,5.28-19.46A15.17,15.17,0,0,1,227.13,40C229.53,40.78,231.57,42.69,233.9,44.16Zm-3,10.65c0-5.06-4-7.93-8.77-6.26a10,10,0,0,0-6.36,8.8c-.33,5.36,3.76,8.43,8.87,6.67A9.85,9.85,0,0,0,230.95,54.8Z"/><path d="M291.58,44.49l2.18-10.81c.28-1.39.58-2.78.82-4.18.21-1.19.71-1.85,2.08-1.78,2.1.11,4.21,0,6.32,0,1.15,0,1.46.38,1.22,1.59-2.82,13.85-5.56,27.72-8.39,41.57-.11.54-.84,1.35-1.32,1.37-2.65.13-5.3.06-8.07.06V69.46c-.41.29-.67.43-.88.61a13.18,13.18,0,0,1-14.06,2.35c-5-1.92-7.47-6-8.1-11.12-.82-6.67.52-12.84,5.59-17.72,4.68-4.5,12.48-5.76,17.91-2.77A37.7,37.7,0,0,1,291.58,44.49Zm-2.66,10.17a6.2,6.2,0,0,0-7.55-6.48c-4.81.86-8.56,6.33-7.63,11.13a6,6,0,0,0,7.34,5A9.75,9.75,0,0,0,288.92,54.67Z"/><path d="M144.6,28c3.58,0,7.24-.45,10.74.09,6.87,1.06,10.81,5.17,11.46,11.07.82,7.48-2.33,13.7-8.75,16.18a36.84,36.84,0,0,1-9.37,1.87,65.56,65.56,0,0,1-8.72,0c-1.25,0-1.71.4-1.92,1.61-.61,3.46-1.34,6.91-2.06,10.35-.46,2.23-1.25,2.87-3.58,2.92-1.92,0-3.84-.05-5.76,0-1.62.07-1.88-.7-1.6-2.07q3.57-17.7,7.1-35.42c.33-1.63.77-3.25,1-4.9s1-2.16,2.58-2.1c3,.12,5.94,0,8.92,0Zm-4.36,20c3.55,0,6.69.08,9.82,0a8.26,8.26,0,0,0,3.34-1,5.82,5.82,0,0,0,2.7-6.71c-.53-2.05-2.3-3.3-5-3.42-2.41-.11-4.82-.18-7.22-.18-.52,0-1.42.33-1.5.66C141.63,40.83,141,44.33,140.24,48Z"/><path d="M425.12,44.08c.74-2.95.74-3,3.57-2.94,1.86,0,3.72,0,5.57.06a3.15,3.15,0,0,1,.74.29c-.51,2.62-1,5.26-1.56,7.91-1.46,7.34-3,14.66-4.36,22a2,2,0,0,1-2.37,1.91c-1.67-.07-3.35-.09-5,0s-2.38-.41-1.89-2.13a3.25,3.25,0,0,0-.05-.88c-.49.27-.86.44-1.19.67A14.88,14.88,0,0,1,406,73c-5.32-1.34-8.61-6-8.71-12.18a20.38,20.38,0,0,1,15-19.64C416.95,39.89,421.29,40.42,425.12,44.08ZM414.12,65c5.07,0,9.55-5.6,8.52-10.69-.74-3.71-3.71-5.61-7.44-4.76a9.46,9.46,0,0,0-7,9.85A5.74,5.74,0,0,0,414.12,65Z"/><path d="M322.43,39.27c8,0,13.74,3.87,15.59,10.59a18.46,18.46,0,0,1-17.08,23.49,24.47,24.47,0,0,1-6.26-.49c-7.9-1.77-12.41-8.43-11.45-16.61C304.48,45.73,311.8,39.26,322.43,39.27Zm6,16.08c.05-4.1-2.34-6.49-6.57-6.59a8.27,8.27,0,0,0-8.58,8.51c0,4,2.48,6.55,6.6,6.59C324.86,63.92,328.39,60.4,328.46,55.36Z"/><path d="M384.93,46.62,388.14,42c2.79-4,5.62-8,8.37-12.06a2.73,2.73,0,0,1,2.57-1.4c3,.08,6.07,0,9.11,0a8.19,8.19,0,0,1,1.72.39,6.64,6.64,0,0,1-.67,1.78c-5.58,7.28-11.07,14.63-16.86,21.73a20.38,20.38,0,0,0-4.69,10.62c-.34,2.69-1,5.34-1.49,8a2.51,2.51,0,0,1-2.93,2.38c-2-.09-4.09,0-6.13,0s-2.27-.22-1.87-2.26c.85-4.31,1.8-8.59,2.58-12.91a5.84,5.84,0,0,0-.28-3c-3.16-8.19-6.41-16.35-9.64-24.52-.79-2-.63-2.22,1.53-2.23,2.48,0,5,.08,7.44,0a2.24,2.24,0,0,1,2.55,1.83c1.56,4.76,3.19,9.49,4.8,14.24Z"/><path d="M177.15,58.88a5.39,5.39,0,0,0,4.46,5.72,12.38,12.38,0,0,0,8.49-.91,2,2,0,0,1,2.75.54c1.15,1.29,2.45,2.46,3.52,3.81a1.81,1.81,0,0,1-.1,1.75c-7.22,5.15-19.21,4.79-24.57-1.06-4.45-4.85-4.73-10.58-3.09-16.52A17.59,17.59,0,0,1,185.5,39.29a24.81,24.81,0,0,1,4.81.2c8.08,1.46,12.3,7.51,11,15.65-.1.61-.25,1.21-.33,1.82-.18,1.39-.86,2-2.35,2-6.5-.07-13,0-19.5,0Zm15.58-7c.08-2.3-.74-4-2.74-4.91a9,9,0,0,0-7-.12,7.66,7.66,0,0,0-4.82,5Z"/><path d="M355.23,38.79c3.15.81,6.3,1.6,9.43,2.43,1.27.34,1.66,1.11,1,2.37-.74,1.49-1.44,3-2.06,4.56-.42,1.05-1,1.11-2,.8a45.84,45.84,0,0,0-7-1.5c-.76-.09-1.63.76-2.45,1.19.54.74.92,1.72,1.64,2.17,1.72,1.08,3.61,1.89,5.4,2.87,4.82,2.64,6.67,6.11,5.93,11.06-.65,4.33-3.52,7.13-8.65,8.19a22.53,22.53,0,0,1-16.1-2.66c-1.38-.78-1.69-1.63-.84-3a41.14,41.14,0,0,0,2.28-4c.66-1.37,1.4-1.37,2.63-.66,2.58,1.51,5.33,2.72,8.42,2.38a3.59,3.59,0,0,0,2.54-1.3c.61-1.18-.63-1.81-1.56-2.32-2-1.07-4-2-5.87-3.17-3.85-2.3-5.83-5.67-5.33-10.22.53-4.87,4.23-8.12,9.66-8.6.92-.08,1.86,0,2.78,0Z"/><path d="M244.47,72.33c.66-3.4,1.24-6.41,1.84-9.42,1.19-5.92,2.46-11.83,3.54-17.77.35-1.9,1.12-2.63,3.06-2.46s3.83,0,5.75,0c1.09,0,1.53.35,1.27,1.59-1.83,8.87-3.57,17.77-5.4,26.64-.11.52-.75,1.31-1.17,1.33C250.53,72.39,247.7,72.33,244.47,72.33Z"/><path d="M256.61,37.78c-3.22,0-4.91-1.63-4.92-4.69a6.4,6.4,0,0,1,6.58-6.73c3.2,0,5,1.81,4.91,5A6.2,6.2,0,0,1,256.61,37.78Z"/></g></g></svg>