<svg xmlns="http://www.w3.org/2000/svg" viewBox="0 0 227.35 116.55"><title>Asset 114</title><g id="Layer_2" data-name="Layer 2"><g id="Main"><path d="M60,54a10.18,10.18,0,0,1,.16,1.14c0,4.22,0,8.45,0,12.67a5.29,5.29,0,0,1-1.08,3,31.49,31.49,0,0,1-12.24,11A32,32,0,1,1,27,22a31.36,31.36,0,0,1,23.52,5.53c.66.46,1.32.91,2,1.34a7.86,7.86,0,1,1-7.17-.62c.37-.15.74-.28,1.22-.46a4.16,4.16,0,0,0-2.67-1,16.5,16.5,0,0,0-7.21.95A19,19,0,1,0,59.33,55.08C59.48,54.8,59.69,54.53,60,54Z" transform="translate(0)"/><path d="M151.69,49.14q0-2.71,0-5.43c0-3,0-6,0-8.93a7.44,7.44,0,0,0-3.07-6.35,17.29,17.29,0,0,0-12.73-3.17s-.06.06-.18.2c.21.35.43.76.69,1.16a7.33,7.33,0,0,1-.87,9.21,7.89,7.89,0,0,1-9.43,1.56,7.77,7.77,0,0,1-4-8.56,7.91,7.91,0,0,1,3.8-4.94,14,14,0,0,1,5.54-1.8,37.09,37.09,0,0,1,12.73.23,16,16,0,0,1,8.32,4.23,10.17,10.17,0,0,1,3.15,7.53q0,7.87,0,15.73a11,11,0,0,0,.48,3.27,3.6,3.6,0,0,0,5.16,2.18,21.17,21.17,0,0,0,2-1.25c.4-.25.81-.48,1.35-.79a6.4,6.4,0,0,1,.2,1c0,8,.1,15.91,0,23.86a7.53,7.53,0,0,1-8.29,7.31A8.05,8.05,0,0,1,150,80.67c-.17-.36-.31-.73-.51-1.21-.32.23-.58.42-.84.62a23.39,23.39,0,0,1-12.59,5.32c-8.9.72-15.91-2.87-20.65-10.37a22.12,22.12,0,0,1,14.72-33.47c7.91-1.44,14.75.89,20.37,6.68.31.32.6.64.9,1ZM150.37,58a3.91,3.91,0,1,0-3.92,3.9A4,4,0,0,0,150.37,58Z" transform="translate(0)"/><path d="M214.09,49.09q0-2.73,0-5.46,0-4.47,0-8.94a7.36,7.36,0,0,0-2.74-6c-3.84-3.13-8.34-3.87-13.41-3.5.32.54.51.91.74,1.26a7.29,7.29,0,0,1-.4,8.92,7.85,7.85,0,0,1-14-4.82,7.15,7.15,0,0,1,2-5.08,9.8,9.8,0,0,1,5-2.89,35,35,0,0,1,16.12-.08,15.46,15.46,0,0,1,6.94,3.53,10.27,10.27,0,0,1,3.64,8q0,8,0,16a10.14,10.14,0,0,0,.4,2.88,3.65,3.65,0,0,0,5.33,2.27c.67-.33,1.28-.79,1.93-1.19.4-.24.81-.47,1.35-.78a7.66,7.66,0,0,1,.18,1.06c0,7.82.09,15.65.08,23.47a7.6,7.6,0,0,1-8.23,7.68,8,8,0,0,1-6.67-4.69c-.19-.4-.34-.81-.55-1.31l-.85.66c-5.11,3.85-10.75,6.06-17.26,5.29a22.2,22.2,0,0,1-1.32-43.81c8-1.48,14.84.87,20.49,6.71l.89.93Zm-5.26,5a3.93,3.93,0,0,0,.13,7.86,3.93,3.93,0,0,0-.13-7.86Z" transform="translate(0)"/><path d="M88.55,54.29l1.56-.21a9.63,9.63,0,0,0,5-2.11,6.48,6.48,0,0,0,2.6-5.44c0-3.24-.05-6.49-.05-9.73a11.49,11.49,0,0,0-3-7.78,10,10,0,0,0-13.2-1.71A11,11,0,0,0,76,37c0,3.33.15,6.67,0,10-.12,3.12,3.13,6.66,6,7.06l.53.08c1.11.19,1.18.27,1.21,1.35,0,.62,0,1.24,0,1.87,0,7.74,0,15.47.06,23.21a3.11,3.11,0,0,1-1.76,3,15.21,15.21,0,0,1-5.42,1.75,20.4,20.4,0,0,1-10.37-.93,15.6,15.6,0,0,1-2.15-1,2.57,2.57,0,0,1-1.38-2.52c.07-3.47,0-6.93,0-10.4q0-7.2,0-14.4c0-.52,0-1,0-1.65.7-.11,1.26-.21,1.82-.28a9.52,9.52,0,0,0,4.4-1.8,6.71,6.71,0,0,0,3-5.78c-.05-12.63,0-25.25,0-37.88A10.16,10.16,0,0,0,71.82,7a4.07,4.07,0,0,0-3.06-3.5c-.64-.19-1.29-.35-1.92-.57a1.3,1.3,0,0,1-1-1.37A1.5,1.5,0,0,1,67,.2l.13,0c2.49,0,5-.06,7.46,0a1.41,1.41,0,0,1,1.32,1.3A9.91,9.91,0,0,1,76,3.07q0,10.6,0,21.21V26l1.35-1.12c8.18-6.72,21.3-3.33,24,8a17.32,17.32,0,0,1,.38,3.7c.05,3.38,0,6.76,0,10.14a7.57,7.57,0,0,0,6.38,7.41c1.34.2,1.37.23,1.37,1.61,0,8.4,0,16.81,0,25.21a2.49,2.49,0,0,1-1.24,2.33,11.11,11.11,0,0,1-2.13,1.09,20.65,20.65,0,0,1-14.1,0A14.13,14.13,0,0,1,89.47,83a2.08,2.08,0,0,1-1-1.91q0-12.94,0-25.87C88.47,55,88.52,54.71,88.55,54.29Z" transform="translate(0)"/><path d="M153,87.57l1.33.33c7.92,2.12,13.57-4.55,13.52-10.21-.15-15.42-.05-30.85-.05-46.28,0-.44,0-.89-.05-1.33a4.11,4.11,0,0,0-3-3.81c-.63-.2-1.29-.35-1.91-.57-.85-.3-1.17-.77-1.1-1.45a1.49,1.49,0,0,1,1.28-1.35,4.75,4.75,0,0,1,1.06-.1c1.82,0,3.65,0,5.47,0,1.56,0,2.15.62,2.18,2.19,0,.27,0,.53,0,.8q0,31.07,0,62.14c0,7.24,0,14.49.14,21.73a5.31,5.31,0,0,1-3.14,5.25,13.4,13.4,0,0,1-10.59.94,7.07,7.07,0,0,1-5.26-7.32q0-9.73.05-19.47C152.89,88.65,152.94,88.21,153,87.57Z" transform="translate(0)"/><path d="M174.64,7.89A7.85,7.85,0,1,1,166.81,0,7.8,7.8,0,0,1,174.64,7.89Z" transform="translate(0)"/><path d="M205.12,12.87c0-3.06-.05-6,0-9a3.93,3.93,0,0,1,7.86.2,3.19,3.19,0,0,1-.91,2.16c-2.18,2.21-4.4,4.4-6.61,6.59C205.44,12.86,205.32,12.84,205.12,12.87Z" transform="translate(0)"/></g></g></svg>