<svg xmlns="http://www.w3.org/2000/svg" viewBox="0 0 321.98 75.85"><title>Asset 132</title><g id="Layer_2" data-name="Layer 2"><g id="Main"><path d="M118.66,57.26c-1.2-.37-2.32-.68-3.33-.9s-2.11-.44-3.22-.68a10.58,10.58,0,0,1-3.5-1.2,2.12,2.12,0,0,1-.91-1.85,2.33,2.33,0,0,1,.54-1.5,3.77,3.77,0,0,1,1.38-1,7.91,7.91,0,0,1,1.88-.52,12.26,12.26,0,0,1,2-.13,14.86,14.86,0,0,1,5.45,1,15.86,15.86,0,0,1,4.5,2.55h.85V46a28.09,28.09,0,0,0-5.1-1.49,30.17,30.17,0,0,0-6-.6,16.78,16.78,0,0,0-9.87,2.75,8.27,8.27,0,0,0-3.82,7A8.56,8.56,0,0,0,101.15,59a11.26,11.26,0,0,0,5.55,3.42,24.58,24.58,0,0,0,3.6.91c1.28.27,2.49.52,3.67.79a6.12,6.12,0,0,1,2.48,1.13,2.23,2.23,0,0,1,.83,1.74,2.17,2.17,0,0,1-.59,1.66,4.17,4.17,0,0,1-1.47.94,6.43,6.43,0,0,1-1.92.43c-.77.07-1.4.13-1.89.13a17.47,17.47,0,0,1-5.81-1.05,18.64,18.64,0,0,1-5.46-3h-.85v7.36a36.06,36.06,0,0,0,5.29,1.69,28.78,28.78,0,0,0,6.66.68c4.4,0,7.85-1,10.42-2.85a8.75,8.75,0,0,0,3.85-7.39,7.76,7.76,0,0,0-1.68-5.2,11.21,11.21,0,0,0-5.16-3.15M74.94,33.89H26.42L37.14,8.24l9.8,22.89H74.56A37.58,37.58,0,0,0,0,38a28.86,28.86,0,0,0,.32,4.42l47.31-.06L36.93,68l-9.8-22.9-26.38,0A37.52,37.52,0,0,0,75.17,38c0-1.32-.07-2.59-.18-3.89ZM118.66,13.4a33.92,33.92,0,0,0-3.33-.91l-3.22-.67a10.35,10.35,0,0,1-3.5-1.19,2.14,2.14,0,0,1-.91-1.87,2.41,2.41,0,0,1,.54-1.51,3.81,3.81,0,0,1,1.38-1,9,9,0,0,1,1.88-.53,14.57,14.57,0,0,1,2-.14,15.49,15.49,0,0,1,5.45,1,16.25,16.25,0,0,1,4.5,2.54h.85v-7a27,27,0,0,0-5.1-1.45,29,29,0,0,0-6-.6,16.7,16.7,0,0,0-9.87,2.73,8.27,8.27,0,0,0-3.82,7,8.64,8.64,0,0,0,1.67,5.39,11.45,11.45,0,0,0,5.55,3.41,31.42,31.42,0,0,0,3.6.94c1.28.22,2.49.48,3.67.75a5.86,5.86,0,0,1,2.48,1.16,2.13,2.13,0,0,1,.83,1.7,2.16,2.16,0,0,1-.59,1.68,4.12,4.12,0,0,1-1.47.94,8.39,8.39,0,0,1-1.92.41,15.65,15.65,0,0,1-1.89.12,17.6,17.6,0,0,1-5.81-1.05,17.68,17.68,0,0,1-5.46-3h-.85v7.39a36.28,36.28,0,0,0,5.29,1.69,31,31,0,0,0,6.66.66c4.4,0,7.85-.94,10.42-2.84a8.79,8.79,0,0,0,3.85-7.41,7.63,7.63,0,0,0-1.68-5.16,11.07,11.07,0,0,0-5.16-3.17M275.53,43.83c-4.94,0-8.81,1.47-11.62,4.33s-4.22,6.74-4.22,11.71,1.38,8.77,4.22,11.65,6.67,4.33,11.62,4.33,8.83-1.44,11.65-4.33,4.23-6.74,4.23-11.65S290,51,287.17,48.16s-6.7-4.33-11.64-4.33m7.09,20.49a9,9,0,0,1-1.72,3.3,6.6,6.6,0,0,1-2.42,1.82,7.47,7.47,0,0,1-2.93.59,7.31,7.31,0,0,1-2.9-.59,6.19,6.19,0,0,1-2.42-1.78,9,9,0,0,1-1.69-3.13,15.42,15.42,0,0,1-.61-4.65,15.53,15.53,0,0,1,.64-4.73A8.91,8.91,0,0,1,270.24,52a6.82,6.82,0,0,1,2.47-1.75,7.74,7.74,0,0,1,5.71,0,6.25,6.25,0,0,1,2.46,1.8,9.1,9.1,0,0,1,1.67,3.12,15.58,15.58,0,0,1,.63,4.7,16.25,16.25,0,0,1-.56,4.47M131,75.22h22.18v-6H138.88V61.66H152.1V55.71H138.88V50.42h14.25v-6H131Zm50.2-65,13,21.12h7.67V.61h-7.27V18.24L183.38.61h-9.49V31.38h7.26ZM264.48,32c4.94,0,8.84-1.43,11.65-4.3s4.2-6.78,4.2-11.66-1.41-8.86-4.22-11.73S269.41,0,264.48,0s-8.82,1.44-11.63,4.29-4.22,6.77-4.22,11.73,1.41,8.77,4.22,11.66,6.69,4.3,11.63,4.3m-7-20.68a8.52,8.52,0,0,1,1.69-3.17,6.34,6.34,0,0,1,2.46-1.77,7.32,7.32,0,0,1,2.84-.55,7.19,7.19,0,0,1,2.87.56,6,6,0,0,1,2.45,1.81,9.28,9.28,0,0,1,1.67,3.11,14.57,14.57,0,0,1,.64,4.68,17.71,17.71,0,0,1-.54,4.5,9.57,9.57,0,0,1-1.71,3.27,6.34,6.34,0,0,1-2.44,1.82,7.29,7.29,0,0,1-2.93.61,7.65,7.65,0,0,1-2.92-.59,6.15,6.15,0,0,1-2.41-1.79,9,9,0,0,1-1.66-3.13,14.93,14.93,0,0,1-.65-4.65,15.89,15.89,0,0,1,.65-4.72m41.87,8.76H303l8.39,11.31h9.64l-10.29-13.2a11.91,11.91,0,0,0,4.53-3.57,9.1,9.1,0,0,0,1.58-5.55,7.72,7.72,0,0,0-1-4.11,8.19,8.19,0,0,0-2.77-2.67A10.6,10.6,0,0,0,309.44.93a31.48,31.48,0,0,0-4.71-.32H291.41V31.38h7.94Zm0-13.9h2.84c1,0,1.79,0,2.51.07a6.25,6.25,0,0,1,1.87.4A3,3,0,0,1,308.19,8a4,4,0,0,1,.49,2,5.16,5.16,0,0,1-.39,2.11,4.58,4.58,0,0,1-1.19,1.43,4.72,4.72,0,0,1-2.13.85,23,23,0,0,1-3.18.18h-2.42Zm21,54.25a11.29,11.29,0,0,0-5.19-3.15c-1.16-.37-2.28-.68-3.32-.9s-2.11-.44-3.21-.68a10.31,10.31,0,0,1-3.49-1.2,2.07,2.07,0,0,1-.92-1.85,2.28,2.28,0,0,1,.55-1.5,3.54,3.54,0,0,1,1.37-1,7.51,7.51,0,0,1,1.9-.52,11.83,11.83,0,0,1,1.95-.13,14.76,14.76,0,0,1,5.44,1A16.18,16.18,0,0,1,319.91,53h.85V46a27.9,27.9,0,0,0-5.1-1.49,30.23,30.23,0,0,0-6-.6,16.86,16.86,0,0,0-9.9,2.75,8.32,8.32,0,0,0-3.82,7,8.48,8.48,0,0,0,1.7,5.37,11.3,11.3,0,0,0,5.55,3.42,24.72,24.72,0,0,0,3.6.91c1.28.27,2.48.52,3.64.79a6,6,0,0,1,2.49,1.13,2.42,2.42,0,0,1,.27,3.4,4.63,4.63,0,0,1-1.5.94,6.28,6.28,0,0,1-1.89.43c-.8.07-1.42.13-1.89.13a17.23,17.23,0,0,1-5.81-1.05,18.46,18.46,0,0,1-5.49-3h-.86v7.36A36.6,36.6,0,0,0,301,75.17a28.79,28.79,0,0,0,6.66.68c4.37,0,7.86-1,10.41-2.85A8.76,8.76,0,0,0,322,65.61a7.85,7.85,0,0,0-1.67-5.2M232.25,31.74a28.08,28.08,0,0,0,2.82-.63,18.54,18.54,0,0,0,2.21-.8c.68-.31,1.43-.61,2.19-1V22h-.81c-.39.35-.85.76-1.42,1.18a20.72,20.72,0,0,1-1.89,1.29,10.67,10.67,0,0,1-2.61,1.15,8.94,8.94,0,0,1-2.85.44,9.45,9.45,0,0,1-3-.49,6.79,6.79,0,0,1-2.8-1.6A8.62,8.62,0,0,1,222,20.87a12.69,12.69,0,0,1-.8-4.84,12.71,12.71,0,0,1,.74-4.7,8.29,8.29,0,0,1,2-3.1,7.87,7.87,0,0,1,2.77-1.77,9.93,9.93,0,0,1,3.18-.5,9.05,9.05,0,0,1,2.82.43,15.91,15.91,0,0,1,2.47,1.11,23.84,23.84,0,0,1,2,1.32c.58.45,1.06.84,1.45,1.18h.89V2.56c-.55-.28-1.21-.59-2-.9A19.23,19.23,0,0,0,235,.78a28.28,28.28,0,0,0-2.86-.57A26.19,26.19,0,0,0,228.65,0a17.74,17.74,0,0,0-6.44,1.13,13.09,13.09,0,0,0-5,3.16,13.93,13.93,0,0,0-3.16,5.1A18.92,18.92,0,0,0,213,16a18.88,18.88,0,0,0,1.14,6.92,13.14,13.14,0,0,0,3.23,5,13.69,13.69,0,0,0,5,3,19.2,19.2,0,0,0,6.31,1,18.8,18.8,0,0,0,3.64-.24m20.06,26.74a9.32,9.32,0,0,0,1.58-5.55,7.6,7.6,0,0,0-1-4.14,8,8,0,0,0-2.77-2.67,9.44,9.44,0,0,0-3.65-1.33,28.33,28.33,0,0,0-4.7-.33H228.4V75.22h7.93V63.92H240l8.38,11.3h9.63L247.77,62a12,12,0,0,0,4.54-3.54m-7-2.56a4,4,0,0,1-1.21,1.42,4.66,4.66,0,0,1-2.12.86,27.89,27.89,0,0,1-3.16.18h-2.46V50h2.88a24.73,24.73,0,0,1,2.49.09,5.16,5.16,0,0,1,1.86.41,3.1,3.1,0,0,1,1.62,1.29,4,4,0,0,1,.47,2,5,5,0,0,1-.37,2.11m-32.21,7.77c0,2.21-.47,3.8-1.41,4.82a6.88,6.88,0,0,1-8.71-.06,7.27,7.27,0,0,1-1.32-4.76V44.46h-8V64.08c0,3.8,1.16,6.7,3.45,8.73s5.69,3,10.2,3,7.9-1,10.22-3S221,67.88,221,64.08V44.46h-7.92ZM153.07.61H144L132.58,31.38h8l2.19-6.3H154l2.17,6.3h8.25Zm-8.39,18.9L148.4,8.64l3.75,10.87ZM172.82,64H179v6.17c-.32,0-.65,0-1,0s-.7,0-1,0c-3.53,0-6.19-.9-8-2.7s-2.73-4.44-2.73-7.83a12.18,12.18,0,0,1,.77-4.45,8.24,8.24,0,0,1,2.05-3.11,8.53,8.53,0,0,1,3.08-1.92,10.91,10.91,0,0,1,3.82-.61,12.34,12.34,0,0,1,3.37.46,16.43,16.43,0,0,1,2.82,1.11,19,19,0,0,1,2.13,1.36l1.7,1.17h.87V46.59a25.94,25.94,0,0,0-6.1-2.18,29.89,29.89,0,0,0-5.79-.57c-5.32,0-9.48,1.5-12.45,4.42S158,55,158,59.8c0,5,1.47,8.92,4.43,11.79s7,4.26,12.26,4.26a28.63,28.63,0,0,0,6.81-.81,43.56,43.56,0,0,0,5.47-1.6V58.22H172.82Z"/></g></g></svg>