<svg xmlns="http://www.w3.org/2000/svg" viewBox="0 0 282.59 93.63"><title>Asset 118</title><g id="Layer_2" data-name="Layer 2"><g id="Main"><path d="M9.23,70H0V3.54c.26,0,.5-.05.75,0,5.47.11,10.93.19,16.4.34,4.55.12,8.43,1.72,11.18,5.49a17,17,0,0,1,3.27,8.59,42.47,42.47,0,0,1-.2,11.38,14.52,14.52,0,0,1-6.65,9.89,1.23,1.23,0,0,0-.56,1.72q4.72,14,9.4,27.95l.32,1a5.55,5.55,0,0,1-.74.11c-2.72,0-5.44,0-8.15.08a1.15,1.15,0,0,1-1.34-1C21,60.33,18.2,51.63,15.5,42.91c-.24-.76-.56-1-1.31-1-1.62,0-3.24,0-5,0Zm.11-57.51c0,6.95,0,13.56,0,20.18,0,.57.32.74.78.72,2.48-.12,5-.09,7.43-.45a4.79,4.79,0,0,0,4.28-4.19,35.83,35.83,0,0,0,.09-11.26,4.91,4.91,0,0,0-4.16-4.37C15,12.7,12.25,12.69,9.34,12.49Z"/><path d="M61.52,41.9H54V33.73H71a1.09,1.09,0,0,1,.1.33c0,7.35,0,14.71-.17,22.05-.18,6.46-3.66,10.93-9.49,13.3-8.9,3.61-18.28-.56-21.32-9.08a19.54,19.54,0,0,1-.76-6.42c0-12.43-.11-24.87.19-37.3C39.7,11,43.15,7.1,48.12,4.7c7.29-3.52,16.52-.9,20.63,5.77a14.1,14.1,0,0,1,2.18,7.15c0,1.62,0,3.24,0,5H61.78c-.08-1.43-.1-3-.28-4.46A5.64,5.64,0,0,0,57.17,13c-2.68-.74-5.2-.43-7.08,1.79a5.21,5.21,0,0,0-1,2.8c-.2,2.38-.24,4.79-.25,7.18q0,14.34,0,28.67c0,.77,0,1.54.08,2.3a5.67,5.67,0,0,0,5.71,5.43c3.89.21,6.51-1.8,6.76-5.66.28-4.43.19-8.88.25-13.32C61.67,42.13,61.61,42.07,61.52,41.9Z"/><path d="M159.73,70h-9.55V22.81h9.54v4.33c.7-.67,1.3-1.22,1.88-1.79A9.85,9.85,0,0,1,172,22.78,8,8,0,0,1,176.43,26a10.44,10.44,0,0,1,2.09,6.11c0,12.31,0,24.62.09,36.93,0,.31,0,.62,0,1H169c0-.38,0-.75,0-1.12q0-15.11,0-30.22a27.76,27.76,0,0,0-.14-2.78c-.29-2.81-1.82-4.1-4.69-4-2.5.08-3.76,1.22-4,3.7a24.1,24.1,0,0,0-.15,2.49q-.11,14-.21,27.91C159.72,67.27,159.73,68.58,159.73,70Z"/><path d="M248.76,46.71c0,3.77.08,7.55,0,11.32a12.85,12.85,0,0,1-12.51,12.54,25.47,25.47,0,0,1-5.07-.17A12.84,12.84,0,0,1,220.82,58c-.1-7.54-.23-15.09,0-22.63.25-8.17,6-13.22,14.29-13,4.48.11,8.34,1.53,11.09,5.25a13,13,0,0,1,2.54,7.8c0,3.77,0,7.54,0,11.32Zm-9.58-.12h0q0-5.46,0-10.92a3.4,3.4,0,0,0-1.3-2.77,4.73,4.73,0,0,0-5-.69A3.84,3.84,0,0,0,230.32,36c0,4.57-.13,9.13-.14,13.7,0,2.55,0,5.11.18,7.66.12,2.27,2.11,3.84,4.56,3.87,2.07,0,4.34-2,4.29-3.94C239.11,53.75,239.18,50.17,239.18,46.59Z"/><path d="M273.39,36.09c-.07-.33-.13-.67-.2-1a4.64,4.64,0,0,0-4-3.77,4.57,4.57,0,0,0-4.72,2.05,4.61,4.61,0,0,0,.14,5.32A5.82,5.82,0,0,0,267,40.41c2.25,1.06,4.58,2,6.85,3a24.73,24.73,0,0,1,3.32,1.69,11.43,11.43,0,0,1,5.32,9.28,20.34,20.34,0,0,1-.09,5,13,13,0,0,1-6.76,9.5c-8.16,4.46-19,1-21-9.79a18.07,18.07,0,0,1-.14-2.37c2.83,0,5.54,0,8.24,0,.27,0,.62.42.79.73.6,1,1.07,2.16,1.72,3.16a2,2,0,0,0,1.33.81,12,12,0,0,0,3.5,0,4.23,4.23,0,0,0,3.6-3.64c.33-2.12,0-4.23-2-5.42a50,50,0,0,0-5.88-2.75c-2.68-1.14-5.4-2.19-7.42-4.42a12.91,12.91,0,0,1-2.79-13.38,12.89,12.89,0,0,1,10.13-9.19c8.41-1.73,15.59,3.57,16.59,12.09.1.83-.18,1.36-1,1.36C278.67,36.11,276.09,36.09,273.39,36.09Z"/><path d="M95.88,22.85c3.26,0,6.39,0,9.52,0,.22,0,.55.45.61.74,1.17,5.46,2.3,10.93,3.47,16.39.86,4,1.77,8,2.66,12.06a.51.51,0,0,0,.29.35c.36-1.57.73-3.13,1.06-4.7q2.56-12,5.09-24c.15-.71.4-.94,1.12-.93,3,0,6,0,9.12,0-.57,2.24-1.12,4.43-1.69,6.61Q122,49.27,116.81,69.09a1.07,1.07,0,0,1-1.29,1c-2.11-.08-4.22-.07-6.33-.07a1.29,1.29,0,0,1-1.44-1.15Q102,46.36,96.1,23.9C96,23.6,96,23.29,95.88,22.85Z"/><path d="M89.06,93.63H81.86V0h7.19Z"/><path d="M212.92,3.66c0,.44,0,.73,0,1q.17,24.3.36,48.61c0,1.76.1,3.51.17,5.27s.73,2.61,2.55,3c.47.1.95.13,1.5.2V70.5a11.64,11.64,0,0,1-13.77-7.86,3.17,3.17,0,0,1-.08-.85q-.09-28.67-.17-57.34c0-.25,0-.5,0-.79Z"/><path d="M142.25,70h-9.48V22.82h9.48Z"/><path d="M195.94,70h-9.18V22.79h9.18Z"/><path d="M132.76,13.07V3.62h9.5v9.45Z"/><path d="M195.94,13.09h-9.19V3.63h9.19Z"/></g></g></svg>