<svg xmlns="http://www.w3.org/2000/svg" viewBox="0 0 309.27 94.02"><defs><style>.cls-1{fill:#fff;}</style></defs><title>Asset 115</title><g id="Layer_2" data-name="Layer 2"><g id="Main"><rect width="47.61" height="94.02"/><rect x="52.33" width="47.61" height="94.02"/><rect x="104.66" width="47.61" height="94.02"/><rect x="156.99" width="47.61" height="94.02"/><rect x="209.33" width="47.61" height="94.02"/><rect x="261.66" width="47.61" height="94.02"/><path class="cls-1" d="M21.61,58.18h2.62c2.07,0,3.51-.36,4.35-1.08a3.48,3.48,0,0,0,1.25-2.75,3.83,3.83,0,0,0-1.09-2.77c-.72-.76-2.08-1.14-4.08-1.14H21.61ZM10.85,43.4H28.66q5.81,0,8.71,2.77c1.93,1.84,2.9,4.47,2.9,7.87s-1.05,6.24-3.16,8.21-5.32,3-9.64,3H21.61V78.08H10.85Z"/><path class="cls-1" d="M70,60.81q0,5.26,1.95,7.55a7.4,7.4,0,0,0,10.66,0c1.26-1.5,1.9-4.19,1.9-8.07,0-3.27-.66-5.65-2-7.16a6.76,6.76,0,0,0-5.36-2.25A6.49,6.49,0,0,0,72,53.22q-2,2.29-2,7.59m-10.72,0q0-8.49,4.73-13.22t13.18-4.73q8.66,0,13.35,4.65t4.68,13a21.34,21.34,0,0,1-2.05,10,14.63,14.63,0,0,1-5.91,6.06,19.52,19.52,0,0,1-9.64,2.16,22.28,22.28,0,0,1-9.71-1.86,14.73,14.73,0,0,1-6.23-5.92A19.66,19.66,0,0,1,59.27,60.76Z"/><polygon class="cls-1" points="113.69 43.4 123.7 43.4 136.76 62.58 136.76 43.4 146.86 43.4 146.86 78.08 136.76 78.08 123.77 59.04 123.77 78.08 113.69 78.08 113.69 43.4"/><path class="cls-1" d="M165.91,66.6l10.2-.64a7.78,7.78,0,0,0,1.35,3.79,5.65,5.65,0,0,0,4.73,2.1,5.25,5.25,0,0,0,3.54-1.07A3.23,3.23,0,0,0,187,68.28a3.18,3.18,0,0,0-1.18-2.41c-.79-.71-2.61-1.38-5.49-2q-7-1.59-10.05-4.21a8.47,8.47,0,0,1-3-6.69,9.09,9.09,0,0,1,1.55-5.05,10.33,10.33,0,0,1,4.66-3.74,21.81,21.81,0,0,1,8.53-1.36q6.65,0,10.14,2.47t4.15,7.87l-10.1.59a4.71,4.71,0,0,0-5.25-4.46,4.26,4.26,0,0,0-2.82.79,2.42,2.42,0,0,0-.94,1.93,1.94,1.94,0,0,0,.77,1.49,8.8,8.8,0,0,0,3.6,1.28,44.84,44.84,0,0,1,10.06,3.07A10.54,10.54,0,0,1,196,61.66a9.76,9.76,0,0,1,1.39,5.14,11,11,0,0,1-1.85,6.14,11.48,11.48,0,0,1-5.16,4.27A20.82,20.82,0,0,1,182,78.67q-8.84,0-12.25-3.41a13.39,13.39,0,0,1-3.86-8.66"/><path class="cls-1" d="M218.24,66.6l10.2-.64a7.77,7.77,0,0,0,1.35,3.79,5.65,5.65,0,0,0,4.73,2.1,5.25,5.25,0,0,0,3.54-1.07,3.24,3.24,0,0,0,1.24-2.49,3.18,3.18,0,0,0-1.18-2.41c-.79-.71-2.62-1.38-5.49-2q-7.05-1.59-10.05-4.21a8.47,8.47,0,0,1-3-6.69,9.09,9.09,0,0,1,1.55-5.05,10.33,10.33,0,0,1,4.66-3.74,21.8,21.8,0,0,1,8.53-1.36q6.65,0,10.14,2.47t4.15,7.87l-10.1.59a4.71,4.71,0,0,0-5.25-4.46,4.26,4.26,0,0,0-2.82.79,2.42,2.42,0,0,0-.95,1.93,1.94,1.94,0,0,0,.77,1.49,8.8,8.8,0,0,0,3.6,1.28,44.82,44.82,0,0,1,10.06,3.07,10.55,10.55,0,0,1,4.43,3.84,9.76,9.76,0,0,1,1.39,5.14,11,11,0,0,1-1.85,6.14,11.48,11.48,0,0,1-5.16,4.27,20.83,20.83,0,0,1-8.35,1.45q-8.84,0-12.25-3.41a13.39,13.39,0,0,1-3.86-8.66"/><polygon class="cls-1" points="272.61 43.4 301.32 43.4 301.32 50.8 283.35 50.8 283.35 56.32 300.02 56.32 300.02 63.39 283.35 63.39 283.35 70.22 301.85 70.22 301.85 78.08 272.61 78.08 272.61 43.4"/></g></g></svg>