<svg xmlns="http://www.w3.org/2000/svg" viewBox="0 0 248.81 72.21"><title>Asset 2</title><g id="Layer_2" data-name="Layer 2"><g id="Layer_1-2" data-name="Layer 1"><path d="M72.39,3.64c0-.23,0-.45,0-.68,0-1.19-.26-2.29-1.54-2.74a2.82,2.82,0,0,0-3.38,1.09,28.42,28.42,0,0,0-3,4.72Q58.08,18.47,51.74,30.92L36.18,61.4c-1.53-2.93-3-5.62-4.37-8.34Q19.95,29.66,8.11,6.25A29,29,0,0,0,5,1.32,2.85,2.85,0,0,0,1.6.18C.28.64.28,1.82.27,3,.2,10.5.22,18,.11,25.52-.09,39.34,0,53.16,0,67a13.94,13.94,0,0,0,0,1.8,2.76,2.76,0,0,0,3.79,2.32c1.85-.6,1.89-2.07,1.88-3.64q0-25.36,0-50.71,0-1.14,0-2.27C11.45,24.79,16.8,35.09,22.12,45.4c3.69,7.14,7.34,14.29,11,21.42.65,1.25,1.2,2.87,2.86,2.86s2.38-1.61,3.1-2.93,1.57-2.9,2.33-4.37Q53.23,39.59,65,16.79a3.8,3.8,0,0,1,1.65-2.1c0,15.82,0,31.45,0,47.07,0,2.25,0,4.51,0,6.76a2.55,2.55,0,0,0,2.7,2.71,2.59,2.59,0,0,0,3-2.45,8.79,8.79,0,0,0,.06-1.35Q72.4,35.54,72.39,3.64Z"/><path d="M248.78,41.95q0-19.38,0-38.76c0-1.22.11-2.52-1.37-3a2.84,2.84,0,0,0-3.33,1.25A21.06,21.06,0,0,0,242.32,4C238.66,11,235,18,231.4,25,225.59,36.35,219.84,47.74,214,59.11c-.32.62-.39,1.66-1.31,1.62-.74,0-.83-1-1.12-1.55q-3.94-7.6-7.82-15.22Q194.3,25.29,184.86,6.59a48.83,48.83,0,0,0-2.63-4.45c-.93-1.44-2-2.52-3.84-2s-1.72,2.2-1.72,3.71q0,31.33,0,62.65c0,3.57.78,4.82,3,4.76s2.83-1.27,2.83-4.7q0-25.8,0-51.6l.37-.1c1.62,3,3.26,6,4.84,9.07Q198.6,45,209.49,66.14c.77,1.5,1.22,3.63,3.3,3.56s2.6-2.09,3.38-3.59q5-9.59,9.87-19.23c4.07-8,8.44-15.89,12.31-24,1.39-2.92,3.15-5.67,5.06-9.07,0,1.52,0,2.33,0,3.15q0,25.35,0,50.71c0,1-.22,2,.67,2.73a2.75,2.75,0,0,0,3.11.61,2.71,2.71,0,0,0,1.63-2.89C248.77,59.37,248.79,50.66,248.78,41.95Z"/><path d="M138.91,2.8C133.22.17,127.25-.27,121.13.15c-1,.13-2.08.24-3.11.38C105.41,2.27,96.9,11.39,95.95,24.06a164.75,164.75,0,0,0,0,24.27,24.38,24.38,0,0,0,17.1,22.07,36.22,36.22,0,0,0,18.44,1.11c6.38-1.23,12.09-3.89,16.2-9.23a6.84,6.84,0,0,0,1.83-2.51A32.26,32.26,0,0,0,153.3,46c.5-8.23.76-16.45-.57-24.61C151.34,12.89,146.92,6.51,138.91,2.8ZM147.72,46c0,3.86-1.54,7.42-3.06,10.92a1.68,1.68,0,0,1,.23.14,1.67,1.67,0,0,0-.23-.14c-4.49,6.83-11.06,9.46-19,9.59-4.87.08-9.62-.29-14-2.66-6.83-3.73-9.67-10-10.39-17.37a129.12,129.12,0,0,1-.07-20.65c.63-9.92,6.33-17.17,15.91-19.63a46.25,46.25,0,0,1,6.22-.76c5.44.11,10.76.66,15.43,3.88a19.68,19.68,0,0,1,8.49,14.21C148.34,31,147.75,38.48,147.72,46Zm-2.51,11.32,0,0Z"/></g></g></svg>