<svg xmlns="http://www.w3.org/2000/svg" viewBox="0 0 200 200"><defs><style>.cls-1{fill:#fff;}</style></defs><title>Asset 137</title><g id="Layer_2" data-name="Layer 2"><g id="Main"><circle cx="100" cy="100" r="100"/><path class="cls-1" d="M130.9,49.53l2.93,11.41.58,0c.86-2.54,1.74-5.07,2.56-7.62C138,50,138,50,141.41,50c3.23,0,6.45,0,10.11,0a13.24,13.24,0,0,0-1.14-1.36q-2.93-2.51-5.9-5c-3.59-3-3.51-2.93-1.86-7.3a59.44,59.44,0,0,0,1.64-6.3l-.61-.33L135.46,36l-9-7.5-.5.33c.73,3.14,1.35,6.31,2.23,9.41.56,2,.56,3.38-1.45,4.7C124,44.74,121.56,47,119,49l.19.53Z"/><path class="cls-1" d="M198,85.75a19.86,19.86,0,0,0-2,0c-.29,0-.55.31-.81.46-2-2.61-2.47-2.85-5.54-2.11a13.43,13.43,0,0,0-4.1,1.44c-3.09,2-6,4.24-9,6.32C172,95,167.53,98,163,101a6.8,6.8,0,0,1-2.4.48l-.37-.79c1.52-1.77,3.05-3.53,4.57-5.31,2.11-2.48,4.33-4.89,6.25-7.52a3.54,3.54,0,0,0,.27-3.22,3.51,3.51,0,0,0-3-1.09A18.94,18.94,0,0,0,163,85.63a42.43,42.43,0,0,0-4.57,3.44c1.13-3.46,0-5.23-3-4.82a8.75,8.75,0,0,0-3.25,1.25c-1.83,1.11-3.54,2.42-5.31,3.64a9.67,9.67,0,0,1,.89-2c.44-1.09,1.61-2.28.29-3.38s-2.61-.51-3.75.51c-1,.88-1.9,1.84-2.94,2.66-5.53,4.32-11,8.66-16.66,12.86a21.31,21.31,0,0,1-4.34,1.95l-.43-.58a10.8,10.8,0,0,1,.93-2.2c1.37-1.92,2.82-3.79,4.27-5.65,1.63-2.08,3.35-4.09,4.89-6.23a2,2,0,0,0-.09-1.93,2.72,2.72,0,0,0-2.13-.29,4.18,4.18,0,0,0-1.6,1.29c-3,3-5.81,6.17-8.84,9.14a58.49,58.49,0,0,1-5.46,4.49c-.36.28-1,.17-1.54.24,0-.51-.24-1.09-.05-1.51A14.37,14.37,0,0,1,112,95.45c2.26-2.9,4.68-5.69,6.89-8.63a2.43,2.43,0,0,0,0-2.33,3.1,3.1,0,0,0-2.6-.45,12.29,12.29,0,0,0-3.09,2.08c-5.69,4.45-11.32,9-17.09,13.35a26.3,26.3,0,0,1-4.89,2.34l-.4-.58c.51-.69,1-1.42,1.53-2.08,2.31-2.78,4.82-5.4,6.91-8.33,2.67-3.75,1.91-5.57-2.48-7-.1,0-.16-.21-.23-.32l.5-.28c-.39-.74-.65-2-1.21-2.11-1.35-.39-5.46,3.75-5.73,5.22a5.39,5.39,0,0,1-1.32,3c-3.61,3.16-7.27,6.27-11.12,9.14a44.43,44.43,0,0,1-6.33,3.34l-.39-.64c.48-.66.92-1.36,1.45-2,2.08-2.43,4.28-4.76,6.25-7.27,3.44-4.37,2.94-6.17-1.81-8.42-.21-.88-.5-2.2-1.05-2.32-1.38-.3-5.72,3.52-5.46,4.89.34,1.79-.71,2.56-1.69,3.45-2.27,2.05-4.54,4.11-6.93,6-3.32,2.64-6.64,5.31-11,6.24a4.53,4.53,0,0,0-1.28.8l.1.53c.47,0,1,.27,1.39.11,1.93-.74,4.07-1.24,5.68-2.44,5.18-3.84,10.21-7.9,15.2-12A8.67,8.67,0,0,1,77.4,87a69.14,69.14,0,0,1-4.75,5.43c-2,2.2-4.26,4.33-4.62,7.49-.11,1,.25,2.52.92,2.9a4.59,4.59,0,0,0,3.69.39,39.89,39.89,0,0,0,7-4.41c4-3.11,7.89-6.38,11.75-9.68A8.89,8.89,0,0,1,98,86.84a63.17,63.17,0,0,0-5.12,5.25,53.19,53.19,0,0,0-4.93,7.6,3.21,3.21,0,0,0,1,3c1,.61,3,1,3.84.43,5.6-3.72,11-7.72,16.49-11.63.6-.43,1.17-.91,1.75-1.37-.74,1.41-1.86,2.44-2.54,3.7a17.92,17.92,0,0,0-2.2,5.5c-.39,2.52,1.42,3.81,3.82,2.95a21.79,21.79,0,0,0,4.22-2.22,40.44,40.44,0,0,0,3.36-2.7c-.26.9-.35,1.37-.53,1.81a2.57,2.57,0,0,0,1,3.46c1.13.54,3,.93,3.89.37,4.22-2.52,8.29-5.31,12.29-8.17C136.82,93,139.1,91,141.47,89a75.72,75.72,0,0,1-4.71,6.67,59.2,59.2,0,0,0-3.36,5c-.28.48-.32,1.6,0,1.81a2.72,2.72,0,0,0,2,.26,3.82,3.82,0,0,0,1.67-1.17c1.27-1.38,2.36-2.94,3.71-4.23,3.47-3.3,7-6.55,10.61-9.69a13,13,0,0,1,3.27-1.52c.21.94.21,1.41,0,1.71q-2.42,3.25-4.93,6.43c-1.63,2.07-3.4,4.05-4.91,6.21-.38.54,0,1.6,0,2.42a5.51,5.51,0,0,0,2.22-.27,16.34,16.34,0,0,0,2.21-2.18C154,96,158.81,91.41,163.69,87a14.09,14.09,0,0,1,3.34-1.7l.48.76c-2.54,3.11-5.16,6.16-7.57,9.36a15.66,15.66,0,0,0-2.17,4.42,2.28,2.28,0,0,0,1.34,3.12,6.08,6.08,0,0,0,4.07-.1c3.42-1.9,6.63-4.18,9.41-6,.6,1.71.74,4,1.95,5.16,1.82,1.81,4.07.35,5.92-.74s3.44-2.29,5.36-3.59c-.54,2-2,3.92.25,5.3a3.3,3.3,0,0,0,4.53-.57l-3.15-1.35c1.9-2.39,3.67-4.59,5.4-6.81s3.43-4.38,5-6.64C198.19,87.18,198,86.37,198,85.75Zm-5.35,2.47c-2.52,2.75-5.1,5.46-7.83,8a38.21,38.21,0,0,1-4.89,3.53,15.4,15.4,0,0,1-2.25,1c-.28-.53-.79-1.06-.73-1.52a3.87,3.87,0,0,1,.91-1.84,48.51,48.51,0,0,1,12.68-11.28c.62-.37,1.61-.12,2.44-.15C192.86,86.71,193,87.74,192.62,88.21Z"/><path class="cls-1" d="M60.91,85.2a4.07,4.07,0,0,0,1.22.19,22,22,0,0,0,2.37-.74c-1.66-2.54-4-1.7-6.1-2.1,6.06-7.71,12-15.23,17.89-22.81a15.7,15.7,0,0,0,2.54-4.5A4.09,4.09,0,0,0,78.27,52c-.39-.53-2-.67-2.75-.33-3.65,1.67-7.44,3.2-10.74,5.44-12,8.11-23.75,16.5-35.64,24.71a8.54,8.54,0,0,1-3.77,1.44c-3.37.37-6.78.39-10.17.67A91.83,91.83,0,0,0,5.3,85c-1.12.22-2,1.58-3,2.41,1,.59,2,1.63,3.08,1.68,3.74.18,7.49.05,11.24,0a5,5,0,0,0,1.58-.62l-.08-.67h-11l0-.87L23.95,85.8c-4.19,3.48-8,6.52-11.62,9.68-2.1,1.81-4.08,3.77-6,5.75-.31.32-.16,1.08-.23,1.64.57,0,1.25.32,1.68.1a16.09,16.09,0,0,0,2.7-1.94c5.6-4.69,11.16-9.42,16.78-14.08a4.76,4.76,0,0,1,2.52-1.21c6.17-.28,12.35-.43,18.52-.6a14,14,0,0,1,1.71.18c-.42.57-.65.9-.9,1.23-3.15,4.06-6.29,8.14-9.48,12.18-1.14,1.44-1.23,2.74.21,4s2.31-.23,3-1.06c3.79-4.53,7.68-9,11.12-13.8C55.86,85.16,58.1,84.8,60.91,85.2ZM51.6,82.66c-6.17.08-12.34,0-19,0,13.81-9.51,26.76-19.69,41-28l.63.59a34.2,34.2,0,0,1-1.92,2.93q-9.5,11.74-19.07,23.41A2.66,2.66,0,0,1,51.6,82.66Z"/></g></g></svg>