<svg xmlns="http://www.w3.org/2000/svg" viewBox="0 0 220.29 99.93"><title>Asset 120</title><g id="Layer_2" data-name="Layer 2"><g id="Main"><path d="M136.19,77.15q0,3.39,0,6.79c0,4.56-.05,9.11,0,13.67,0,1.43-.43,1.82-1.82,1.77-3-.12-2.59.28-2.59-2.68q0-12.71,0-25.43c0-.78-.56-2,.84-2.17s2.94-1.17,4.21.81c4.52,7,9.21,14,13.85,20.94.48-.38.24-.89.24-1.3,0-6.25,0-12.5,0-18.75,0-.61-.22-1.49.57-1.64,1.17-.21,2.37-.7,3.58-.29.38.13.28.64.28,1q0,14.14,0,28.29c0,.91-.38,1.13-1.23,1.22a4.11,4.11,0,0,1-4.4-2.16C145.5,90.44,141,83.79,136.55,77.1Z"/><path d="M165.37,84.15q0-6.83,0-13.67c0-.66-.19-1.55.87-1.53,4.23.06,8.5-.44,12.69.29,5.17.9,8.07,3.94,8.68,9.13a48.43,48.43,0,0,1,0,11.89,9.86,9.86,0,0,1-9.73,9c-3.75.21-7.52.07-11.28.15-1.21,0-1.21-.69-1.21-1.55C165.38,93.26,165.37,88.71,165.37,84.15Zm17.81.09a26,26,0,0,0,0-5.23,6.26,6.26,0,0,0-4.92-5.53c-2.55-.63-5.16-.18-7.74-.31-.71,0-.73.4-.73.92q0,10.07,0,20.15c0,.7.24.92.92.91,2.11,0,4.24.07,6.34-.09,3.6-.27,5.77-2.44,6.14-6.07C183.32,87.42,183.19,85.82,183.19,84.24Z"/><path d="M45.71,99.36c-1.49.42-2.15-.46-2.62-2-.53-1.75-.6-4.05-2-5S37.6,92.09,35.8,92s-3.5,0-5.24,0a1.19,1.19,0,0,0-1.36,1c-.5,1.67-1.12,3.3-1.62,5a1.68,1.68,0,0,1-1.91,1.41c-3.27,0-3.27,0-2.2-3q4.51-12.77,9-25.55c.22-.62.25-1.52,1.05-1.65a11.5,11.5,0,0,1,3.92-.38c.44.08.5.65.64,1q5,14,9.9,28.09C48.49,99.35,48.46,99.36,45.71,99.36ZM35.45,74.6C34,78.95,32.61,83,31.23,87c-.27.78-.05,1,.76,1,2.32,0,4.65,0,7,0,.88,0,1-.3.73-1C38.3,83,36.94,79,35.45,74.6Z"/><path d="M122.85,99.36c-1.48.42-2.27-.42-2.62-2a24.19,24.19,0,0,0-1-2.85c-1-2.88-.26-2.39-3.31-2.43-2.7,0-5.4,0-8.1,0a1.37,1.37,0,0,0-1.59,1.12c-.47,1.57-1.11,3.09-1.51,4.67-.32,1.28-1,1.62-2.25,1.58-3.29-.1-3.08.26-2-2.86q4.52-12.85,9.09-25.68c.22-.63.24-1.53,1-1.66a11.52,11.52,0,0,1,3.92-.39c.47.08.51.64.64,1q5,14,9.91,28.08C125.62,99.35,125.59,99.36,122.85,99.36ZM108,88h8c.53,0,1.15.09.85-.81l-4.29-12.63Z"/><path d="M196.44,81c0-2.81,0-5.61,0-8.42,0-1,.21-1.5,1.35-1.66,3.69-.5,3.06-.52,3.08,2.64,0,4.77,0,9.53,0,14.3,0,6.29,5.2,9.66,11,7.2,2.88-1.21,3.84-3.65,3.87-6.54.05-5.24,0-10.48,0-15.73,0-.59-.3-1.48.5-1.66a7.11,7.11,0,0,1,3.57-.34c.32.09.34.5.33.83-.07,6.25.33,12.51-.17,18.73-.47,5.77-4.23,9.1-10.19,9.53a18.22,18.22,0,0,1-5.06-.31c-5-1-8.08-4.67-8.29-10-.11-2.85,0-5.72,0-8.58Z"/><path d="M4.46,86.67c0,3.87,0,7.42,0,11,0,1.26-.25,1.8-1.65,1.75-3.17-.12-2.78.28-2.79-2.84,0-8.64,0-17.27,0-25.91,0-1.3.34-1.79,1.69-1.74,2.8.11,5.62,0,8.42.13,6.52.29,9.75,4,9.21,10.44C18.88,85,14.06,88.7,8.23,88A8.38,8.38,0,0,1,4.46,86.67ZM7.4,72.95V73a12.15,12.15,0,0,1-1.58,0c-1.15-.15-1.4.37-1.38,1.43.07,2.64,0,5.28,0,7.92,0,.63,0,1.13.79,1.3a10.35,10.35,0,0,0,6.52-.27,5.41,5.41,0,0,0,3.07-6c-.33-2.43-1.81-3.83-4.44-4.16C9.4,73.07,8.4,73,7.4,72.95Z"/><path d="M85.12,99.93a16.29,16.29,0,0,1-7.5-2.12c-1-.58-1.47-1.19-.48-2.19a5.21,5.21,0,0,0,.74-1c.51-.86,1.06-.93,1.95-.42A9.63,9.63,0,0,0,87,95.45,4.09,4.09,0,0,0,90.42,92a4.16,4.16,0,0,0-1.9-4.53,23.13,23.13,0,0,0-4.16-1.93c-1-.41-1.94-.84-2.87-1.34a7.35,7.35,0,0,1-4.12-7.59A8,8,0,0,1,83,69.1a13,13,0,0,1,10.43,1.09c.93.47,1.29,1,.55,2a9,9,0,0,0-.87,1.32c-.46.86-1,.88-1.81.4a9,9,0,0,0-6-1,4.09,4.09,0,0,0-1.78,7.39c1.72,1.17,3.74,1.71,5.61,2.55,5.57,2.5,7.53,7.91,4.55,12.91C91.8,99,88.52,99.73,85.12,99.93Z"/><path d="M61,81.56c1.84-3.64,3.59-7.11,5.36-10.57.33-.64.45-1.59,1.22-1.76a13.94,13.94,0,0,1,4.07-.43c1,.09.28.9.06,1.31-2.07,3.92-4,7.9-6.3,11.71a14.39,14.39,0,0,0-2.23,8.84c.2,2.42,0,4.86.06,7.3,0,1-.32,1.42-1.37,1.4-3.73-.07-3,.34-3.06-3s.6-7-.23-10.27-3.08-6-4.71-8.92c-1.2-2.17-2.38-4.36-3.61-6.51-.62-1.07-.35-1.51.85-1.64,4.12-.46,3-1,4.84,2.5C57.61,74.79,59.22,78.09,61,81.56Z"/><path d="M110.15,9.89c-1.53,0-3.07,0-4.6,0-.86,0-1.24-.19-1.22-1.14q.08-3.81,0-7.61c0-.95.38-1.15,1.23-1.14,3,0,6,0,9,0,.93,0,1.33.22,1.3,1.23q-.09,3.73,0,7.46c0,1-.39,1.25-1.31,1.22C113.12,9.85,111.64,9.89,110.15,9.89Z"/><path d="M110.27,20.08c1.53,0,3.07,0,4.6,0,.76,0,1,.26,1,1,0,2.65,0,5.29,0,7.94,0,.67-.24.94-.93.93q-4.84,0-9.68,0c-.68,0-.94-.25-.94-.93,0-2.65,0-5.29,0-7.94,0-.75.25-1,1-1C107,20.1,108.63,20.08,110.27,20.08Z"/><path d="M214.23,9.89c-1.59,0-3.17,0-4.76,0-.81,0-1.15-.25-1.14-1.08q0-3.88,0-7.77c0-.71.19-1.05,1-1q4.76,0,9.51,0c.87,0,1.06.37,1.05,1.15,0,2.54,0,5.07,0,7.61,0,.95-.37,1.17-1.22,1.14C217.19,9.86,215.71,9.89,214.23,9.89Z"/><path d="M6.09,9.89c-1.53,0-3.07,0-4.6,0-.78,0-1.15-.16-1.13-1,0-2.64,0-5.28,0-7.93C.36.24.62,0,1.29,0,4.51,0,7.74,0,11,0c.73,0,.87.3.87.95,0,2.64,0,5.29,0,7.93,0,.91-.4,1-1.15,1C9.16,9.86,7.63,9.89,6.09,9.89Z"/><path d="M214.09,29.94c-1.48,0-3-.06-4.44,0-1,.05-1.25-.35-1.24-1.29.05-2.48,0-5,0-7.45,0-.75.14-1.17,1-1.15q4.68.06,9.36,0c.85,0,1.09.32,1.07,1.12,0,2.54,0,5.08,0,7.61,0,.92-.32,1.19-1.2,1.16C217.16,29.89,215.62,29.94,214.09,29.94Z"/><path d="M188.05,29.94c-1.48,0-3,0-4.45,0-.86,0-1.23-.19-1.21-1.13q.08-3.81,0-7.62c0-.95.36-1.14,1.21-1.13q4.53.06,9.05,0c.85,0,1.24.17,1.22,1.13q-.09,3.81,0,7.62c0,1-.36,1.16-1.22,1.14C191.12,29.9,189.59,29.94,188.05,29.94Z"/><path d="M32.23,0c1.48,0,3,0,4.45,0,.86,0,1.21.18,1.18,1.12-.06,2.54-.06,5.08,0,7.62,0,.91-.26,1.17-1.16,1.16q-4.53-.08-9.05,0c-.93,0-1.31-.18-1.28-1.21q.11-3.73,0-7.46c0-1,.31-1.27,1.26-1.22C29.15.08,30.69,0,32.23,0Z"/><path d="M58.14,9.89c-1.54,0-3.07,0-4.61,0-.79,0-1.15-.18-1.13-1.05q.07-3.89,0-7.78C52.39.2,52.75,0,53.53,0q4.61,0,9.21,0c.77,0,1.15.17,1.14,1q-.07,3.89,0,7.78c0,.87-.35,1.08-1.13,1.06C61.21,9.86,59.67,9.89,58.14,9.89Z"/><path d="M84.08,9.89c-1.53,0-3.07,0-4.6,0-.85,0-1.08-.29-1.07-1.1,0-2.59.05-5.18,0-7.77,0-.89.34-1,1.12-1,3.07,0,6.13,0,9.2,0,.89,0,1.19.25,1.17,1.16q-.08,3.8,0,7.61c0,1-.37,1.15-1.22,1.12C87.15,9.85,85.61,9.89,84.08,9.89Z"/><path d="M136,9.89c-1.53,0-3.07,0-4.6,0-.76,0-1-.28-1-1,0-2.64,0-5.29,0-7.93,0-.68.27-.93.94-.93,3.17,0,6.35,0,9.52,0,.76,0,1,.28,1,1,0,2.59,0,5.18,0,7.77,0,.82-.27,1.12-1.1,1.09C139.13,9.86,137.54,9.89,136,9.89Z"/><path d="M162.1,0c1.59,0,3.18,0,4.77,0,.78,0,1,.25,1,1q-.06,3.89,0,7.78c0,.78-.15,1.13-1,1.12q-4.69-.08-9.37,0c-.86,0-1.07-.29-1.06-1.1,0-2.54,0-5.08,0-7.63,0-.87.19-1.22,1.13-1.18C159,.08,160.56,0,162.1,0Z"/><path d="M188,0c1.59,0,3.18,0,4.76,0,.86,0,1.07.29,1.06,1.1,0,2.59,0,5.18,0,7.78,0,.74-.21,1-1,1-3.17,0-6.35,0-9.52,0-.81,0-1-.32-1-1,0-2.59,0-5.18,0-7.78,0-.81.2-1.12,1.06-1.09C185,.07,186.51,0,188,0Z"/><path d="M6.07,29.94c-1.53,0-3.07,0-4.6,0-.8,0-1.13-.2-1.11-1.06q.07-3.89,0-7.78c0-.86.31-1.07,1.11-1.06q4.68.05,9.36,0c.74,0,1,.19,1,1q-.06,4,0,7.94c0,.76-.24,1-1,1C9.25,29.91,7.66,29.94,6.07,29.94Z"/><path d="M32.13,29.94c-1.54,0-3.07,0-4.61,0-.93,0-1.17-.32-1.15-1.19,0-2.54,0-5.08,0-7.63,0-.69.13-1.08.95-1.07q4.77,0,9.53,0c.78,0,1,.29,1,1,0,2.59,0,5.19,0,7.79,0,.85-.29,1.1-1.11,1.07C35.2,29.9,33.67,29.94,32.13,29.94Z"/><path d="M58.23,20.08c1.48,0,3,0,4.45,0,.87,0,1.22.21,1.2,1.15-.06,2.54,0,5.08,0,7.63,0,.8-.2,1.13-1.07,1.12-3.12,0-6.25,0-9.37,0-.74,0-1-.21-1-1q.05-4,0-7.94c0-.82.36-1,1.06-.95C55.05,20.1,56.64,20.08,58.23,20.08Z"/><path d="M84.1,29.94c-1.48,0-3-.06-4.44,0-1,.05-1.26-.34-1.24-1.28q.08-3.73,0-7.46c0-.92.31-1.17,1.19-1.16q4.6.06,9.2,0c.84,0,1.09.3,1.08,1.11,0,2.54,0,5.08,0,7.62,0,.92-.31,1.2-1.19,1.16C87.17,29.89,85.64,29.94,84.1,29.94Z"/><path d="M162.12,20.08c1.53,0,3.06,0,4.59,0,.77,0,1.14.16,1.13,1,0,2.64,0,5.28,0,7.92,0,.67-.22.93-.91.93q-4.83,0-9.66,0c-.72,0-.89-.32-.88-1,0-2.64,0-5.28,0-7.92,0-.75.25-1,1-1C159,20.11,160.54,20.08,162.12,20.08Z"/><path d="M136.08,20.07c1.59,0,3.18,0,4.76,0,.78,0,1,.26,1,1q-.06,4,0,7.94c0,.8-.31,1-1,1-3.12,0-6.24,0-9.37,0-.84,0-1.09-.26-1.08-1.09,0-2.54.07-5.08,0-7.62,0-1.05.39-1.23,1.3-1.19C133.12,20.12,134.6,20.07,136.08,20.07Z"/><path d="M87,54.59c0-3.08.06-5.77,0-8.45,0-1.15.53-1.28,1.41-1.36,1.12-.1.84.7.84,1.26q0,5.71,0,11.42c0,.51.33,1.29-.55,1.42a1.76,1.76,0,0,1-2.05-.73c-1.78-2.81-3.66-5.56-5.5-8.33-.14-.21-.3-.4-.71-1,0,3.15,0,5.91,0,8.67,0,.77.1,1.43-1.08,1.41s-1.16-.54-1.15-1.38c0-3.75,0-7.51,0-11.26,0-.53-.27-1.25.6-1.41s1.48-.32,2.06.6c1.78,2.81,3.66,5.56,5.5,8.33C86.5,54,86.65,54.14,87,54.59Z"/><path d="M142.63,51.91c0,.53,0,1.06,0,1.59,0,2.07-.5,4-2.49,5a6.53,6.53,0,0,1-6.53-.2,4.1,4.1,0,0,1-2-3.25,26.52,26.52,0,0,1,0-6c.29-2.52,2.1-4.13,4.86-4.36,3-.24,5.28,1.17,6,3.64A14.42,14.42,0,0,1,142.63,51.91Zm-8.86-.18h0a26.86,26.86,0,0,0,0,2.7C134,56.11,135.17,57,137,57s3-.86,3.17-2.6a42,42,0,0,0,0-4.44,2.91,2.91,0,0,0-3.32-3.16A3,3,0,0,0,133.78,50C133.76,50.57,133.77,51.15,133.77,51.73Z"/><path d="M0,52c.06-1,.05-2,.18-3a4.46,4.46,0,0,1,3.65-4.07c2.32-.56,4.44-.24,6.07,1.65.33.38,1.16,1,.27,1.54-.6.39-1.25.9-2-.12A3.23,3.23,0,0,0,4.28,47a2.84,2.84,0,0,0-1.93,3,22,22,0,0,0,.12,4.75A2.68,2.68,0,0,0,5.32,57c1.79.09,3-.58,3.42-2,.3-.91.29-1.58-1-1.44-.66.07-1.26,0-1.38-.87s0-1.4,1-1.22c1.24.23,2.92-.74,3.66.49,1,1.7-.22,5.21-1.93,6.25a6.53,6.53,0,0,1-6.53.25C.63,57.55.09,55.72.05,53.71c0-.58,0-1.17,0-1.75Z"/><path d="M105.47,51.85c0-2,.06-3.92,0-5.87,0-1.14.69-1.14,1.42-1.21.93-.1.81.6.82,1.17,0,.11,0,.21,0,.32.12,1.35-.62,3.42.32,3.91,1.6.84,3.71.26,5.61.25.57,0,.61-.49.62-.93,0-1.06.08-2.12,0-3.17s.46-1.49,1.45-1.55c1.22-.07.86.85.86,1.43,0,3.76,0,7.51,0,11.27,0,.75.12,1.46-1.06,1.49s-1.29-.58-1.26-1.48c0-1.06-.06-2.12,0-3.17s-.25-1.76-1.57-1.65c-1.57.13-3.62-.48-4.62.3s-.27,3-.36,4.54c0,.77.06,1.45-1.1,1.46s-1.16-.56-1.15-1.39C105.49,55.65,105.47,53.75,105.47,51.85Z"/><path d="M32.59,53.36c1.42,1.18,1.89,3.17,3.93,3.6.68.14.28.8.27,1.22,0,.57-.38.81-1,.8a3.52,3.52,0,0,1-2.65-1.54c-1.1-1.33-2.17-2.68-3.44-4.25a19.84,19.84,0,0,0-.17,4.63c0,1-.4,1.12-1.23,1.13s-1-.39-1-1.15c0-3.91,0-7.83,0-11.74,0-.85.18-1.27,1.13-1.21,1.11.07,2.22,0,3.33,0,2.46.1,3.91,1.27,4.31,3.41S35.56,52,33.28,53Zm-1.83-2.09c2.15,0,3.19-.76,3.17-2.18s-1.16-2.28-3.24-2.17c-2.27.12-.82,1.88-1.11,2.85S29.49,51.61,30.76,51.26Z"/><path d="M62.37,58.9c-1.15.28-1.37-.6-1.5-1.36-.26-1.64-1.17-2.2-2.74-1.91a2.81,2.81,0,0,1-.95,0c-1.67-.28-2.68.28-2.94,2.07-.08.55-.21,1.23-1.14,1.25C52,59,51.46,58.86,52,57.5c1.41-3.75,2.73-7.53,4-11.33a1.86,1.86,0,0,1,2-1.39c1.17-.09,1,.84,1.27,1.46,1.38,3.81,2.7,7.65,4.09,11.46C63.63,58.69,63.46,59.08,62.37,58.9Zm-2.93-5.52-1.75-5.21a6.08,6.08,0,0,0-1,2.28C55.52,53.87,55.53,53.87,59.44,53.38Z"/><path d="M185.95,51.8c0-1.9,0-3.81,0-5.71,0-.84.18-1.27,1.13-1.24,1.85.06,3.7,0,5.55,0,.85,0,1.09.34,1.1,1.12s-.42,1.09-1.18,1.06c-1,0-1.9,0-2.85,0-.5,0-1.27-.27-1.42.33a5.1,5.1,0,0,0,.05,2.81c.12.34.55.23.85.24.85,0,1.69,0,2.54,0,.48,0,1.22-.15,1.15.67s-.11,1.57-1.21,1.48c-.21,0-.42,0-.63,0-3,0-2.91,0-2.87,3,0,1,.4,1.26,1.31,1.21s2.11,0,3.17,0c.61,0,1,.13,1,.89s0,1.29-1,1.28q-2.85,0-5.71,0c-.81,0-1-.41-.95-1.09C186,55.82,185.95,53.81,185.95,51.8Z"/><path d="M161.5,52.85c0-1.53-.05-3.07,0-4.6,0-1-.34-1.32-1.28-1.23a15.4,15.4,0,0,1-1.74,0c-.72,0-.84-.48-.83-1.08s0-1.07.81-1.07H167c.38,0,.81,0,.73.57s-.1,1.2-.72,1.49a2.2,2.2,0,0,1-.78.09c-2.54.15-2.54.14-2.54,2.65,0,2.7,0,5.39,0,8.09,0,.75-.13,1.18-1,1.17s-1.25-.25-1.22-1.17C161.54,56.13,161.5,54.49,161.5,52.85Z"/><path d="M212,51.8c0-1.85.08-3.71,0-5.55-.07-1.21.57-1.44,1.5-1.48,1.14-.05.73.84.73,1.36,0,3.07.06,6.13,0,9.2,0,1.07.24,1.55,1.4,1.46a31.5,31.5,0,0,1,3.33,0c.48,0,1.22-.18,1.1.68-.09.61,0,1.47-1.06,1.47-2,0-4,0-6,0-.81,0-1-.42-1-1.1C212,55.81,212,53.8,212,51.8Z"/><path d="M214.27,69.33c-.16.18-.32.38-.5.56-1.5,1.55-3,3.11-4.51,4.65-.63.64-3,.3-3.47-.47a.64.64,0,0,1,0-.73c.24-.41.48-.82.72-1.22,2.29-3.89,2.29-3.89,6.82-3.43C213.78,68.72,214.23,68.68,214.27,69.33Z"/></g></g></svg>