<svg xmlns="http://www.w3.org/2000/svg" viewBox="0 0 232.61 218.95"><defs><style>.cls-1{fill-rule:evenodd;}</style></defs><title>Asset 135</title><g id="Layer_2" data-name="Layer 2"><g id="Main"><path class="cls-1" d="M0,164v11.19a.24.24,0,0,1,.05.11l1.14,4.06c3.25,9.17,10,14,18.8,18.45,18.68,9.53,44.91,15.85,66.23,18.83a196.15,196.15,0,0,0,40.36,2.05c12.27-.49,25.82-2.77,37.43-5.12a232.72,232.72,0,0,0,33.33-9.23c9.89-3.61,21.77-8.91,27.65-14.88a27,27,0,0,0,7.38-13.89c.4-2.08.2-8.14.14-10.58-.09-3.53-1.17-5.94-4.59-6.19-.25-2.4-.26-5.23-.4-7.67-2-32.84-10.44-68.22-27.07-95.71-3.19-5.28-9.37-14.26-13.77-18.92-1.85-2-4-4.43-6-6.29l-6.53-5.74c-1.58-1.26-3-2.41-4.69-3.59-3.1-2.22-2.36-.91-3.2-4.92-.9-4.29-7.12-6.52-10.14-6.13a9.49,9.49,0,0,0-2.8,1.35c-.87.46-2-.41-2.94-.75a93.15,93.15,0,0,0-12.58-3.82,114.09,114.09,0,0,0-14.51-2c-.81-.35-1.38-3.14-3.74-4.07-.7-.27-1.59-.33-2.17-.6h-2.3c-1.38.67-2.61.34-3.71,1.63a34.8,34.8,0,0,0-2.07,3,86.63,86.63,0,0,0-27.09,5.75c-.79.31-2.17,1.17-2.95.8a11.19,11.19,0,0,0-2.78-1.36c-2.15-.31-5,.78-6.49,1.62a6.64,6.64,0,0,0-3.7,4.42c-.91,4.17.11,2.56-3.18,5-1.7,1.25-3.13,2.31-4.69,3.58-2.46,2-4.27,3.69-6.5,5.77-1.29,1.2-4.92,4.92-6,6.27L42.13,41a130.11,130.11,0,0,0-10,14.4C16.35,82.08,8.56,112.06,5.61,143.49c-.48,5.13-.58,10.16-1,15.3-1.88.42-2.36.39-3.34,1.66S.57,162.78,0,164M150.9,40.85h3.94c.35-2.08,1.07-4.53,1.6-6.56.58-2.22,1.18-4.31,1.81-6.47.33-1.14,3.41-11.59,4.44-12.13.69.58,1.1,3.86,1.35,5.1.32,1.59,1,1.43,3.32,3.09,3,2.19,4.41,3.35,7.29,5.7,3.07,2.51,4.38,4.3,6.6,6.24,1.82,1.59,7.21,8.26,8.93,10.48a145.22,145.22,0,0,1,16.63,28.62c10.12,22.85,15.34,47.72,17.35,73a113,113,0,0,1,.63,12.36c-2.1,1.22-46.7,4.81-52.53,5.24a817,817,0,0,1-138.58-2.09l-19.48-2.2c-2.07-.26-4.45-.46-6.43-.87-.31-3.36,1.35-20.64,1.75-24C13.27,105,23.24,71.56,42.21,46.5c1-1.26,1.91-2.55,2.88-3.69l6-6.81A100.71,100.71,0,0,1,66.92,22.68c.94-.62,1.32-.56,1.55-1.72s.76-4.53,1.32-5.25c.68.22,1.06,1.72,1.42,2.72l3.07,9.34c.65,2.16,1.21,4.29,1.8,6.48.13.47,1.43,6.48,1.84,6.61h3.72c-.3-2.5-4.31-17.24-5.25-20.48-.34-1.17-2-6-1.48-6.82.57-.63,2.75.94,3.79,1.51s.75.61,2,.09a77.21,77.21,0,0,1,10.43-3.7,96.56,96.56,0,0,1,19.7-3l2.51-3.61c.37-.55.48-1,1.15-1,.64,1.08.11,32.73.23,37h3.16V13c0-2.21-.25-7.36.15-9.16.86,0,1.15.88,2,2.07.59.86,1.14,1.62,1.65,2.5,1,.2,7.29.54,10.23,1a83,83,0,0,1,19.9,5.68c1,.45,1,.6,2,.07.77-.44,3-2,3.92-1.67.48,1.08-1.07,5.44-1.43,6.72l-3.62,13.51A73,73,0,0,0,150.9,40.85ZM3.17,165.88c4.34.26,9,.92,13.41,1.35,4.56.44,9.11.87,13.66,1.21,9.3.7,18.57,1.32,27.88,1.9a1040,1040,0,0,0,116.09,0c16.61-1,31.7-2.1,48.14-3.76,2.2-.22,4.82-.63,7-.7,0,6.66.75,11.06-3.48,17a31,31,0,0,1-10.85,9.41c-16.25,8.87-43.14,15.87-61.89,19.17-34.83,6.13-56.71,4.3-90.64-3.5-14.81-3.4-32.34-9.1-45.1-15.7-6.53-3.37-12.25-9.31-14-16.41A50.84,50.84,0,0,1,3.17,165.88Z"/><path class="cls-1" d="M102.94,111.33c.9-9.44-5.26-17.4-15.31-18-5.41-.31-10,1-12.93,3.78-3.21,3-5.21,6.32-5.53,11.2-.65,10.15,6.08,17.52,15.5,18.08,5.15.31,10.08-1.27,12.72-3.87a17.44,17.44,0,0,0,3.68-4.75,17,17,0,0,0,1.86-6.46M85.43,96.83c8.83-1.1,8.47,14.86,6.46,21-.81,2.5-2.26,4.59-5.12,4.85-6.21.56-7.45-6.64-7.64-12.24S80.16,97.49,85.43,96.83Z"/><path class="cls-1" d="M68.22,96.07c.08-.17.72-2.19-1-2.33-1.2-.1-10-.1-10.42.19a1.83,1.83,0,0,0,.14,2.54c.74.38,1.88-.1,2.91.67,1.27,1,.87,4.47.87,6.2,0,2.31,0,4.64,0,6.94-.38-.18-6-7.48-6.83-8.46L48.76,95.4c-.57-.74-.94-1.62-2.09-1.67-2.47-.1-5.21,0-7.72,0-1,0-3-.29-3.46.43,0,.07-.89,1.9.8,2.41,3.49,1,3.43.09,3.43,4.34v15.27c0,2.21.52,5.62-1.35,6.41-1,.42-2.53,0-3,.89a2.67,2.67,0,0,0,0,1.69c.21.47.59.59,1.25.61,2.49.06,5.08,0,7.57,0,1.93,0,4.4.52,3.7-2.14-.13-.49-.4-.69-1.13-.73-3.15-.19-3.43-1-3.42-4.15,0-5-.13-10.25,0-15.27.42.29,6.08,7.34,6.44,7.81C53,115.51,57.61,120.66,61,125c.94,1.21.94,1.5,2.11,1.46,1.5,0,1.35-1,1.34-2.29s0-2.38,0-3.57c0-6.64-.21-15,0-21.26.13-3.71,3.12-1.93,3.79-3.28"/><path class="cls-1" d="M175.37,124.32c0-2.67-3.54-.61-3.93-2.47-.21-1,1.13-4,1.55-4.62l9.18,0c.42.8,2.11,4.59,2,5.29-1.52.93-3.5-.61-3.5,1.77,0,1.25.33,1.45,1.56,1.45h13.42c2,0,1.66-1.06,1.46-2.5-.65-.38-1.7-.4-2.27-.85-1.4-1.11-6.09-12.56-6.93-14.48l-5.62-12.79c-.32-.75-.54-1.69-1.2-1.94a1.33,1.33,0,0,0-1.87.83c-2.42,5.68-5.07,11.27-7.6,17-1.25,2.79-2.47,5.74-3.82,8.46-2.65,5.34-4.35,2.17-4.47,4.73-.07,1.56.56,1.6,1.5,1.6H174c1.13,0,1.41-.29,1.4-1.45m-.65-10.78a23.09,23.09,0,0,1,1.39-3.35c.3-.69,1.14-2.92,1.58-3.24l2.77,6.59Z"/><path class="cls-1" d="M133.62,95.2c0,1.1.42,1.4,1.52,1.4,3.06,0,2.7.86,2.7,3.74v19.13c0,2.63.24,3.43-2.56,3.43-1.08,0-1.63.19-1.67,1.28,0,1.27.29,1.59,1.53,1.59h25.69c1.76,0,1.47-1,1.65-2.66l.84-7.86c.08-.66.2-1.4-.2-1.79a2.55,2.55,0,0,0-1.94-.21c-1.85.59-.81,8.78-8.77,8.78-5.47,0-5.3.52-5.3-3v-19c0-2.7-.19-3.48,2.74-3.45,1.09,0,1.73,0,1.82-1.12s-.16-1.75-1.4-1.75H135c-1.14,0-1.38.37-1.38,1.47"/><path class="cls-1" d="M121.34,96.06A2.18,2.18,0,0,0,121.1,94c-.52-.42-1.52-.25-2.22-.25-2.31,0-14.21-.12-14.8.08s-.78,1.18-.63,2,.65.84,1.58.85c2.22,0,2.55.25,2.6,2.44.15,6.05,0,13.61,0,19.84,0,1.51.34,3.51-1.14,3.89s-3.28-.66-3.09,1.82c.12,1.67,2.34,1.16,3.9,1.16h4.85c2.08,0,19,.25,19.59-.27s1-7.28,1.18-8.62c.16-1.54.9-3.59-.93-3.7-2-.12-1.75,1-2.33,2.68-1.93,5.49-4,6.18-8.66,6.18-2.17,0-3.79.32-4-1-.28-1.52-.09-16.69-.09-19.58,0-1.16-.24-3.85.5-4.47,1.1-.91,3.32.19,3.93-1"/><path class="cls-1" d="M69.09,142.49l6.42,8.09c.79,1,1.12,2.1,3.2,1.54V138l-2.34,0,0,9.63-.46-.4-.24-.33-3.64-4.63c-.71-.89-1.42-1.82-2.13-2.73-1.14-1.46-.71-1.64-3.2-1.59v14.2l2.34,0Z"/><path class="cls-1" d="M168,146.3c1.27-10.23-12.86-11.36-14.21-2.54-.69,4.47,2,7.93,5.81,8.49,4.52.66,7.92-2.1,8.39-6m-11.49,0c-1.27-7.41,7.83-8.23,8.77-2.42.49,3.07-.76,5.5-3.19,6.07A4.31,4.31,0,0,1,156.49,146.3Z"/><path class="cls-1" d="M50.31,145.87c.76,9.22,15.21,8.48,14.32-1.56-.82-9.23-15.16-8.49-14.32,1.56M53,146c-.85-7.22,8.11-8,8.86-1.83.38,3.12-.92,5.38-3.52,5.82A4.35,4.35,0,0,1,53,146Z"/><path class="cls-1" d="M110.71,146.16c1.28-.93,2.06-.78,2.71-2.61a4.44,4.44,0,0,0-.67-4.09c-1.65-1.86-5.92-1.48-8.89-1.45v14.21l2.64,0,.06-5.5c1.58-.13,1.7-.07,2.39,1,2.78,4.32,2.35,4.8,5.92,4.49a25,25,0,0,0-2-3.1c-.35-.5-.69-1-1-1.53s-.78-.94-1.09-1.38m-4.2-1.47v-4.6c2.1-.26,4.56-.09,4.55,2.21S108.69,145.06,106.5,144.69Z"/><path class="cls-1" d="M177.08,146.16a10.7,10.7,0,0,0,1.67-1.07,4.19,4.19,0,0,0,.36-5.66c-1.6-1.79-6-1.52-8.88-1.43v14.2h2.64l.05-5.51c2.12-.19,1.82.09,3.75,3.05,1.71,2.63,1.13,2.63,4.58,2.44a60,60,0,0,0-4.16-6m-4.18-6.07c2.15-.26,4.63-.08,4.52,2.36-.09,2.12-2.41,2.62-4.56,2.24Z"/><path class="cls-1" d="M116,138.07a73.88,73.88,0,0,0,.12,9.89,5.94,5.94,0,0,0,11.49-.08c.53-2.69-.34-7.35.2-9.88l-2.72.06c0,2.56,0,5.12,0,7.68s-.7,4.38-3.34,4.32-3.14-2-3.13-4.46,0-5,0-7.6Z"/><path class="cls-1" d="M181.66,152.19c3.18.06,2.56.45,3.94-3.49l5.89,0c.21.72.54,1.52.79,2.23.54,1.47.58,1.27,3.12,1.24a29,29,0,0,0-1.4-3.69c-.71-1.86-4-9.73-4-10.5h-2.83Zm6.89-11.56,2.21,6.15-4.38,0C186.42,146.38,188.29,141.17,188.56,140.63Z"/><path class="cls-1" d="M47.67,148.84c-1,.25-1.07,1-2.8,1.22a4.51,4.51,0,0,1-3.06-.62,5.4,5.4,0,0,1-1.91-5.63c.66-3.39,4.16-4.76,7.15-2.89.7.44.93.39,1.36-.16a3.63,3.63,0,0,0,.68-1.2,7.19,7.19,0,0,0-3.58-1.64c-4.45-.62-8.54,2.18-8.44,7.39.16,8.36,9.71,8.34,11.93,4.85a3.18,3.18,0,0,0-1.34-1.32"/><path class="cls-1" d="M140.14,148.84c-1,.32-1,1-2.71,1.22-4,.45-5.77-3-5-6.34a4.31,4.31,0,0,1,4.15-3.62c3-.17,3.28,2,4.32.67a4.35,4.35,0,0,0,.7-1.13c-3.19-3.34-12.14-2.34-12,5.67a6.86,6.86,0,0,0,11.93,4.85,3,3,0,0,0-1.37-1.32"/><path class="cls-1" d="M80.54,150.44c1.08,1.68,5,2.56,7.34,1.26a4.25,4.25,0,0,0,2.07-2.77c.89-3.68-1.93-4.53-4.22-5.28-4.54-1.5-1.33-4.64,1.56-3.28.53.25,1.86,1.6,2.47-1.05-1.92-1.65-5.32-2.17-7.33-.35a3.87,3.87,0,0,0,.61,6.37c1.12.56,2.6.77,3.55,1.3,2.59,1.44,0,5-3.5,2.93-1.17-.71-1.44-1.34-2.55.89"/><path class="cls-1" d="M142.36,140.16l4.27.09v12l2.65,0,0-12,4.22,0V138c-1.56-.1-10.12-.2-11.21.05Z"/><polygon class="cls-1" points="90.92 140.18 95.18 140.2 95.26 152.2 97.83 152.2 97.84 140.19 102.09 140.18 102.1 138 90.92 138 90.92 140.18"/></g></g></svg>