<svg xmlns="http://www.w3.org/2000/svg" viewBox="0 0 194.22 199.37"><defs><style>.cls-1{fill:none;stroke:#000;stroke-linejoin:bevel;stroke-width:0.22px;}.cls-2,.cls-3{fill:#fff;}.cls-2{fill-rule:evenodd;}</style></defs><title>Asset 134</title><g id="Layer_2" data-name="Layer 2"><g id="Main"><rect x="0.11" y="0.11" width="194" height="194"/><rect class="cls-1" x="0.11" y="0.11" width="194" height="194"/><polygon class="cls-2" points="76.45 105.72 61.22 105.72 61.22 119.53 76.45 134.76 76.45 105.72"/><polygon class="cls-2" points="76.45 137.19 44.98 105.72 35.84 105.72 35.84 114.85 67.31 146.32 76.45 146.32 76.45 137.19"/><polygon class="cls-2" points="64.89 146.32 35.84 117.28 35.84 146.32 64.89 146.32"/><path class="cls-2" d="M129.75,105.7H103.82a14.66,14.66,0,0,0-14.67,14.23h40.6Z"/><rect class="cls-3" x="89.14" y="121.45" width="40.61" height="9.14"/><path class="cls-2" d="M129.74,132.11H89.14v14.21h25.94a14.66,14.66,0,0,0,14.66-14.21"/><polygon class="cls-2" points="85.59 164.85 82.67 159.01 76.33 171.71 82.16 171.71 85.59 164.85"/><polygon class="cls-2" points="89.02 171.71 86.1 165.87 83.19 171.71 89.02 171.71"/><polygon class="cls-2" points="100.12 165.04 94.09 159.01 94.09 171.06 100.12 165.04"/><path class="cls-2" d="M106.78,162.74a4,4,0,0,0-4-3.73H95.39l7.92,7.92a4,4,0,0,0,3.47-4.2"/><polygon class="cls-2" points="106.78 171.71 100.76 165.68 94.74 171.71 106.78 171.71"/><path class="cls-2" d="M124.2,171.71l-10.65-10.65a6.34,6.34,0,0,0,4.66,10.65Z"/><path class="cls-2" d="M122.69,160.87a6.34,6.34,0,0,0-8.48-.44l8.92,8.92a6.35,6.35,0,0,0-.44-8.48"/><path class="cls-2" d="M129.63,170.44a1.27,1.27,0,1,0-1.27,1.27,1.27,1.27,0,0,0,1.27-1.27"/><rect class="cls-3" x="3.11" y="179.67" width="3.08" height="19.7"/><rect class="cls-3" x="9.27" y="188.53" width="3.08" height="10.84"/><rect class="cls-3" x="15.44" y="188.53" width="3.08" height="10.84"/><rect class="cls-3" x="21.6" y="188.53" width="3.08" height="10.84"/><rect class="cls-3" x="27.77" y="188.53" width="3.08" height="10.84"/><rect class="cls-3" x="33.93" y="184.56" width="3.08" height="14.8"/><rect class="cls-3" x="64.76" y="179.67" width="3.08" height="19.7"/><rect class="cls-3" x="58.6" y="188.53" width="3.08" height="10.84"/><rect class="cls-3" x="52.43" y="188.53" width="3.08" height="10.84"/><rect class="cls-3" x="46.27" y="188.53" width="3.08" height="10.84"/><rect class="cls-3" x="40.1" y="188.53" width="3.08" height="10.84"/><rect class="cls-3" x="33.93" y="184.56" width="3.08" height="14.8"/><rect class="cls-3" x="64.76" y="179.67" width="3.08" height="19.7"/><rect class="cls-3" x="70.93" y="188.53" width="3.08" height="10.84"/><rect class="cls-3" x="77.1" y="188.53" width="3.08" height="10.84"/><rect class="cls-3" x="83.26" y="188.53" width="3.08" height="10.84"/><rect class="cls-3" x="89.43" y="188.53" width="3.08" height="10.84"/><rect class="cls-3" x="95.59" y="184.56" width="3.08" height="14.8"/><rect class="cls-3" x="126.42" y="179.67" width="3.08" height="19.7"/><rect class="cls-3" x="120.26" y="188.53" width="3.08" height="10.84"/><rect class="cls-3" x="114.09" y="188.53" width="3.08" height="10.84"/><rect class="cls-3" x="107.92" y="188.53" width="3.08" height="10.84"/><rect class="cls-3" x="101.76" y="188.53" width="3.08" height="10.84"/><rect class="cls-3" x="95.59" y="184.56" width="3.08" height="14.8"/><rect class="cls-3" x="126.42" y="179.67" width="3.08" height="19.7"/><rect class="cls-3" x="132.59" y="188.53" width="3.08" height="10.84"/><rect class="cls-3" x="138.75" y="188.53" width="3.08" height="10.84"/><rect class="cls-3" x="144.92" y="188.53" width="3.08" height="10.84"/><rect class="cls-3" x="151.08" y="188.53" width="3.08" height="10.84"/><rect class="cls-3" x="157.25" y="184.56" width="3.08" height="14.8"/><rect class="cls-3" x="188.08" y="179.67" width="3.08" height="19.7"/><rect class="cls-3" x="181.91" y="188.53" width="3.08" height="10.84"/><rect class="cls-3" x="175.75" y="188.53" width="3.08" height="10.84"/><rect class="cls-3" x="169.58" y="188.53" width="3.08" height="10.84"/><rect class="cls-3" x="163.42" y="188.53" width="3.08" height="10.84"/><rect class="cls-3" x="157.25" y="184.56" width="3.08" height="14.8"/></g></g></svg>