<svg xmlns="http://www.w3.org/2000/svg" viewBox="0 0 362.18 57.61"><defs><style>.cls-1{fill-rule:evenodd;}</style></defs><title>Asset 117</title><g id="Layer_2" data-name="Layer 2"><g id="Main"><path class="cls-1" d="M94.73,46.79,106.46,7h-15s2.13,1,1,5a2.35,2.35,0,0,0-.1.53L79.75,55.54H114.1l0-.05,0,0,3.42-11.39a12.48,12.48,0,0,1-6.78,2.65Z"/><path class="cls-1" d="M196.65,15.72h0c4.24,0,5.1,2.83,5.1,2.83l3.15-11.1.11-.38H174.55l0,0h-6.29s2.14,1,1,5c0,.16,0,.26-.08.38L156.45,55.57h34.38v0l2.23-7.48.38-1.25.8-2.66a10.73,10.73,0,0,1-6.79,2.66h-16l3.33-11.89h17.07l2.53-8.68H177.5l3.08-10.52Z"/><path class="cls-1" d="M230,7.08H208.68s2.14,1,1,5c0,.12,0,.2-.05.29L196.88,55.57l13.63,0s-1.18-.34.15-5c.05-.21,4.55-15.33,4.55-15.33h1.84a7,7,0,0,1,3.08.55,6.38,6.38,0,0,1,2.32,2.83,42.37,42.37,0,0,1,2.66,6.88l3.26,10.12h13.47l-3.55-11.09a36.81,36.81,0,0,0-2.58-6.76A10.51,10.51,0,0,0,232,34a16.59,16.59,0,0,0,9.08-3.83,13.88,13.88,0,0,0,4.36-8.66,13.72,13.72,0,0,0-2.19-9.84q-3-4.54-13.23-4.55m2.57,14A8.16,8.16,0,0,1,229.75,26c-1.6,1.46-4.13,2.19-7.56,2.19h-4.85l4.12-14h1.91c4.13,0,6.76.69,7.9,2.08a5.92,5.92,0,0,1,1.3,4.88"/><path class="cls-1" d="M149.13,46.87H133.19L145,7.05H130.06s2.13,1,1,5v.08l-12.8,43.4H152.6l0-.05a.15.15,0,0,1,0,0l3.54-11.4a12.52,12.52,0,0,1-6.94,2.66c-.05,0-.08,0-.12.06"/><path class="cls-1" d="M25.4,48.84,72.68,0l-53,0h-.75V0L15.37,11.41A12.67,12.67,0,0,1,22.1,8.77H47.27L0,57.59H52.23L55.68,46.2A12.7,12.7,0,0,1,49,48.86Z"/><path class="cls-1" d="M362.18,44.21a12.46,12.46,0,0,1-6.93,2.67l-16.07.05L351,7.11h-14.9s2.12,1,1,5c0,0,0,0,0,.07L324.25,55.61h34.39Z"/><path class="cls-1" d="M321,51.7,319.6,7.1H303.15s2.32,1.7.11,5.06h0L274.84,55.6h13.78s-.71-.56-.42-1.19l.36-.63,5.36-8.91h14.69l-.33,10.74h11.51l2.12,0,.44,0S321.29,55.27,321,51.7ZM308.81,38H298.14l11.17-18.55Z"/><path class="cls-1" d="M267.29,50.39l10.45-34.63h9.9c4.07.09,4.92,2.82,4.92,2.82l3.26-11.48h0v0H252.45l-2.57,8.64h0L249,18.65a9.56,9.56,0,0,1,6.77-2.9h9.58L253.47,55.58l13.64,0s-1.18-.34.15-5c0-.07,0-.11,0-.17"/><path class="cls-1" d="M72.89,50.12,85.79,7H70.86s2.14,1,1,5c0,0,0,.07,0,.1L58.93,55.53H71.28v0l1.38,0s-1.18-.34.15-5a3.31,3.31,0,0,0,.07-.38"/></g></g></svg>