<svg xmlns="http://www.w3.org/2000/svg" viewBox="0 0 663.93 94.37"><title>Asset 125</title><g id="Layer_2" data-name="Layer 2"><g id="Main"><path d="M0,17c.73-3.1,2.85-3.67,5.74-3.63,11.11.12,22.22,0,33.33.05,3.4,0,4.55,1,4.64,4.4q.16,5.66,0,11.33C43.58,32,42.45,33,39.59,33c-7.83,0-15.67,0-23.5,0-2.19,0-2.19,0-2.19,2.18,0,2.32,0,4.64,0,7.21H38.84c2.6,0,3.45.85,3.47,3.5,0,1.78,0,3.56,0,5.33,0,2.14-.91,3-3.06,3-7.78,0-15.56.06-23.33,0-1.63,0-2.12.47-2,2.07a63.51,63.51,0,0,1,0,6.83c-.07,1.45.36,1.91,1.85,1.9,7.44-.07,14.89,0,22.33,0,.78,0,1.56,0,2.33,0a3.3,3.3,0,0,1,3.52,3.42q.13,6.58,0,13.16A3.16,3.16,0,0,1,40.48,85c-5.89.1-11.78.1-17.66.12-5.72,0-11.45,0-17.17,0C3,85.14.81,84.61,0,81.7Z"/><path d="M632.25,94.37c-.23-3.2-.39-6.41-.71-9.6-.57-5.62-1.24-11.23-1.87-16.85-.28-2.51-.55-5-.83-7.62L615.32,89.07l-10.16-5.77c1.3-2.5,2.56-4.87,3.78-7.28,5-9.91,9.63-20,12.2-30.83,1.14-4.81,2.15-9.71.82-14.62a19.47,19.47,0,0,0-2.8-5.34,2.38,2.38,0,0,1-.53-2.2c1-3.63,1.85-7.29,2.81-11.13,6.89,5.24,12.06,11.36,12.26,20.87,1.29-1.14,2.2-2,3.14-2.76,6.76-5.7,15.55-4.53,20.51,2.78,3.11,4.58,4.59,9.8,5.49,15.2.44,2.67.73,5.36,1.09,8v1.67l-11.52.67c-.17-5.92-.88-11.51-3.18-16.76-.65-1.47-1.13-3.46-3-3.63-2.11-.19-3.09,1.73-4.07,3.23a15,15,0,0,0-2.21,8.74c.14,5.09.48,10.18,1,15.25.62,6.67,1.47,13.32,2.18,20,.28,2.67.43,5.36.64,8.15-1.38.11-2.54.19-3.69.3-2.36.24-4.72.49-7.07.74Z"/><path d="M642.92,0c1.1.35,2.22.64,3.29,1.07a11.42,11.42,0,0,1,6.74,13.2c-1.62,6.14-6.74,9.51-13.22,8.67-5.15-.66-9.37-5.65-9.4-11.1A11.32,11.32,0,0,1,639.68.37a4.93,4.93,0,0,0,.9-.37Zm-4.35,12.88a10.61,10.61,0,0,0-1.62.32c-1.65.56-2,1.85-1,3.25,1.49,2,5.59,3.42,8,2.75,2-.57,2.5-2,1.06-3.57C643.32,13.82,641.11,13.15,638.57,12.88Z"/><path d="M365.66,57.61c0,7.79,0,15.28,0,22.78a14.48,14.48,0,0,1-.23,2.48A2.35,2.35,0,0,1,362.87,85c-2.61,0-5.22,0-7.83,0a2.34,2.34,0,0,1-2.53-2.46c0-.5,0-1,0-1.5q0-30.84,0-61.68c0-.44,0-.89,0-1.33.09-3.45,1.22-4.56,4.66-4.56,7.84,0,15.67-.05,23.51,0a28.56,28.56,0,0,1,11.5,2.28c11,4.9,15.77,18.07,10.28,28.18A19.93,19.93,0,0,1,395,51.29c5,2,5.22,6.51,6.07,10.65.9,4.38,1.8,8.76,3.08,13.14.68-3.22,1.38-6.43,2-9.66q5.2-25.3,10.37-50.6c.22-1.08.69-1.42,1.78-1.42,5.95,0,11.89.07,17.84,0a7.81,7.81,0,0,1,6.45,3.18c1.89,2.32,2.56,5.11,3.13,8q3.88,19.13,7.81,38.24c1.26,6.13,2.56,12.25,3.76,18.38.4,2.05.14,4-3.21,3.83-2.05-.11-4.11,0-6.17,0-2.45,0-3.15-.55-3.63-2.94-.83-4.12-1.66-8.25-2.38-12.39-.21-1.23-.67-1.68-1.93-1.67q-9.84.07-19.67,0c-1.24,0-1.73.41-2,1.65-.8,4.24-1.72,8.46-2.61,12.69-.44,2.07-1.18,2.66-3.33,2.67q-7.58,0-15.17,0c-3.48,0-5.49-1.42-6.35-4.86-.93-3.76-1.59-7.58-2.38-11.37-.54-2.6-1.08-5.2-1.65-7.8a4,4,0,0,0-3.74-3.25,16.67,16.67,0,0,0-2.16-.09Zm-.93-27c0,3.92,0,7.63,0,11.34,0,1,.56,1.15,1.37,1.14,4.44,0,8.88.08,13.31-.1a28.8,28.8,0,0,0,6.69-1.09c2.74-.78,3.88-2.46,3.91-4.92a5.15,5.15,0,0,0-3.78-5.42,14.41,14.41,0,0,0-4.35-.95c-5.15-.15-10.31-.14-15.46-.17C365.91,30.45,365.42,30.54,364.73,30.61Zm61.72-1.7-3.81,20.47h15.22c-.44-2.14-.84-4.14-1.27-6.14q-1.3-6-2.64-12a2.66,2.66,0,0,0-3.07-2.37C429.49,29,428.1,28.91,426.44,28.91Z"/><path d="M337.4,79.46c-.91,1-1.76,2-2.74,2.86-9.63,8.66-25,6.28-32.25-5A39.23,39.23,0,0,1,297,62.4c-2-11.84-1.32-23.46,3.54-34.57C304.14,19.65,310.15,14,319,12.31a41.5,41.5,0,0,1,23.49,2.58,3.7,3.7,0,0,1,2.56,4c-.11,4.89,0,9.78-.06,14.67a15.57,15.57,0,0,1-.66,3,31.52,31.52,0,0,0-12.85-4.4A26,26,0,0,0,318,33.66a14.4,14.4,0,0,0-9.17,12.67,45.49,45.49,0,0,0,.4,10.25,10.52,10.52,0,0,0,8.27,9.2,21.79,21.79,0,0,0,15.4-1.37c2.86-1.4,4.8-3.5,5-6.92.06-1.44-.2-2.18-1.85-2.09-2,.11-4,0-6,0-1.18,0-1.74-.52-1.73-1.7,0-2.83,0-5.67,0-8.5,0-1.3.6-1.86,2-1.85,5.22,0,10.45,0,15.67,0,1.33,0,1.91.49,1.91,1.86,0,12.56,0,25.12,0,37.68,0,1.84-.95,2.71-2.8,2.73-1.56,0-3.11,0-4.67,0a2.15,2.15,0,0,1-2.43-2.32c-.07-1.25,0-2.51,0-3.77Z"/><path d="M171.26,42.43h24.95c2.52,0,3.44.89,3.46,3.36q0,2.58,0,5.17c0,2.43-.9,3.34-3.29,3.35-7.72,0-15.45,0-23.17,0-1.5,0-2.07.37-2,1.95a56.75,56.75,0,0,1,0,6.83c-.11,1.68.54,2,2.09,2,7.61-.07,15.23,0,22.84,0,4.18,0,5.18,1,5.19,5.2,0,3.5,0,7,0,10.5,0,2.93-1.15,4.22-4.1,4.25-9.22.09-18.45.08-27.67.08-2.78,0-5.56,0-8.33-.12-2.33-.1-3.5-1.32-3.72-3.64,0-.5,0-1,0-1.5q0-30.42,0-60.85a12.42,12.42,0,0,1,.18-2.48c.44-2.13,1.55-3.06,3.7-3.07q17.84,0,35.67,0c2.59,0,3.93,1.28,4,3.86q.1,5.92,0,11.83c0,2.66-1.23,3.86-3.91,3.88-7.89.05-15.78,0-23.67,0-2.19,0-2.19,0-2.19,2.18C171.26,37.55,171.26,39.87,171.26,42.43Z"/><path d="M264.1,42.43h25.14c2.38,0,3.33.88,3.42,3.28.07,1.78.06,3.56,0,5.33-.08,2.38-1,3.26-3.42,3.26-7.72,0-15.45,0-23.17,0-1.55,0-2.06.48-2,2,.1,2.33.09,4.67,0,7,0,1.4.5,1.8,1.85,1.79,7.78,0,15.56.06,23.34-.06,3.64-.05,5.07,1.19,5.09,5.08,0,3.45,0,6.89,0,10.34,0,3.21-1.2,4.58-4.35,4.6q-17.5.12-35,0c-3.54,0-4.51-1.24-4.51-4.88q0-24.26,0-48.51c0-4.61,0-9.22,0-13.84,0-3.17,1.29-4.38,4.49-4.39h34.34c3.47,0,4.69,1.21,4.71,4.7,0,3.17,0,6.33,0,9.5,0,4.5-.92,5.41-5.48,5.41-7.45,0-14.89,0-22.34,0-1.7,0-2.25.5-2.16,2.18C264.2,37.51,264.1,39.84,264.1,42.43Z"/><path d="M499.81,50.63c0-8.91.88-16.69,4.11-24,3.4-7.75,8.92-13.26,17.42-14.73C535.77,9.38,546.78,15,551.82,30a62.24,62.24,0,0,1,2.78,20.67c-.08,8-1.15,15.83-4.84,23.06-5.27,10.33-14.51,14-24.72,13.36-14-.92-20.29-10.54-23.08-20.17A57.14,57.14,0,0,1,499.81,50.63Zm10.79-2.06h-.15c0,.78.05,1.56,0,2.33a13,13,0,0,0,11.08,13.67,44.24,44.24,0,0,0,10.95.12A13,13,0,0,0,544,52.79a52.89,52.89,0,0,0,.08-7.66c-.41-6.33-4.46-11.26-10.59-12.41a51.86,51.86,0,0,0-9.62-.43,13.56,13.56,0,0,0-13.23,10.8A29.19,29.19,0,0,0,510.6,48.57Z"/><path d="M473.07,43.43h8.75c3.89,0,7.78,0,11.66,0,2.1,0,2.91.75,3,2.89q.11,3.5,0,7c-.05,2.34-.82,3.08-3.14,3.08-6,0-12,0-18,0-.71,0-1.42.08-2.29.14v1.93q0,11.41,0,22.83c0,3.14-.82,4-3.9,4h-6.5c-2.68,0-3.45-.77-3.45-3.47q0-30.33,0-60.66c0-1.28,0-2.56,0-3.83.08-2.45,1.41-3.87,3.83-3.87q16.16,0,32.33,0A3.36,3.36,0,0,1,499.13,17q.13,5.75,0,11.49c0,2.25-1.34,3.41-3.63,3.42-6.89,0-13.78,0-20.66,0-1.34,0-1.86.32-1.82,1.75C473.14,36.84,473.07,40,473.07,43.43Z"/><path d="M125,58.21c0-7.78,0-15.55,0-23.33,0-1.51-.43-2-2-2-3.11.11-6.22.05-9.33,0-2.44,0-3.67-1.26-3.69-3.7,0-3.83,0-7.66,0-11.5,0-3.12,1.29-4.3,4.4-4.3h34.66c3.17,0,4.49,1.28,4.52,4.4q0,5.41,0,10.83c0,3-1.35,4.27-4.27,4.28s-5.56.09-8.33,0c-1.62-.07-2.07.46-2.06,2.06.05,15.11,0,30.21,0,45.32,0,.61,0,1.22,0,1.83-.09,2-.95,2.85-3,2.86q-3.92,0-7.83,0c-2.28,0-3.08-.8-3.08-3.12C125,74,125,66.1,125,58.21Z"/><path d="M61.58,64.79H85.29c2.7,0,4,1.23,4,3.94q.05,6.17,0,12.33c0,2.77-1.24,3.95-4,4-10.05,0-20.11-.07-30.16.12-4.92.09-7-1.88-7.33-7.3-.25-4.21-.05-8.44-.05-12.66q0-23.91,0-47.83c0-3.21.72-3.94,3.88-3.94,2.17,0,4.33,0,6.5,0,2.32,0,3.21.83,3.41,3.13,0,.5,0,1,0,1.5q0,22.25,0,44.5C61.58,63.2,61.58,63.86,61.58,64.79Z"/><path d="M219.26,64.79H243c2.76,0,4.06,1.29,4.07,4.07q0,5.92,0,11.83c0,3.16-1.18,4.33-4.29,4.34-9.94,0-19.89-.1-29.83.12-5.08.11-7.16-2.18-7.37-7.43-.19-4.6,0-9.22,0-13.83q0-23.25,0-46.49c0-3.32.67-4,4-4,2.22,0,4.44,0,6.67,0,1.94,0,2.68.67,3,2.61a16,16,0,0,1,.13,2.32q0,22.08,0,44.16Z"/><path d="M611.69,41.27l-19.06-4.49c2.46-10.19,7.94-19.48,8.11-30.34,5.66,1.3,11.1,2.54,16.53,3.8,2.13.49,2.12.51,1.57,2.7Zm-1.9-27.64c-.6-.93-.89-1.8-1.48-2.17a2,2,0,0,0-2,0,5.78,5.78,0,0,0-.72,2.3,2,2,0,0,0-.06.65c0,.48,0,1.25.21,1.38.58.31,1.57.65,1.94.37A13.22,13.22,0,0,0,609.8,13.63Zm2.35,2c-.07,1.45.66,2.42,1.84,2.46s2.16-1.17,2.28-2.8a2.06,2.06,0,0,0-1.9-2.42C613.11,12.81,612.23,13.9,612.15,15.62Zm-9-.47s.24.52.41.5c.35,0,.89-.27,1-.54a30.29,30.29,0,0,0,.78-3.53,1.35,1.35,0,0,0-.31-.8,13.23,13.23,0,0,0-2.11.63c-.16.06-.28.65-.25.67C604,12.77,603.05,13.87,603.11,15.15Zm7.22,1-.59.27.68.9c.32-.26.84-.45.94-.78a23.29,23.29,0,0,0,.73-3.23c0-.3-.19-.64-.29-1-.7.23-1.42.43-2.1.73-.13.06-.2.5-.14.73C609.79,14.63,610.07,15.4,610.33,16.18Zm2.57,11.69.13-.49-6.63-1.71C607,27,611.38,28.26,612.9,27.88Zm-7.55,2.88-.24.89,6.38,1.61.22-.85ZM607.29,24c1.8,1.43,4.07,1.49,6.27,1.79C611.72,24.45,609.52,24.21,607.29,24Zm.33-2.35-.12.47,6.44,1.68C613.55,22.47,609.21,21.16,607.62,21.6Zm-2.9,11.72-.27.34c.21.25.39.69.64.74,1.92.35,3.75,1.42,5.76,1.14l.12-.58Zm5.34,4.91.17-.79A21.71,21.71,0,0,0,603.85,36l-.15.65Zm2.19-7.91c-1.89-1.22-4.1-1.48-6.42-2.07C606.32,29.45,609.32,30.44,612.26,30.33Zm-14.8-.45,6.76,1.66.11-.45C603.26,30,598.85,29,597.46,29.88Zm6.17,3.76c-1.89-1.25-4.13-1.41-6.38-2C597.6,32.75,601.62,34,603.63,33.64Zm3.26-13.19c-.41-1-5.32-2.61-5.91-2.37-.13.05-.31.22-.3.33s.11.51.23.54C602.89,19.48,604.89,20,606.89,20.45Zm-1.62,8.73c-1-1.6-5.66-2.75-7-1.79ZM603,35.64,596.4,34C597.11,35.38,601.55,36.58,603,35.64ZM599.35,24l-.23.9,6.34,1.61.23-.87Zm.83-2.63-.16.82c2.1.52,4.13,1.41,6.34,1.37l.15-.68Zm14.37.08c.05-.4.07-.5.06-.5-2-.64-4-1.28-5.94-1.9-.09,0-.34.17-.35.28s.05.53.15.56C610.49,20.46,612.51,21,614.55,21.48Z"/><path d="M609.8,6.67l1.71-2.18,5.41,3.43-.15.36Z"/><path d="M646.49,43.65c0,.54,0,1.08,0,1.63,0,7.28.09,14.55.1,21.83a9.28,9.28,0,0,1-.36,1.83l-.84-.08q0-12.33-.06-24.66a3.46,3.46,0,0,1,.37-1.06Z"/><path d="M648.85,43.7c0,1,0,2,0,3,.1,6.83.22,13.66.29,20.5a6.3,6.3,0,0,1-.51,1.75l-.54-.14A5.5,5.5,0,0,1,648,68c-.1-7.61-.21-15.22-.28-22.83a6.53,6.53,0,0,1,.45-1.68Z"/><path d="M643,68.78c0-1,0-2,0-3-.1-6.83-.22-13.66-.28-20.49a7.18,7.18,0,0,1,.46-1.8l.91.11c0,2.58,0,5.15,0,7.73,0,5.28.07,10.55.07,15.83a7.35,7.35,0,0,1-.44,1.76Z"/><path d="M614.83,14.25l-.4,2.48-.77-.1.27-2.5Z"/></g></g></svg>