<svg xmlns="http://www.w3.org/2000/svg" viewBox="0 0 254.39 171.36"><defs><style>.cls-1{fill-rule:evenodd;}</style></defs><title>Asset 119</title><g id="Layer_2" data-name="Layer 2"><g id="Main"><path class="cls-1" d="M249,105.71c-3.63-1.95-5.75-6.79-5.75-6.79a1.18,1.18,0,0,0,1.28-.51c.89-1,1.85-3.82-2-5.86-1.91-1-2.28-1.53-2.66-2.08L218,34.93a56,56,0,0,0-27-30q-19.1-10-43.87.29-28.69,11.87-37,33.17-19.1-10-43.87.28-19,7.88-26.67,24.71L34.94,51.47,0,70.59l18.67,47.35H61.14L54,99.71q2.57-19.26,14.26-25,13.33-5,22.1-.13t14,18.28l9.89,25.09H156.7l-18-45.54a57.92,57.92,0,0,1-2.66-8.69q2.47-17.19,13-22.47,13.33-5.05,22.09-.13t14,18.28l23.08,58.55h42l.15-.06a2.29,2.29,0,0,0,2.29-1c1.69-1.95,3.52-7.27-3.72-11.17"/><path class="cls-1" d="M247,105.79s4.15,1.34,5.78,5c.54,1.21.84,2.94,0,3.25-4,1.51-1.17-6.69-5.78-8.25"/><path class="cls-1" d="M241.86,93.13a4.52,4.52,0,0,1,2.52,2.18c.24.53.36,1.28,0,1.42-1.76.66-.52-2.91-2.52-3.59"/><path class="cls-1" d="M27.09,136.15v21.14h-9V125.23l9-1v2.94a10.7,10.7,0,0,1,7.73-2.91q6.12,0,9.35,3.8,3.54-3.8,10.63-3.8,6.12,0,9.34,3.8a13.11,13.11,0,0,1,3.23,8.75v20.47h-9V139.13A8,8,0,0,0,56.9,134a5.94,5.94,0,0,0-4.71-1.92q-2.67.21-4.64,3.63a13.41,13.41,0,0,0-.16,2.08v19.48h-9V139.13A8,8,0,0,0,36.92,134q-1.45-1.81-4.7-1.92c-2,.14-3.68,1.49-5.12,4.06"/><path class="cls-1" d="M72.65,128.24a25.52,25.52,0,0,1,14.18-4q5.8,0,9.18,3.3t3.39,9.91v19.81h-9v-2.64a13.11,13.11,0,0,1-7.09,2.64q-6.45,0-9.67-2.81a9.76,9.76,0,0,1-3.22-7.76,12.48,12.48,0,0,1,3-8.25q3-3.64,9.85-3.63a16.16,16.16,0,0,1,7.09,2v-1q-.07-3.64-5.16-4-5.8,0-9,2Zm17.72,19.15v-3.73q-1.29-2.55-6.12-2.55-5.8.66-6.12,4.62.32,3.93,6.12,4.26Q89.08,150,90.37,147.39Z"/><path class="cls-1" d="M134.57,125.26v29.39a17.09,17.09,0,0,1-4,11.59,13.69,13.69,0,0,1-10.15,4.92l-1.93.2q-9.35-.21-14.5-5.48l4.19-5a15.77,15.77,0,0,0,8.61,3c3.44,0,5.76-.82,7-2.47a9,9,0,0,0,1.82-5.45v-1.65a12.84,12.84,0,0,1-8.38,3q-7.42,0-11.12-4.46t-3.71-12q0-7.27,4-11.88t11.44-4.62q5.48.32,7.73,3v-3Zm-9,18.49V138.4q-.64-5.54-6.76-6.5-8.06.3-8.7,8.22.32,9.25,8.7,9.58Q124.9,148.7,125.54,143.75Z"/><path class="cls-1" d="M136,140.78a16.29,16.29,0,0,1,4.52-11.89,15.49,15.49,0,0,1,11.6-4.62q7.09,0,11.27,4.62a17,17,0,0,1,4.2,11.89v3.3H145.35a5.86,5.86,0,0,0,2.25,4.13,7.21,7.21,0,0,0,4.51,1.48,13.13,13.13,0,0,0,8.05-2.64l5.16,5.28q-3.54,5-13.21,5a15.48,15.48,0,0,1-11.6-4.62A16.3,16.3,0,0,1,136,140.78m20.62-7.43a7.6,7.6,0,0,0-9,0,4.92,4.92,0,0,0-1.93,4.13h12.88A4.91,4.91,0,0,0,156.62,133.35Z"/><path class="cls-1" d="M180.4,136.29v21h-9V125.23l9-1v3a11.07,11.07,0,0,1,7.73-3q6.13,0,9.34,3.8a13.12,13.12,0,0,1,3.22,8.75v20.47h-9V139.13a7.46,7.46,0,0,0-1.61-5.12,6.49,6.49,0,0,0-4.87-1.92q-2.8.21-4.8,4.2"/><path class="cls-1" d="M219.53,157.29a12,12,0,0,1-8.7-3.13,10.8,10.8,0,0,1-3.22-8.09v-4.29h-4.83v-7.46h4.83v-8.94l9.05-1v9.94h4.84v7.46h-4.84v3a5.11,5.11,0,0,0,1.08,3.71,3.79,3.79,0,0,0,2.79,1.07,15.37,15.37,0,0,0,2.42-.43l1.9,6.64a9.35,9.35,0,0,1-5.32,1.55"/><path class="cls-1" d="M227.64,128.24a25.52,25.52,0,0,1,14.18-4q5.8,0,9.18,3.3t3.39,9.91v19.81h-9v-2.64a13.08,13.08,0,0,1-7.09,2.64q-6.44,0-9.67-2.81a9.76,9.76,0,0,1-3.23-7.76,12.51,12.51,0,0,1,3-8.25q3-3.64,9.84-3.63a16.13,16.13,0,0,1,7.09,2v-1q-.06-3.64-5.15-4-5.8,0-9,2Zm17.72,19.15v-3.73c-.86-1.7-2.9-2.55-6.12-2.55q-5.8.66-6.12,4.62.32,3.93,6.12,4.26C242.47,150,244.5,149.12,245.37,147.39Z"/></g></g></svg>