<svg xmlns="http://www.w3.org/2000/svg" viewBox="0 0 416.29 69.19"><title>Asset 59</title><g id="Layer_2" data-name="Layer 2"><g id="Layer_1-2" data-name="Layer 1"><path d="M14.24,55.65a26.16,26.16,0,0,1-7.86-1.09A32.66,32.66,0,0,1,.6,52.21l1.48-7.07h.35q.74.63,1.92,1.49a17.64,17.64,0,0,0,3,1.71,21.38,21.38,0,0,0,3.78,1.39,17.24,17.24,0,0,0,4.55.58,14.17,14.17,0,0,0,7.77-1.83,6,6,0,0,0,2.81-5.38,3.28,3.28,0,0,0-1.44-2.87,12.25,12.25,0,0,0-4.15-1.63q-1.37-.32-3.29-.7T13.5,37a12.54,12.54,0,0,1-6.08-3.36,7.74,7.74,0,0,1-2-5.36,11.32,11.32,0,0,1,1.2-5.13,14,14,0,0,1,3.55-4.39,17.48,17.48,0,0,1,5.73-3.08,24,24,0,0,1,7.73-1.18,28.71,28.71,0,0,1,7,.88,21.92,21.92,0,0,1,5.71,2.18L35,24.29h-.35q-.56-.46-1.71-1.23A20.71,20.71,0,0,0,30,21.48a21.28,21.28,0,0,0-3.53-1.16,17.7,17.7,0,0,0-4.2-.49,12.55,12.55,0,0,0-7.14,1.85,5.78,5.78,0,0,0-2.74,5,3.75,3.75,0,0,0,1.34,2.94,9.58,9.58,0,0,0,4.08,1.85q1.72.42,3.6.79t3.64.79a12.51,12.51,0,0,1,6.13,3.16,7.46,7.46,0,0,1,2.06,5.38A11.77,11.77,0,0,1,32,46.92a13,13,0,0,1-3.71,4.48,18.46,18.46,0,0,1-6,3.13A26.37,26.37,0,0,1,14.24,55.65Z"/><path d="M103.32,24.12a20.42,20.42,0,0,1-.16,2.46,24,24,0,0,1-.48,2.64L96.78,54.7H90.19l5.17-22.36q.42-1.86.69-3.44a18,18,0,0,0,.26-3A5.83,5.83,0,0,0,95,21.83q-1.34-1.44-5.1-1.44A13.19,13.19,0,0,0,84,21.94a54.15,54.15,0,0,0-6.16,3.62q-.07.88-.23,2t-.37,2L71.45,54.7h-6.6L70,32.34q.45-2.18.74-3.57A14.25,14.25,0,0,0,71,25.95q0-3.2-1.76-4.38a8.44,8.44,0,0,0-4.75-1.18,12.54,12.54,0,0,0-4.72,1.07,44.22,44.22,0,0,0-6.93,3.93L46.08,54.7h-6.6l9.07-39.27h6.6l-1,4.36a45.29,45.29,0,0,1,6.84-4,15.74,15.74,0,0,1,6.63-1.44A11.25,11.25,0,0,1,74.07,16a8,8,0,0,1,3.29,4.68,40.47,40.47,0,0,1,8.33-4.87A19.28,19.28,0,0,1,93,14.34q5.17,0,7.77,2.57A9.67,9.67,0,0,1,103.32,24.12Z"/><path d="M134.47,50.52q-.95.56-2.58,1.6a24.69,24.69,0,0,1-3.32,1.77,23.27,23.27,0,0,1-4,1.35,21.45,21.45,0,0,1-5.1.54,10.68,10.68,0,0,1-7.59-2.72,9.29,9.29,0,0,1-2.92-7.12A14.36,14.36,0,0,1,111,38.06a15.05,15.05,0,0,1,6.1-5.26,32.73,32.73,0,0,1,9.58-2.9,100.29,100.29,0,0,1,12.78-1.11q.22-1,.37-1.7A7.47,7.47,0,0,0,140,25.6a5.06,5.06,0,0,0-.67-2.74,4.77,4.77,0,0,0-1.9-1.69,9,9,0,0,0-2.87-.86,26.11,26.11,0,0,0-3.61-.23,28.3,28.3,0,0,0-6.83,1A51.63,51.63,0,0,0,117.88,23h-.35l1.3-6.61q2-.53,5.87-1.2a43.64,43.64,0,0,1,7.42-.67q7.31,0,11,2.29T146.74,24a13.88,13.88,0,0,1-.16,2q-.16,1.07-.37,2L140.08,54.7h-6.56ZM138.31,34a91.81,91.81,0,0,0-9.62.83,28.78,28.78,0,0,0-6.95,1.78,9.85,9.85,0,0,0-4.33,3.15,8,8,0,0,0-1.48,4.94,4.6,4.6,0,0,0,1.72,3.87q1.72,1.34,5.34,1.34a16.44,16.44,0,0,0,6.52-1.42,34.91,34.91,0,0,0,6.2-3.43Z"/><path d="M172.11,0,159.46,54.7h-6.6L165.5,0Z"/><path d="M191.87,0,179.22,54.7h-6.6L185.26,0Z"/><path d="M231.4,34.59A26.53,26.53,0,0,1,230,43.33a19.1,19.1,0,0,1-3.87,6.7,16.2,16.2,0,0,1-5.47,4A16,16,0,0,1,214,55.48a21.3,21.3,0,0,1-5.54-.67,22.93,22.93,0,0,1-5-2.07V69.19h-6.61V15.43h6.61v4.11a25.67,25.67,0,0,1,5.92-3.71,16.75,16.75,0,0,1,7-1.49,13,13,0,0,1,11.06,5.36Q231.4,25.07,231.4,34.59Zm-6.82.18q0-7.1-2.43-10.62t-7.45-3.52A14.5,14.5,0,0,0,209,21.87a26,26,0,0,0-5.52,3.23V47.36a26.29,26.29,0,0,0,4.83,1.72,20.89,20.89,0,0,0,4.59.46,10.58,10.58,0,0,0,8.61-3.73Q224.58,42.08,224.58,34.77Z"/><path d="M275.17,35.09q0,9.6-4.92,15.15t-13.18,5.55q-8.33,0-13.24-5.55t-4.9-15.15q0-9.6,4.9-15.17t13.24-5.57q8.26,0,13.18,5.57T275.17,35.09Zm-6.82,0q0-7.63-3-11.34a11.19,11.19,0,0,0-16.65,0q-3,3.71-3,11.34,0,7.38,3,11.2a11,11,0,0,0,16.61,0Q268.35,42.54,268.35,35.09Z"/><path d="M305.79,54.35a36,36,0,0,1-4.06.81,27.83,27.83,0,0,1-3.92.32q-6,0-9.14-3.23t-3.13-10.37V21h-4.46V15.43h4.46V4.15h6.61V15.43h13.64V21H292.15V38.88q0,3.09.14,4.83a7.89,7.89,0,0,0,1,3.25A4.74,4.74,0,0,0,295.4,49a10,10,0,0,0,4.13.65,13,13,0,0,0,3.38-.47,23.86,23.86,0,0,0,2.53-.79h.35Z"/><path d="M320.87,8.86h-7.45V2h7.45Zm-.42,45.84h-6.61V15.43h6.61Z"/><path d="M367,35.09q0,9.6-4.92,15.15t-13.18,5.55q-8.33,0-13.24-5.55t-4.9-15.15q0-9.6,4.9-15.17t13.24-5.57q8.26,0,13.18,5.57T367,35.09Zm-6.82,0q0-7.63-3-11.34a11.19,11.19,0,0,0-16.65,0q-3,3.71-3,11.34,0,7.38,3,11.2a11,11,0,0,0,16.61,0Q360.18,42.54,360.18,35.09Z"/><path d="M410.06,54.7h-6.61V32.34a38.49,38.49,0,0,0-.32-5.08A9.29,9.29,0,0,0,402,23.55a5.35,5.35,0,0,0-2.53-2.2,10.84,10.84,0,0,0-4.29-.72A13.72,13.72,0,0,0,389.5,22a28.86,28.86,0,0,0-5.66,3.41V54.7h-6.61V15.43h6.61v4.36a26.88,26.88,0,0,1,6.4-4A16.81,16.81,0,0,1,397,14.34q6.36,0,9.7,3.83t3.34,11Z"/><path d="M0,37.19V33H190.34v4.22Z"/><path d="M190.34,37.19V33H416.29v4.22Z"/></g></g></svg>