<svg xmlns="http://www.w3.org/2000/svg" viewBox="0 0 279 83.66"><title>Asset 133</title><g id="Layer_2" data-name="Layer 2"><g id="Main"><path d="M124.52,44.32l.53.24a16.78,16.78,0,0,1,10.46,13.6,24.94,24.94,0,0,1-1.16,12.46,17.68,17.68,0,0,1-10.23,10.51,31.22,31.22,0,0,1-8.48,2.16,57,57,0,0,1-7.13.35H76c-.27,0-.55,0-.82,0a1.33,1.33,0,0,1-1.36-1.34c0-.19,0-.38,0-.58q0-34.63,0-69.27c0-.19,0-.38,0-.57a1.34,1.34,0,0,1,1.31-1.32c.19,0,.38,0,.57,0H111a25,25,0,0,1,10.24,2c5.61,2.48,9.34,6.61,10.72,12.65a18.9,18.9,0,0,1-.89,11.69,14.11,14.11,0,0,1-6.07,7c-.14.08-.27.18-.41.27S124.58,44.2,124.52,44.32ZM100,73.15h2.14c3.37,0,6.73,0,10.1-.15a16.9,16.9,0,0,0,6.45-1.43,8.12,8.12,0,0,0,4.77-5.8,16.71,16.71,0,0,0,.11-7.09,8.36,8.36,0,0,0-5.64-6.6,16.23,16.23,0,0,0-1.56-.49,30.37,30.37,0,0,0-7.65-.79q-10.39,0-20.78,0c-.19,0-.38,0-.57,0a1.51,1.51,0,0,0-1.55,1.57c0,.16,0,.33,0,.49q0,9.11,0,18.23c0,.16,0,.33,0,.49a1.5,1.5,0,0,0,1.56,1.56c.22,0,.44,0,.66,0ZM98.67,40.3h0c3.56,0,7.12,0,10.67,0A15.05,15.05,0,0,0,115.57,39a7.85,7.85,0,0,0,4.59-5.54,12,12,0,0,0,.05-5.37,7.89,7.89,0,0,0-4.74-5.8,12.46,12.46,0,0,0-1.22-.47,17.73,17.73,0,0,0-5.5-.79H87.48a1.51,1.51,0,0,0-1.71,1.64c0,.16,0,.33,0,.49q0,7.51,0,15a5.45,5.45,0,0,0,0,.82,1.42,1.42,0,0,0,1.38,1.28c.24,0,.49,0,.74,0Z"/><path d="M50.71,44.26c1.08.57,2.16,1,3.15,1.67a16.43,16.43,0,0,1,7.61,11A25,25,0,0,1,60.4,71a17.54,17.54,0,0,1-9.75,10,30.77,30.77,0,0,1-8.86,2.32,57.51,57.51,0,0,1-7.13.34H2.12c-.27,0-.55,0-.82,0A1.22,1.22,0,0,1,0,82.34c0-.22,0-.44,0-.66Q0,47.09,0,12.5c0-1.76.7-2,2-2q17.62,0,35.25,0a25.37,25.37,0,0,1,9.4,1.66A17.82,17.82,0,0,1,57.34,22.56a19,19,0,0,1,0,14,14,14,0,0,1-6.21,7.3,4.39,4.39,0,0,0-.4.28S50.72,44.23,50.71,44.26ZM26.08,73.15c2.76,0,5.53,0,8.29,0,1.89,0,3.77-.14,5.65-.31a14.51,14.51,0,0,0,4.89-1.31,8,8,0,0,0,4.56-5.4,16.1,16.1,0,0,0,.06-8,8.06,8.06,0,0,0-4.86-5.73,16,16,0,0,0-2.25-.77,28.48,28.48,0,0,0-7.33-.78c-7.06,0-14.12,0-21.19,0a4.64,4.64,0,0,0-.66,0,1.46,1.46,0,0,0-1.33,1.43c0,.19,0,.38,0,.57q0,9.16,0,18.31c0,.19,0,.38,0,.57a1.46,1.46,0,0,0,1.34,1.42,6.42,6.42,0,0,0,.82,0ZM24.84,40.3H34c1.15-.05,2.3-.06,3.44-.17a12.52,12.52,0,0,0,4.85-1.42,7.81,7.81,0,0,0,4-5.17,11.91,11.91,0,0,0,.3-3.91,8.34,8.34,0,0,0-6.28-7.84A17.38,17.38,0,0,0,35.08,21q-10.63,0-21.27,0c-1.37,0-1.87.51-1.87,1.89q0,7.72,0,15.44c0,1.48.47,1.94,2,1.94Z"/><path d="M143.44,10.55c1.75,0,3.51,0,5.26,0a1.9,1.9,0,0,1,1.94,1.19q6.78,13,13.61,26l9.88,18.83c.1.19.2.39.31.58a1.47,1.47,0,0,0,2.53,0,7.09,7.09,0,0,0,.35-.65L200.66,12c.13-.24.25-.49.39-.72a1.32,1.32,0,0,1,1.14-.68h11a5.55,5.55,0,0,1,.74,0,1,1,0,0,1,.82,1.31,4.7,4.7,0,0,1-.32.66L177.16,82.46c-.08.14-.15.29-.23.43a1.33,1.33,0,0,1-2.4,0c-.1-.16-.19-.33-.28-.5L137,12.58a6.34,6.34,0,0,1-.3-.58,1,1,0,0,1,.9-1.44c.19,0,.38,0,.57,0Z"/><path d="M207.53,73c-1.7,0-3.4-.06-5.09,0s-2-.76-1.27-2.09q14.18-26.5,28.3-53l8.85-16.59.15-.29c.29-.58.61-1.05,1.4-1.06s1.14.51,1.45,1.1l2.51,4.71,34.7,65.07a7.34,7.34,0,0,1,.37.73,1,1,0,0,1-.79,1.4,4.46,4.46,0,0,1-.74,0c-3.45,0-6.9,0-10.35,0a2.1,2.1,0,0,1-2.12-1.3q-11.66-22.3-23.37-44.58c-.11-.22-.22-.44-.35-.65a1.47,1.47,0,0,0-2.57,0c-.12.18-.21.38-.31.58L215,71.52a4.58,4.58,0,0,0-.23.44,1.69,1.69,0,0,1-1.82,1.1c-1.29,0-2.57,0-3.86,0Z"/></g></g></svg>