<svg xmlns="http://www.w3.org/2000/svg" viewBox="0 0 371.06 118.22"><defs><style>.cls-1,.cls-2{fill:#231f20;}.cls-2{fill-rule:evenodd;}</style></defs><title>Asset 129</title><g id="Layer_2" data-name="Layer 2"><g id="Main"><path class="cls-1" d="M107.44,71.67h4.47V57.56h9.61c8.43,0,15.55-4.45,15.55-13.08v-.12c0-7.88-5.88-12.68-14.81-12.68H107.44Zm.29,23.69H109V84.25h-1.25Zm12.68-2.21-7-8.9h-1.17V95.36h1.22V86.25l7.18,9.11h1V84.25H120.4ZM129,85.41h3.73V84.25H124v1.16h3.73v9.95H129Zm14.1-1.16h-8V95.36h8.1V94.22H136.3V90.33h6.05V89.19H136.3V85.4h6.77Zm10.77,8.9-7-8.9h-1.17V95.36h1.22V86.25l7.17,9.11h1V84.25h-1.22ZM168,89.79a5.55,5.55,0,0,0-.43-2.19,5.2,5.2,0,0,0-1.21-1.77,5.61,5.61,0,0,0-1.87-1.16,6.6,6.6,0,0,0-2.39-.42h-3.86V95.36h3.86a6.59,6.59,0,0,0,2.39-.43,5.83,5.83,0,0,0,1.87-1.17A5.2,5.2,0,0,0,167.54,92,5.58,5.58,0,0,0,168,89.79Zm-1.3,0a4.54,4.54,0,0,1-.32,1.73A4.11,4.11,0,0,1,164,93.87a5.17,5.17,0,0,1-1.9.33h-2.6V85.41h2.6a5,5,0,0,1,1.9.34,4.32,4.32,0,0,1,1.45.93,4.1,4.1,0,0,1,.92,1.41A4.54,4.54,0,0,1,166.66,89.82Zm12-5.57h-8V95.36h8.11V94.22h-6.85V90.33h6.06V89.19h-6.06V85.4h6.77Zm10.77,8.9-7-8.9h-1.17V95.36h1.22V86.25l7.17,9.11h1V84.25h-1.22Zm13.88.44-.83-.81A6.64,6.64,0,0,1,200.85,94a4.25,4.25,0,0,1-2,.42,4.12,4.12,0,0,1-1.7-.35,4.33,4.33,0,0,1-1.36-1,4.52,4.52,0,0,1-.9-1.46,5,5,0,0,1-.33-1.81,4.89,4.89,0,0,1,.33-1.81,4.53,4.53,0,0,1,.9-1.45,4.3,4.3,0,0,1,1.36-1,4.55,4.55,0,0,1,3.67.08,7.52,7.52,0,0,1,1.53,1.1l.86-.92a8.43,8.43,0,0,0-.86-.73,5.11,5.11,0,0,0-1-.55,6,6,0,0,0-1.13-.36,6.94,6.94,0,0,0-1.37-.13,5.47,5.47,0,0,0-2.26.46,5.38,5.38,0,0,0-1.77,1.24,5.67,5.67,0,0,0-1.16,1.83,6.14,6.14,0,0,0,0,4.49,5.44,5.44,0,0,0,5.14,3.47,6.19,6.19,0,0,0,1.39-.14,5.7,5.7,0,0,0,2.16-1A7.48,7.48,0,0,0,203.29,93.59Zm2.3,1.77h1.26V84.25H205.6Zm9.79-11.19h-1.17l-5.06,11.19h1.29l1.31-2.94h6l1.3,2.94h1.35Zm1.92,7.12h-5.06l2.54-5.66Zm19.85-1.5a5.57,5.57,0,0,0-.43-2.19,5.2,5.2,0,0,0-1.22-1.77,5.64,5.64,0,0,0-1.87-1.16,6.62,6.62,0,0,0-2.39-.42h-3.85V95.36h3.85a6.61,6.61,0,0,0,2.39-.43,5.86,5.86,0,0,0,1.87-1.17A5.19,5.19,0,0,0,236.72,92,5.59,5.59,0,0,0,237.15,89.79Zm-1.3,0a4.63,4.63,0,0,1-.32,1.73,4.16,4.16,0,0,1-.92,1.39,4.21,4.21,0,0,1-1.45.93,5.21,5.21,0,0,1-1.91.33h-2.6V85.41h2.6a5.06,5.06,0,0,1,1.91.34,4.33,4.33,0,0,1,1.45.93,4.09,4.09,0,0,1,.92,1.41A4.63,4.63,0,0,1,235.85,89.82Zm12-5.57h-8V95.36h8.11V94.22H241V90.33h6.06V89.19H241V85.4h6.77Zm10.92,3.54a3.64,3.64,0,0,0-.29-1.49,3,3,0,0,0-.84-1.11,4,4,0,0,0-1.31-.71,5.81,5.81,0,0,0-1.71-.25h-4.16V95.36h1.25V91.44h2.7a5.85,5.85,0,0,0,1.68-.23,4.08,4.08,0,0,0,1.39-.69,3.32,3.32,0,0,0,.95-1.14A3.43,3.43,0,0,0,258.74,87.79Zm-1.27,0a2.38,2.38,0,0,1-.21,1,2.12,2.12,0,0,1-.62.78,3,3,0,0,1-1,.5,4.12,4.12,0,0,1-1.24.17h-2.75V85.41h2.81a3.51,3.51,0,0,1,2.16.61A2.12,2.12,0,0,1,257.47,87.84Zm7.73-3.67H264L259,95.36h1.28l1.32-2.94h6l1.3,2.94h1.35Zm1.92,7.12h-5.06l2.54-5.66Zm14.52,4.07-3.41-4.54a4.45,4.45,0,0,0,1.21-.39,3.39,3.39,0,0,0,1-.67,2.93,2.93,0,0,0,.63-.95,3.39,3.39,0,0,0,.22-1.25,3.13,3.13,0,0,0-.28-1.35,3.06,3.06,0,0,0-.81-1.05,3.77,3.77,0,0,0-1.26-.67,5.52,5.52,0,0,0-1.67-.25h-4.77V95.36h1.25V91h3.17l3.22,4.32ZM280,87.61a2.18,2.18,0,0,1-.22,1,2.07,2.07,0,0,1-.59.72,2.79,2.79,0,0,1-.91.45,4.09,4.09,0,0,1-1.14.16H273.7v-4.5h3.43a3.35,3.35,0,0,1,2.1.58A2,2,0,0,1,280,87.61Zm8-2.2h3.72V84.25H283v1.16h3.73v9.95H288Zm9.93-1.24h-1.17l-5.06,11.19H293l1.31-2.94h6l1.3,2.94H303Zm1.92,7.12H294.8l2.54-5.66Zm14.7-4.93v9h1.26V84.25h-1.27l-4,6.06-4-6.06h-1.27V95.36h1.22v-9l4,5.94h.06ZM327,84.25h-8V95.36h8.1V94.22h-6.86V90.33h6.07V89.19h-6.07V85.4H327Zm10.77,8.9-7-8.9h-1.17V95.36h1.23V86.25L338,95.36h1V84.25h-1.23Zm8.57-7.74h3.73V84.25h-8.73v1.16h3.73v9.95h1.27Zm9.93-1.24h-1.17L350,95.36h1.29l1.31-2.94h6l1.3,2.94h1.35Zm1.92,7.12h-5.06l2.54-5.66Zm5.33,4.07H371V94.2h-6.25V84.25h-1.25ZM111.9,53.45V35.86h10c6.39,0,10.63,3,10.63,8.68v.12c0,5.25-4.3,8.79-10.86,8.79Zm42.16,18.86a12.77,12.77,0,0,0,10.57-5.09v4.46h4.19v-18c0-3.77-1-6.63-3-8.62-2.15-2.17-5.32-3.26-9.45-3.26a23.93,23.93,0,0,0-10.63,2.46l1.31,3.59a20.24,20.24,0,0,1,8.87-2.17c5.48,0,8.7,2.74,8.7,8.05v1a30.7,30.7,0,0,0-9-1.26c-7.4,0-12.49,3.31-12.49,9.54v.11C143.14,69.16,148.63,72.31,154.06,72.31Zm.84-3.49c-4,0-7.35-2.17-7.35-5.88v-.11c0-3.71,3.06-6.11,8.54-6.11a30.35,30.35,0,0,1,8.6,1.25v2.86C164.69,65.5,160.28,68.81,154.9,68.81Zm34.91-2.06L179.19,42.14h-4.81l13.29,29.41c-1.76,4.18-3.4,5.55-6,5.55A9.09,9.09,0,0,1,177.1,76l-1.47,3.49A13.24,13.24,0,0,0,181.85,81c4.41,0,7.24-2.23,9.73-8.34l12.27-30.51h-4.63Zm29.83,5.49c5.82,0,10.41-3.27,10.41-8.86v-.11c0-5.32-4.87-7.09-9.38-8.46-3.91-1.2-7.52-2.28-7.52-5.08v-.12c0-2.45,2.2-4.28,5.65-4.28a16.38,16.38,0,0,1,8.65,2.86l2-3.32a19.83,19.83,0,0,0-10.52-3.25c-5.76,0-9.95,3.37-9.95,8.45v.11c0,5.43,5.09,7,9.67,8.34,3.85,1.09,7.29,2.23,7.29,5.2v.11c0,2.86-2.55,4.68-6,4.68a16.94,16.94,0,0,1-10.12-3.77l-2.21,3.15A20,20,0,0,0,219.65,72.25Zm28,.06a12.78,12.78,0,0,0,10.58-5.09v4.46h4.18v-18c0-3.77-1-6.63-3-8.62-2.15-2.17-5.32-3.26-9.45-3.26a23.9,23.9,0,0,0-10.62,2.46l1.3,3.59a20.22,20.22,0,0,1,8.87-2.17c5.48,0,8.71,2.74,8.71,8.05v1a30.77,30.77,0,0,0-9-1.26c-7.4,0-12.5,3.31-12.5,9.54v.11C236.73,69.16,242.22,72.31,247.64,72.31Zm.85-3.49c-4,0-7.36-2.17-7.36-5.88v-.11c0-3.71,3.06-6.11,8.54-6.11a30.31,30.31,0,0,1,8.6,1.25v2.86C258.27,65.5,253.86,68.81,248.49,68.81Zm23.76,2.86h4.35V54.76c0-5.54,3.73-9.26,8.76-9.26s8.08,3.43,8.08,8.91V71.67h4.36V53.34c0-7-4.13-11.83-11.19-11.83a11,11,0,0,0-10,5.77V42.14h-4.35Zm47.9.64c5.37,0,8.82-3,11.2-6.58v5.94h4.35V30h-4.35V47.79c-2.26-3.31-5.76-6.28-11.2-6.28-7,0-14,5.72-14,15.36V57C306.19,66.7,313.15,72.31,320.16,72.31Zm.79-4c-5.48,0-10.28-4.46-10.28-11.42v-.11c0-7.14,4.63-11.36,10.28-11.36,5.43,0,10.58,4.57,10.58,11.36v.11C331.52,63.73,326.37,68.35,320.94,68.35Zm35.58-30.67h3.39l6.45-6.16-4.52-2.11Zm.23,34.62a11.12,11.12,0,0,0,10-5.77v5.14h4.3V42.14h-4.3V59c0,5.54-3.78,9.25-8.76,9.25-5.15,0-8.08-3.43-8.08-8.91V42.14h-4.35V60.47C345.56,67.5,349.69,72.31,356.76,72.31Z"/><path class="cls-2" d="M86.53,25.05c-2.73,4.62-4.08,10.87-.11,15.54,3.52-4,2.45-10.5.11-15.54M59.62,45.67V54h.24a21.77,21.77,0,0,1,1.54-7.63l0,0c-.39-.24-.65-.62-.48-1l0,0,.93-3.78a.21.21,0,0,1,.26-.16.21.21,0,0,1,.15.26l-.6,2.44.29-.4.83-3.38a.21.21,0,0,1,.25-.16.22.22,0,0,1,.16.26l-.59,2.39a9.35,9.35,0,0,0,.7-1.11.46.46,0,0,1,.32-.26l.77-1.76a.23.23,0,0,1,.29-.11.22.22,0,0,1,.11.28L64,41.62a.48.48,0,0,1,0,.32c-.11.35-.21.71-.29,1.08l1.18-1.94a.21.21,0,0,1,.29-.07.22.22,0,0,1,.08.29l-1.79,2.94c0,.19-.08.38-.12.55l1.33-2.18a.21.21,0,0,1,.36.22l-.55.91a.27.27,0,0,1,0,.12L63.35,46.1l.37-.33,1.56-3.12a.22.22,0,0,1,.28-.09.21.21,0,0,1,.09.28l-1.1,2.2a8,8,0,0,0,.93-.93.43.43,0,0,1,.37-.18L67,42.39a.21.21,0,0,1,.34.26l-1.18,1.58a.44.44,0,0,1-.08.31c-.19.32-.35.65-.52,1l1.58-1.64a.21.21,0,0,1,.3,0,.22.22,0,0,1,0,.3l-2.39,2.48-.24.5,1.78-1.84a.21.21,0,0,1,.29,0,.21.21,0,0,1,0,.29L65.55,47a.18.18,0,0,1,0,.24l-1.41,1.49.37-.16,1.93-2.07a.18.18,0,0,1,.24,0,.17.17,0,0,1,0,.24l-1.38,1.46a7.86,7.86,0,0,0,.95-.51.37.37,0,0,1,.33-.06l1.26-.93a.17.17,0,0,1,.24,0,.18.18,0,0,1,0,.24l-1.29,1a.43.43,0,0,1-.13.22c-.22.2-.43.42-.63.65l1.61-.9a.17.17,0,1,1,.16.3l-2.44,1.37L65,50l1.81-1a.17.17,0,1,1,.17.3l-2.8,1.57a.16.16,0,0,1-.15,0,.69.69,0,0,1-.7-.17A17.4,17.4,0,0,0,62.09,54h.45a.73.73,0,0,1,.71.58l6.25,0-.09-18.21H48.68v17.8c.18.08.35.26.55.26l6.58,0a.74.74,0,0,1,.7-.53h.12a18.33,18.33,0,0,0-1.27-3.37.7.7,0,0,1-.7.17.17.17,0,0,1-.16,0l-2.8-1.57a.18.18,0,0,1-.06-.24.17.17,0,0,1,.24-.06l1.82,1-.3-.34-2.45-1.37a.17.17,0,1,1,.18-.3l1.61.9c-.2-.23-.42-.45-.63-.65A.35.35,0,0,1,52,48l-1.3-1a.17.17,0,0,1,0-.24.17.17,0,0,1,.24,0l1.25.93a.37.37,0,0,1,.33.06,8.23,8.23,0,0,0,.94.51L52,46.77a.17.17,0,0,1,0-.24.18.18,0,0,1,.24,0L54.2,48.6l.36.16-1.41-1.49a.18.18,0,0,1,0-.24h0l-1.35-1.4a.2.2,0,0,1,0-.29.22.22,0,0,1,.3,0l1.78,1.84c-.09-.16-.16-.33-.24-.5l-2.4-2.48a.22.22,0,0,1,0-.3.21.21,0,0,1,.3,0l1.57,1.64a10.46,10.46,0,0,0-.52-1,.51.51,0,0,1-.08-.31l-1.18-1.58a.21.21,0,0,1,.34-.26l1.14,1.55a.45.45,0,0,1,.37.18,7.58,7.58,0,0,0,.93.93l-1.1-2.2a.21.21,0,0,1,.09-.28.22.22,0,0,1,.29.09L55,45.77l.37.33-1.13-2.25a.2.2,0,0,1,0-.12l-.55-.91a.21.21,0,0,1,.06-.29.22.22,0,0,1,.29.07l1.33,2.18c0-.18-.08-.36-.12-.55L53.44,41.3a.21.21,0,0,1,.07-.29.22.22,0,0,1,.29.07L55,43a9.24,9.24,0,0,0-.28-1.08.52.52,0,0,1,0-.32l-.8-1.81a.21.21,0,0,1,.11-.28.21.21,0,0,1,.28.11l.79,1.76a.48.48,0,0,1,.32.26,9.6,9.6,0,0,0,.7,1.11l-.59-2.39a.21.21,0,0,1,.15-.26.22.22,0,0,1,.26.16l.83,3.38.29.4-.6-2.44a.22.22,0,0,1,.15-.26.21.21,0,0,1,.26.16l.93,3.78v0c.18.39-.08.77-.47,1l0,0A22,22,0,0,1,58.86,54h.33V45.64a.87.87,0,0,1-.75-.56.23.23,0,0,1-.11-.15l-.6-3.9a.21.21,0,0,1,.18-.25.22.22,0,0,1,.24.18l.39,2.52.1-.55-.53-3.4a.21.21,0,1,1,.42-.06l.34,2.25a8.4,8.4,0,0,0,.15-1.1.5.5,0,0,1,.11-.3l0-2a.21.21,0,0,1,.2-.22.21.21,0,0,1,.22.21l0,1.92a.46.46,0,0,1,.2.36A8,8,0,0,0,60,41.9l.37-2.43a.23.23,0,0,1,.24-.18.22.22,0,0,1,.18.25L60.25,43c0,.16.08.32.11.49L60.74,41a.21.21,0,1,1,.42.07l-.59,3.84v0C60.58,45.36,60.12,45.63,59.62,45.67Zm3.64,9.79v.43a.73.73,0,0,1-.72.73h-.73c.11,1.94,1,3.32,1.72,5.1.15.38-.42.58-.58.19a16.1,16.1,0,0,1-1.6-5.3H61c.13,1.89.61,3.69.91,5.91.05.4-.53.6-.58.19-.3-2.3-.67-4.24-.78-6.11h-.26c.05,2.26.28,4.4.33,6.41A.31.31,0,0,1,60,63c0-2.12-.14-4.27-.16-6.41h-.2V63a.21.21,0,0,1-.21.21.22.22,0,0,1-.22-.21V56.62H58.9c0,2.14-.15,4.28-.16,6.41a.31.31,0,0,1-.62,0c.06-2,.28-4.14.33-6.41h-.26c-.11,1.87-.48,3.81-.78,6.11-.05.41-.63.21-.57-.19.3-2.22.77-4,.91-5.91h-.39a16,16,0,0,1-1.6,5.3c-.15.38-.73.19-.57-.19.72-1.78,1.61-3.16,1.72-5.1h-.4a.73.73,0,0,1-.73-.73v-.43ZM57.17,54h.51A16.84,16.84,0,0,0,56,48.68a.34.34,0,0,1,0-.26,1.16,1.16,0,0,1-1,.22l.67.72h0a.65.65,0,0,1,.08.87A12.92,12.92,0,0,1,57.17,54Zm1,0h.27a23.68,23.68,0,0,0-1.53-7.5,1.06,1.06,0,0,1-.92-.1l.38.74,0,0a.83.83,0,0,1-.25,1.09.25.25,0,0,1,.22.15A15,15,0,0,1,58.16,54Zm2.13,0h.28a14.69,14.69,0,0,1,1.81-5.59.26.26,0,0,1,.22-.15.82.82,0,0,1-.25-1.09v0l.38-.74a1.07,1.07,0,0,1-.92.1A23.62,23.62,0,0,0,60.29,54ZM61,54h.52A13.22,13.22,0,0,1,63,50.24a.66.66,0,0,1,.08-.87h0l.67-.72a1.16,1.16,0,0,1-1-.22.33.33,0,0,1,0,.26A17,17,0,0,0,61,54ZM39,58.51l-.11-3.16H43.3l.13.07A6.74,6.74,0,0,1,39,58.51Zm-.13-3.9-.28-8.09h.65V44.89h-.7l0-1.13a2.33,2.33,0,1,0-1.72-.11l0,1.24H36v1.63h.67l-.13,8.11-3.82,0L30,51.74l0,2.92H26.78l0-18.24H47.62l-.09,18.15h-2l0-2.92-2.8,2.93Zm-2.28.74L36.5,58.5a6.66,6.66,0,0,1-4.41-3l.26-.12Zm-6.56,0v1.13l.89-.43a8.08,8.08,0,0,0,4.79,4A3.83,3.83,0,0,1,38,61.91,3.45,3.45,0,0,1,40,60h0a8.08,8.08,0,0,0,4.63-4l.89.43V55.34h2.09v9.14H26.79V55.36Zm7.74-14.88a1.07,1.07,0,0,1,1.08,1.07,1.07,1.07,0,1,1-2.14,0A1.06,1.06,0,0,1,37.74,40.47ZM18,27.08h7.59a3.57,3.57,0,0,0-3-.66c.63-1.58,1.37-2.56,3.33-2.16,2.83.57,5.41.7,5.69-.63L23,17.95c4.06.82,8,1.74,12,2.63l-.53-.29c-2.28-1.3-4.37-3.13-4.76-5-.28-1.32.49-3.22-2.17-4.71,1.47-.88,2.64-1.2,4,.3,1.89,2.17,3.87,3.84,4.9,3C35.28,10.6,34.13,7.35,33,4.1c2.67,3,5.41,6.26,8.13,9.45-.94-2-1.46-4-.95-5.54.43-1.28,2.05-2.52.53-5.16,1.7,0,2.89.3,3.26,2.28.54,2.83,1.39,5.27,2.72,5q1-5.07,2-10.14c.81,4.29,1.47,8.87,2.18,13.36V13.3c0-2.62.62-5.33,2.05-6.58,1-.89,3-1.13,3.07-4.18,1.48.86,2.34,1.73,1.66,3.6-1,2.72-1.48,5.26-.21,5.73L64.3,4.15C62.79,8.35,60.68,13,58.77,17.48c1.48-2.09,3.44-3.91,5.28-4.12,1.34-.16,3.16.78,4.9-1.73.73,1.54,1,2.75-.67,3.92-2.34,1.69-4.18,3.5-3.39,4.61l10-2.52c-3.42,2.49-7,5-10.62,7.56a7.17,7.17,0,0,1,4.73.16c1.2.63,2.17,2.42,5,1.33,0,.13,0,.26-.06.38h4.66V42.32A21,21,0,0,1,84,47.83a1.06,1.06,0,0,1,.62-.21,1,1,0,0,1,1,1,1,1,0,0,1-.67,1,10.86,10.86,0,0,1,.77,2.56,10.67,10.67,0,0,1,1.81-3.25.94.94,0,0,1-.25,0,1,1,0,1,1,1-1,1.12,1.12,0,0,1,0,.14,17.58,17.58,0,0,1,7.6-4.3C94.23,48.88,90.77,54.14,85.73,55V55l-.09,0L85.2,55c0-.08,0-.14,0-.21a11.29,11.29,0,0,1-6.58-7.44v3.79A21.26,21.26,0,0,1,84.3,57a1,1,0,1,1,.94,1.44h-.16a12,12,0,0,1,.69,1.91c1.75-3.92,5.81-6.38,9.83-7.54C94,57.72,90.7,62.78,86,63.88c0,0,0,.1,0,.15l-.26-.09c-.26.05-.52.08-.78.11l0-.42a11.64,11.64,0,0,1-6.29-7.92V66.6c3.64,3.06,6.5,7.24,5.74,11.63-.31-.1-.59-.2-.87-.33a1,1,0,0,1,.36.78,1,1,0,0,1-2.07,0,1,1,0,0,1,1-1H83a10.52,10.52,0,0,1-4.35-4.07v10c0,.14,0,.27,0,.41.13-.3.26-.6.4-.9L79,75a21,21,0,0,1,3.35,5.47A1,1,0,0,1,84.06,80c.82-5.49,5.75-8.8,10.61-10.2C93,75,89.46,80.26,84.35,81a1,1,0,0,1-1.6.6,11.42,11.42,0,0,1,.53,3.05c2.17-4.8,7.52-6.81,12.39-7.09a20.66,20.66,0,0,1-6.94,7.24,18.14,18.14,0,0,1,7.7-.63c-3.65,4.17-9.14,7.76-14.24,6.17a10.3,10.3,0,0,1,4.24-4.53,8.91,8.91,0,0,1-3.23.39,8.64,8.64,0,0,1-.54,2,10.78,10.78,0,0,1-1.35-.94,14.6,14.6,0,0,1,.46,7.42c3-4.32,8.58-5.34,13.42-4.75-2.42,2.75-5.64,5.26-9,6.18A19.26,19.26,0,0,1,92.09,96c-3.48,4-8.59,7.39-13.47,6.37a1,1,0,0,1,.26.69,1,1,0,0,1-2.07,0,.94.94,0,0,1,0-.26,8.63,8.63,0,0,1-1.43-2.23,12.72,12.72,0,0,1-2.62,5.6,10.09,10.09,0,0,1,3-.7v0a1,1,0,1,1,2.06,0v.05a17,17,0,0,1,8.72,4,21,21,0,0,1-9.65.63,20.64,20.64,0,0,1,2.29,1.66c-5.28,1.5-11.76,1.55-15.22-2.43a7.75,7.75,0,0,1-1.23.42,11.22,11.22,0,0,1,4.1-9.59,26,26,0,0,0,2.69-1.29l-.15.08c-3.39,2-6.22,5.27-5.78,9.63l.09,0,7.11-10.29v0c-.32.15-.65.31-1,.48.46-.26.91-.54,1.34-.83a29.85,29.85,0,0,1-5.14,2.4c-5.58,2.05-14.72,1.92-17.15,5.6-1.86-4-12-3.9-17.67-5.95-.43-.15-.84-.31-1.25-.48A11.21,11.21,0,0,1,34.09,109a8.26,8.26,0,0,1-1.23-.41c-3.46,4-9.93,3.93-15.21,2.43a20.57,20.57,0,0,1,2.29-1.65,21.08,21.08,0,0,1-9.65-.63,16.85,16.85,0,0,1,8.72-4v-.05a1,1,0,1,1,2.07,0v0a10,10,0,0,1,3,.7,12.73,12.73,0,0,1-2.62-5.59A8.64,8.64,0,0,1,20,102.07a1.32,1.32,0,0,1,0,.26,1,1,0,1,1-1.8-.69c-4.88,1-10-2.42-13.47-6.38a19.28,19.28,0,0,1,5.91.18c-3.39-.93-6.6-3.43-9-6.19,4.84-.58,10.44.44,13.42,4.75a14.59,14.59,0,0,1,.46-7.42,10.92,10.92,0,0,1-1.36.95,8.41,8.41,0,0,1-.54-2.05,8.69,8.69,0,0,1-3.23-.39,10.3,10.3,0,0,1,4.25,4.53c-5.11,1.59-10.6-2-14.26-6.17a18,18,0,0,1,7.7.63,20.75,20.75,0,0,1-6.94-7.24c4.88.29,10.23,2.28,12.4,7.09a11.36,11.36,0,0,1,.53-3,1,1,0,0,1-.6.19,1,1,0,0,1-1-.79c-5.11-.75-8.62-6.06-10.32-11.2C7.05,70.5,12,73.81,12.8,79.29a1.07,1.07,0,0,1,.71-.29,1,1,0,0,1,1,.75,21,21,0,0,1,3.34-5.47l0,8.12h0l0-9a10.4,10.4,0,0,1-4,3.51H14A1,1,0,1,1,14,79a1,1,0,0,1-1-1,1.07,1.07,0,0,1,.36-.79,8.46,8.46,0,0,1-.88.33c-.73-4.25,1.92-8.31,5.4-11.34l0-10.17a11.3,11.3,0,0,1-6,6.91l0,.42c-.27,0-.53-.06-.78-.11l-.26.09c0-.05,0-.1,0-.15-4.74-1.1-8-6.17-9.64-11.07,4,1.16,8.08,3.63,9.83,7.54a10.42,10.42,0,0,1,.69-1.91h-.17a1,1,0,1,1,.95-1.45,21,21,0,0,1,5.36-5.59V47.48a11,11,0,0,1-6.29,6.63c0,.07,0,.14,0,.21l-.43-.05-.09,0v0c-5-.83-8.5-6.09-10.19-11.18a17.51,17.51,0,0,1,7.6,4.29.9.9,0,0,1,0-.13,1,1,0,1,1,1,1,.91.91,0,0,1-.25,0,10.68,10.68,0,0,1,1.81,3.25,10.36,10.36,0,0,1,.77-2.56,1,1,0,0,1,.36-2,1,1,0,0,1,.61.2A21,21,0,0,1,18,41.8ZM78.63,43.2,78.5,43l0,0Zm-.18,0h0c0,.06,0,.12,0,.18v.46a1.67,1.67,0,0,1,0,.17v.26h0v.94c.54,3.68,2.42,7.29,6.36,8.58a.28.28,0,0,0,0-.09L78.63,43.2Zm.18,25.49-1.48-2.43,0,0Zm-1.52-2.25h0c0,.06,0,.13,0,.19h0v0c0,.06,0,.12,0,.18h0c0,.06,0,.12,0,.19h0Zm0,.82h0a1.73,1.73,0,0,1,0,.18v0h0v0Zm.06.62h0a1.52,1.52,0,0,0,0,.2h0Zm0,.42h0c0,.07,0,.13,0,.19h0c0,.06,0,.13,0,.19v0h0l0,.19h0c0,.06,0,.12,0,.18v0a1.34,1.34,0,0,0,0,.16v0h0c0,.05,0,.11,0,.17v0a1.09,1.09,0,0,1,0,.15l0,.06,0,.13,0,.09,0,.13,0,0,0,.14,0,.08,0,.13v.05a1.15,1.15,0,0,1,0,.14l0,.06s0,.09,0,.14l0,.06a.88.88,0,0,1,.05.14l0,.06,0,.13,0,.08,0,.11,0,.1,0,.1,0,.06a1.19,1.19,0,0,1,.06.14l0,.05.06.13,0,.05.06.13,0,.07.05.11,0,.09.05.1,0,0a8.65,8.65,0,0,0,5,4.34l0-.1-5-8.24ZM78.53,86h0l0,.05-.05.15v0l-.05.16v0a1.12,1.12,0,0,0-.05.17l0,.06,0,.13,0,.07,0,.13,0,.06a1.05,1.05,0,0,1,0,.14v.07l0,.12,0,.09,0,.12,0,.09,0,.11,0,.11v.08l0,.12h0l0,.06v0l0,.11h0v.08l0,.11v.13l0,.11v.08h0l0,.12v.06a1.74,1.74,0,0,0,0,.19h0c0,.12,0,.26,0,.38v.06c0,.13,0,.25,0,.38a8.79,8.79,0,0,0,2.43,6.65l.06-.08L79.4,84.18a8.52,8.52,0,0,0,2.82,2.69l0-.09L79,77.42v6.13c.09.18.19.35.3.53A18.18,18.18,0,0,0,78.53,86Zm-1.25,5.21-.11.25c.05.11.1.23.15.35C77.3,91.56,77.29,91.36,77.27,91.16Zm-.72,1.44v-.15c-.24.38-.48.75-.75,1.1h0l0,0h0l0,0h-.11v0h0l0,0h-.14v0h0v0h-.1c0,.12,0,.25-.06.38-3.3,2.8-5.9,7.21-4.13,11.81l.08,0,4-11.32a7.76,7.76,0,0,0,2,6.58l0-.07Zm-4.21,4.52c-.25.18-.5.35-.76.52-.07.36-.15.73-.24,1.09A17.61,17.61,0,0,1,72.34,97.12ZM27.46,98.24h-.14ZM27,98h0a21.34,21.34,0,0,1-2.62-1.76A15.12,15.12,0,0,1,25.52,98c-.09-.38-.17-.75-.24-1.13a21.28,21.28,0,0,0,2,1.24Zm-5.44-4.52h0l0,0,0,0,0,0,0,0,0,0h-.12l0,0,0,0,0,0,0,0h-.14l0,0,0,0h0c-.26-.36-.51-.73-.75-1.1l-.61,9.37a.22.22,0,0,0,0,.07,7.75,7.75,0,0,0,2-6.58l4,11.32.08.05c1.77-4.61-.83-9-4.13-11.82C21.67,93.93,21.62,93.7,21.57,93.47Zm-1.86-2.82-.12-.24c0,.21,0,.42,0,.62Zm-.57-1.24c0-.13,0-.26,0-.39v-.44c0-.12,0-.23,0-.34h0v-.08c0-.05,0-.1,0-.15v0s0-.11,0-.15h0v-.08l0-.13v-.06l0-.13h0l0-.09,0-.09,0-.08h0l0-.14v-.06l0-.12,0-.08h0l0-.12,0-.09,0-.11h0l0-.08h0l0-.1,0-.08,0-.11,0-.11,0-.07,0-.12,0-.08,0-.13,0-.08,0-.11,0-.1,0-.11,0-.08,0-.11,0-.08,0-.11,0-.09v0l0-.08h0l0-.09,0-.09,0-.09c-.13-.3-.26-.6-.42-.89.1-.17.21-.35.31-.53h0v-.13l0-5.74-3.24,9.36,0,.09a8.39,8.39,0,0,0,2.82-2.69l-.82,12.35.07.08A8.73,8.73,0,0,0,19.14,89.41ZM17.86,72.56h0a12.17,12.17,0,0,0,.7-1.33h0c.11-.24.2-.49.29-.74v0c.07-.18.13-.36.19-.54l0-.11,0-.09,0-.06c0-.06,0-.1.05-.16v0c0-.06,0-.12,0-.18v0l0-.11,0-.11,0-.1h0l0-.12,0-.08,0-.11,0-.11,0-.09,0-.08s0-.1,0-.14v-.06l0-.16V67.9s0-.1,0-.15v-.06l0-.14V67.5l0-.15V67.3l0-.17v0c0-.07,0-.12,0-.18v0l0-.18v0l0-.18Zm1.85-6.25v0c0-.06,0-.11,0-.17v0c0-.06,0-.11,0-.18v-.43l0,0-1.84,3L13.2,76.16a.65.65,0,0,0,0,.09,8.56,8.56,0,0,0,4.65-3.7ZM17.92,54.07h0v0l0-.13V53.8l0-.13v0h0c0-.06,0-.12,0-.17v0h0l0-.13v-.09h0V53h0l0-.08v-.82a1.53,1.53,0,0,1,0-.17v0c0-.06,0-.12,0-.18v-.22h0c0-.06,0-.13,0-.19l0,0L11.64,62l0,.1C15.38,60.82,17.27,57.54,17.92,54.07Zm0-8.18,0-.06,0-.11v-.05l0-.06c0-.12.05-.23.07-.34V45.2h0l0-.1V45l0-.11v-.12l0-.09v-.19l0-.11v-.3l0-.13v-.47c0-.06,0-.12,0-.18h0v-.4h0a1.8,1.8,0,0,1,0-.19h0v-.19h0v-.19l0,0L11.85,52.94a.52.52,0,0,0,0,.09C15.29,51.9,17.16,49,17.94,45.89ZM10.33,24.34c2.74,4.61,4.08,10.86.11,15.53C6.93,35.84,8,29.37,10.33,24.34ZM9.25,54.23a1,1,0,1,1-1,1A1,1,0,0,1,9.25,54.23Zm2.6,17.21a1,1,0,1,1-1,1v-.05c-4.82-1-8.14-6.15-9.77-11.1a16.3,16.3,0,0,1,8.72,5.63,1,1,0,0,1,1-.68,1,1,0,0,1,.63.22c.06-.19.13-.36.21-.55h0a1,1,0,0,1,0-2.08,1.06,1.06,0,0,1,.86.46,20.49,20.49,0,0,1,5.51-5.84v5.37a11.18,11.18,0,0,1-6.35,7,5.42,5.42,0,0,1,.11.6A.84.84,0,0,1,11.85,71.44ZM19,101.31h0a9.88,9.88,0,0,1-.69-6.22,10.68,10.68,0,0,1-1.67,2.26,8.73,8.73,0,0,1-1.06-1.81,9.13,9.13,0,0,1-4,.13A10.93,10.93,0,0,1,19,101.31Zm2,.62a1,1,0,1,1-1,1A1,1,0,0,1,21,101.93ZM28,105.14a1,1,0,0,1,1,1,1,1,0,0,1-.46.87,10.44,10.44,0,0,1,2.44.54,13.7,13.7,0,0,1-4.11-5.4,10.09,10.09,0,0,1-.49,4.87c.32,0,.64-.05,1-.06a1,1,0,0,1-.4-.82A1,1,0,0,1,28,105.14Zm9.53,3.94A1,1,0,1,1,36.38,108a23.73,23.73,0,0,1-3.84-5.59c5.32.73,11,3.57,12.23,9.58a8.73,8.73,0,0,1-3.17-.46l.4.23a8.58,8.58,0,0,1-1.6,1.47,11.38,11.38,0,0,1,7.54-.12,7,7,0,0,1,0-.77c-3.73-1.4-5.89-5.82-6.75-9.94,3.2,1.34,6.32,3.75,7.37,7.16,1.24-3,4.14-5.2,7.1-6.44-.9,4.35-3.26,9-7.34,10.14a10.49,10.49,0,0,1,1,.45,11.43,11.43,0,0,1,7.16.25,8.37,8.37,0,0,1-1.6-1.48l.4-.23a8.75,8.75,0,0,1-3.17.45c1.19-6,6.9-8.85,12.23-9.58a23.46,23.46,0,0,1-3.84,5.59,1,1,0,1,1-1.18,1.14A13.39,13.39,0,0,1,57,111.46a11,11,0,0,1,6-.22,1,1,0,1,1,1.65.49A19.18,19.18,0,0,1,70.19,115a20.18,20.18,0,0,1-10.51.43,19.85,19.85,0,0,1,2.63,1.85c-4.87,1.38-10.76,1.54-14.36-1.57-3.63,2.35-8.94,2.12-13.39.85a21.8,21.8,0,0,1,2.62-1.86,20.19,20.19,0,0,1-10.5-.42A18.82,18.82,0,0,1,32.24,111a1,1,0,0,1,.67-1.83,1,1,0,0,1,1,1,1,1,0,0,1,0,.31,10.89,10.89,0,0,1,6,.21A13.18,13.18,0,0,1,37.56,109.08Zm11.93,5.33a7.7,7.7,0,0,1-.72.68L60.83,117l0,0C57.8,114.45,53.48,112.7,49.49,114.42ZM9.3,63.47a1,1,0,1,1-1,1A1,1,0,0,1,9.3,63.47Zm1.6,4.85-.16,0h-.11c.08.15.15.3.22.45C10.87,68.63,10.88,68.47,10.91,68.31ZM87.61,55a1,1,0,1,0,1,1A1,1,0,0,0,87.61,55ZM85,72.16a1,1,0,1,0,1,1v-.06c4.81-1,8.13-6.15,9.77-11.1a16.34,16.34,0,0,0-8.72,5.62,1.05,1.05,0,0,0-1-.67,1,1,0,0,0-.64.22q-.1-.27-.21-.54h.05a1,1,0,1,0,0-2.07,1,1,0,0,0-.86.46A20.78,20.78,0,0,0,79,59.2v5.38a11.18,11.18,0,0,0,6.34,7c0,.19-.08.39-.11.59ZM77.91,102h0a9.91,9.91,0,0,0,.69-6.22,10.5,10.5,0,0,0,1.67,2.25,8.69,8.69,0,0,0,1.06-1.82,9,9,0,0,0,4,.13A10.9,10.9,0,0,0,77.91,102Zm-2,.62a1,1,0,1,0,1,1A1,1,0,0,0,75.88,102.65ZM76,106a1,1,0,0,0,.85.45,1.05,1.05,0,0,0,.89-.5,13.35,13.35,0,0,1,7.44,3.25h0l-12.36-2-.06-.08A8.53,8.53,0,0,1,76,106Zm-7.13-.17a1,1,0,0,0-1,1,1,1,0,0,0,.46.86,9.75,9.75,0,0,0-2.44.55,13.72,13.72,0,0,0,4.11-5.4,10.22,10.22,0,0,0,.49,4.86c-.32,0-.63,0-.95-.05a1,1,0,0,0-.63-1.85Zm-5.37,6a1.08,1.08,0,0,0,.41.12,15,15,0,0,1,4.89,2.76h0l-12.36-2-.06-.07A8.82,8.82,0,0,1,63.46,111.85ZM87.55,64.2a1,1,0,1,0,1,1A1,1,0,0,0,87.55,64.2ZM86,69h.28c-.08.15-.15.29-.22.45C86,69.34,86,69.19,86,69ZM48.8,110.53a8.92,8.92,0,0,1,.13,1.6l6-8.07v0C52.13,105.19,49.42,107.41,48.8,110.53Zm-24.43-3.1a12.93,12.93,0,0,1,1.6-.33c-.25-.16-.48-.32-.7-.5A9.76,9.76,0,0,1,24.37,107.43ZM0,34.4c5.16,1.5,10.41,5.13,10.71,11.25C5.39,45.12,1.74,39.67,0,34.4Zm17.14-2.63c.74,5.32-.45,11.59-5.91,14.36C9.55,41.06,13,35.51,17.14,31.77ZM26,97.5c.33.15.66.31,1,.49Zm1.24.64h0m0,0h0m.18.1c3.38,2,6.22,5.27,5.78,9.62l-.09,0L26,97.55v0ZM10.37,25.78c2.22,3.76,3.27,8.83,0,12.63l-.06-.08V25.83Zm6.24,7.34c.6,4.33-.4,9.41-4.85,11.65l0-.09,4.85-11.53ZM1,35.44c4.19,1.21,8.42,4.2,8.67,9.17H9.6L1,35.48ZM2,44.1c4.19,1.21,8.42,4.2,8.66,9.18h-.09L2,44.14Zm.31,9c4.19,1.21,8.42,4.2,8.67,9.18h-.1L2.3,53.16ZM17.89,62c-.68,3.42-2.56,6.64-6.24,7.86l0-.1L17.9,59.47Zm-15.82.38c4.19,1.22,8.43,4.2,8.67,9.18l-.1,0L2.1,62.4Zm1.14,7.77c4.19,1.21,8.43,4.21,8.67,9.18h-.1L3.23,70.17Zm-.8,7.5c4.36.25,9.15,2.23,10.49,7h-.1l-10.36-7ZM1.76,84c4.34-.52,9.4.58,11.57,5.07l-.09,0L1.79,84ZM3,89.8c4.34-.52,9.41.58,11.56,5.06l-.09,0L3,89.84Zm3.12,6c4.33-.52,9.39.58,11.56,5.06l-.09,0L6.15,95.85Zm5.6,12.68c3.35-2.79,8.2-4.61,12.46-2l-.06.07-12.35,2Zm7.36,2.29c3.35-2.79,8.21-4.62,12.46-2l-.06.07-12.35,2Zm9,3.22c3.36-2.79,8.21-4.62,12.46-2l-.06.08-12.35,2ZM36,116.28c3.28-2.73,8-4.53,12.19-2.18a8.12,8.12,0,0,0-.79.39L36,116.3Zm-2.28-13c4.32.59,8.94,2.93,9.9,7.82h-.09l-9.79-7.78Zm8.23.06c3.06,1.28,6,3.8,6.24,7.4-.06.27-.12.54-.15.82l-6.08-8.18ZM86.48,26.51c-2.23,3.76-3.26,8.83,0,12.63l.06-.07V26.55Zm-6.24,7.33c-.6,4.33.41,9.41,4.86,11.66l0-.09L80.28,33.88Zm15.59,2.31c-4.19,1.21-8.43,4.21-8.67,9.18h.1l8.55-9.12Zm-.95,8.66C90.69,46,86.46,49,86.22,54h.1l8.56-9.12ZM78.67,52c0,4.37,1.8,9.24,6.53,10.8a.87.87,0,0,0,0-.09L78.71,52Zm15.91,1.87C90.38,55.06,86.16,58,85.91,63H86l8.56-9.12ZM79,62.69c.68,3.43,2.56,6.64,6.24,7.86a.48.48,0,0,0,0-.09L79,60.2Zm15.82.37c-4.19,1.22-8.42,4.21-8.67,9.18h.1l8.56-9.12Zm-1.14,7.79C89.45,72.06,85.22,75.05,85,80h.1l8.56-9.12Zm.81,7.5c-4.36.26-9.15,2.23-10.49,7h.1l10.37-7Zm.65,6.37c-4.33-.52-9.4.59-11.56,5.06l.09,0,11.43-5.06Zm-1.24,5.81c-4.33-.52-9.39.58-11.56,5.06l.09,0,11.43-5.06Zm-3.11,6c-4.33-.53-9.4.57-11.57,5.06l.09,0,11.45-5.05Zm-13,15c-3.35-2.79-8.2-4.61-12.46-2l.06.08,12.35,2ZM63.16,104c-4.32.59-8.95,2.93-9.91,7.83h.09L63.13,104Zm9.33,4.19a12.34,12.34,0,0,0-1.6-.33,7.55,7.55,0,0,0,.7-.49A11.21,11.21,0,0,0,72.49,108.16Zm24.37-73c-5.16,1.5-10.4,5.13-10.71,11.25C91.47,45.85,95.12,40.39,96.86,35.12ZM79.72,32.49c-.74,5.32.45,11.59,5.91,14.36C87.32,41.77,83.82,36.23,79.72,32.49ZM69.5,55.33l.05,9.15H48.68V55.33Zm.05,10.22.08,15.69c0,7.17-3.49,8.22-8.85,10.3C56.86,93.06,50.43,93,48.71,95.69,47.4,92.75,40,93.33,36,91.82c-5.47-2.08-9.12-4.41-9.13-11.12l0-15.15ZM26.67,27.08H37.4a10.09,10.09,0,0,0-3.58-2c-2.4-.55-2.34.82-4.59.82-1.65,0-2.62-1-4.26-.35C25.67,26.14,26.2,26.64,26.67,27.08Zm12.24,0h.4A9.07,9.07,0,0,1,41.07,23c-3.84-.93-8.8-2.13-12.75-3-1.35-.32-.74,0,.2.64C31.61,22.68,36,25.05,38.91,27.08Zm1.33,0H56.57a8.3,8.3,0,0,0-16.33,0Zm17.27,0h1.93l.09,0,9.61-6.36c1.54-1,.66-.62-.58-.35-3.75.86-8.76,2.51-12.24,3.22a1.87,1.87,0,0,1-.06.18A9.21,9.21,0,0,1,57.51,27.08Zm3.37,0h9.27c-1.79-1-2.65-1.53-5.4-.93a14.57,14.57,0,0,0-2.92.43Zm-5.35-4.36c1.54-3.78,4.06-9.31,5.67-13.2.57-1.37.16-.72-.52,0-2.63,2.91-6,7.95-8.51,10.61A9.26,9.26,0,0,1,55.53,22.72Zm-4.53-3c-.59-3.85-1.48-9.16-2.11-13.22-.29-1.88-.26-1.29-.57.23-.77,3.8-1.36,9.17-2.17,12.65l.18.21a9.24,9.24,0,0,1,2.07-.23A9.45,9.45,0,0,1,51,19.71Zm-5.87.23c-2.46-3-5.87-6.84-8.43-9.91-1.89-2.27-.38.71,0,1.84,1.16,3.29,2.74,6.89,3.6,9.86l1.56.32A9.33,9.33,0,0,1,45.12,19.95Zm-15.18-8.6c1.67.51,1.87,1.87,3.17,2.86,1.78,1.36,2.57.25,4.14,2.14C38.3,18,39.33,20,38.75,20.61s-2.36,0-3.51-.52c-.68-.3-1.44-1.34-2.19-2C30.21,15.89,30.76,14.91,29.94,11.35ZM42.37,4.7C43.54,6,43,7.25,43.65,8.78c.85,2.07,2.09,1.52,2.47,3.94.08,2.24-.18,4.65-1.19,4.68-.6,0-1.82-1.64-2.43-2.48a14.61,14.61,0,0,1-.89-2.8C40.31,8.75,41.26,8.18,42.37,4.7ZM56.47,5c.36,1.71-.73,2.54-1,4.16-.33,2.22,1,2.36.13,4.66-.93,1.73-2.52,3.45-3.37,3.26s-.76-2-.87-3.21A14.73,14.73,0,0,1,52.06,11C52.64,7.43,53.76,7.43,56.47,5ZM68,13.93c-.67,1.61-2,1.68-3.14,2.89-1.52,1.66-.49,2.53-2.51,3.93-1.8.93-3.87,1.61-4.44.93s.31-2.21.9-3.27c.36-.66,1.47-1.31,2.16-2C63.43,13.8,64.35,14.42,68,13.93ZM20.11,82.65v-5h1.33v1.69h4V81h-4v1.69Zm5.36-5.8H20.11V74.09a4,4,0,0,1,.13-1.17,1.31,1.31,0,0,1,.49-.66A1.47,1.47,0,0,1,21.6,72a1.43,1.43,0,0,1,.77.19,1.57,1.57,0,0,1,.52.52,2.12,2.12,0,0,1,.21.58,1.8,1.8,0,0,1,.2-.43,2,2,0,0,1,.28-.26,2.28,2.28,0,0,1,.33-.23l1.56-.8v1.87l-1.64.89a1.14,1.14,0,0,0-.41.3.69.69,0,0,0-.13.4v.14h2.18Zm-3.19-1.67v-.69a2.11,2.11,0,0,0-.08-.43.42.42,0,0,0-.16-.28.53.53,0,0,0-.31-.1.48.48,0,0,0-.4.16,1,1,0,0,0-.14.62v.71Zm2.3-7.43v1.88l.89.26v1.69l-5.36-2V67.77l5.36-2v1.74Zm-1.16.35-1.93.59,1.93.59Zm-3.31-2.88v-3.1a1.67,1.67,0,0,1,.38-1.18,1.23,1.23,0,0,1,.95-.42,1.21,1.21,0,0,1,.82.29,1.47,1.47,0,0,1,.36.58,1.51,1.51,0,0,1,.47-.85,1.31,1.31,0,0,1,.86-.27,1.46,1.46,0,0,1,.74.19,1.41,1.41,0,0,1,.53.53,1.76,1.76,0,0,1,.17.62,7.13,7.13,0,0,1,.08.75v2.86Zm2.1-1.67v-.72a.86.86,0,0,0-.13-.54.48.48,0,0,0-.38-.15.44.44,0,0,0-.36.15.78.78,0,0,0-.13.53v.73Zm2.1,0v-.84a1,1,0,0,0-.15-.6.52.52,0,0,0-.41-.18.46.46,0,0,0-.38.17,1,1,0,0,0-.15.61v.84Zm.27-7.32v1.89l.89.26v1.69l-5.36-2V56.25l5.36-2V56Zm-1.16.35-1.93.58,1.93.59Zm-3.31-5.11V49.81H23a4.64,4.64,0,0,1,1.4.16,1.61,1.61,0,0,1,.82.66,2.23,2.23,0,0,1,.34,1.26,2.86,2.86,0,0,1-.22,1.25,1.55,1.55,0,0,1-.64.69,2.38,2.38,0,0,1-1,.29l-.22-1.58a1.73,1.73,0,0,0,.53-.06.54.54,0,0,0,.28-.2.55.55,0,0,0-.14-.68,1.45,1.45,0,0,0-.7-.13Zm2.68-2.55a2.78,2.78,0,0,1-2-.73,2.75,2.75,0,0,1-.73-2,2.81,2.81,0,0,1,.71-2.06,2.73,2.73,0,0,1,2-.72,3.2,3.2,0,0,1,1.54.32,2.22,2.22,0,0,1,.93.91,3,3,0,0,1,.33,1.49,3.44,3.44,0,0,1-.28,1.5,2.32,2.32,0,0,1-.92,1A3,3,0,0,1,22.79,48.92Zm0-1.65A1.78,1.78,0,0,0,24,47a1,1,0,0,0,.36-.82,1,1,0,0,0-.35-.82A1.94,1.94,0,0,0,22.72,45a1.64,1.64,0,0,0-1.1.3,1,1,0,0,0-.36.83,1,1,0,0,0,.36.8A1.78,1.78,0,0,0,22.79,47.26Zm18.28-18h2.75a1.87,1.87,0,0,1,1.35.43,1.6,1.6,0,0,1,.45,1.21,1.64,1.64,0,0,1-.49,1.27,2.1,2.1,0,0,1-1.49.46h-.9v2H41.07Zm1.66,2.29h.41a1.1,1.1,0,0,0,.67-.16.55.55,0,0,0,.19-.43.57.57,0,0,0-.17-.43.86.86,0,0,0-.63-.18h-.48Zm6.41,2.19H47.26l-.26.88H45.31l2-5.36h1.81l2,5.36H49.41Zm-.35-1.16-.59-1.93-.59,1.93Zm2.74-3.32h4.68v1.07l-3,3.14h3.12v1.15H51.25V33.5l3-3.1H51.54ZM76.69,40.58v2.75a1.88,1.88,0,0,1-.43,1.35,1.6,1.6,0,0,1-1.21.45,1.7,1.7,0,0,1-1.27-.48,2.14,2.14,0,0,1-.45-1.5v-.9h-2V40.58ZM74.4,42.25v.4a1.07,1.07,0,0,0,.16.67.54.54,0,0,0,.42.19.62.62,0,0,0,.43-.17.9.9,0,0,0,.17-.63v-.47ZM71.32,46h5.36v2.76A4,4,0,0,1,76.55,50a1.27,1.27,0,0,1-.49.66,1.51,1.51,0,0,1-.87.25,1.47,1.47,0,0,1-.77-.19,1.51,1.51,0,0,1-.52-.52,1.88,1.88,0,0,1-.21-.58,1.6,1.6,0,0,1-.2.43,1.45,1.45,0,0,1-.28.26,2.38,2.38,0,0,1-.33.23l-1.56.8V49.42L73,48.53a1.16,1.16,0,0,0,.41-.3.69.69,0,0,0,.12-.4v-.15H71.32Zm3.19,1.66v.7a2.73,2.73,0,0,0,.07.45.5.5,0,0,0,.17.26.52.52,0,0,0,.32.11.49.49,0,0,0,.39-.17,1,1,0,0,0,.13-.61v-.73ZM74,51.48a2.55,2.55,0,0,1,2.77,2.77,2.85,2.85,0,0,1-.72,2.07A2.74,2.74,0,0,1,74,57a3.24,3.24,0,0,1-1.54-.32,2.24,2.24,0,0,1-.94-.91,3,3,0,0,1-.33-1.49,3.47,3.47,0,0,1,.29-1.5,2.29,2.29,0,0,1,.92-1A3,3,0,0,1,74,51.48Zm0,1.66a1.78,1.78,0,0,0-1.17.3,1.14,1.14,0,0,0,0,1.64,2,2,0,0,0,1.25.29,1.67,1.67,0,0,0,1.1-.3,1,1,0,0,0,.35-.83,1,1,0,0,0-.35-.8A1.8,1.8,0,0,0,74,53.14Zm-.73,7.49h1.11v2.55H72.09a5.12,5.12,0,0,1-.68-1.29,4.34,4.34,0,0,1-.18-1.34A3.23,3.23,0,0,1,71.55,59a2.24,2.24,0,0,1,1-.93A3.18,3.18,0,0,1,74,57.73a3.12,3.12,0,0,1,1.53.36,2.32,2.32,0,0,1,1,1.06,3.42,3.42,0,0,1,.26,1.47,4.36,4.36,0,0,1-.16,1.33,1.77,1.77,0,0,1-.5.73,2.23,2.23,0,0,1-.86.44L75,61.51a.85.85,0,0,0,.46-.33,1.21,1.21,0,0,0-.22-1.47,1.83,1.83,0,0,0-1.2-.32,1.88,1.88,0,0,0-1.24.33,1.13,1.13,0,0,0-.38.92,1.65,1.65,0,0,0,.08.53,2.85,2.85,0,0,0,.27.58h.51Zm-1.94,3.56h5.36v2.76a4,4,0,0,1-.13,1.17,1.29,1.29,0,0,1-.49.66,1.47,1.47,0,0,1-.87.25,1.55,1.55,0,0,1-.77-.19,1.59,1.59,0,0,1-.52-.52,1.84,1.84,0,0,1-.21-.59,1.6,1.6,0,0,1-.2.43,1.38,1.38,0,0,1-.28.26,2.29,2.29,0,0,1-.33.23l-1.56.8V67.59L73,66.71a1.14,1.14,0,0,0,.41-.3.7.7,0,0,0,.12-.4v-.15H71.32Zm3.19,1.66v.69a2.54,2.54,0,0,0,.07.45.52.52,0,0,0,.88.21,1,1,0,0,0,.13-.62v-.73ZM76.69,70v4.44H75.54V71.65h-.85v2.57H73.59V71.65H72.54V74.5H71.32V70ZM73.1,75.11l.09,1.57a1.22,1.22,0,0,0-.58.21.87.87,0,0,0-.32.73.81.81,0,0,0,.16.55.49.49,0,0,0,.39.19.48.48,0,0,0,.37-.18,2.15,2.15,0,0,0,.31-.85,3.61,3.61,0,0,1,.65-1.55,1.32,1.32,0,0,1,1-.47,1.43,1.43,0,0,1,.77.23,1.61,1.61,0,0,1,.58.73,3.4,3.4,0,0,1,.21,1.32,2.73,2.73,0,0,1-.38,1.57,1.68,1.68,0,0,1-1.22.63l-.09-1.56a.78.78,0,0,0,.53-.26.9.9,0,0,0,.16-.55.71.71,0,0,0-.12-.43.39.39,0,0,0-.3-.14.28.28,0,0,0-.23.12,1.21,1.21,0,0,0-.2.55,7.12,7.12,0,0,1-.48,1.56,1.62,1.62,0,0,1-.59.68,1.51,1.51,0,0,1-.79.22,1.73,1.73,0,0,1-1-.29,1.83,1.83,0,0,1-.66-.8,3.32,3.32,0,0,1-.22-1.29,2.64,2.64,0,0,1,.53-1.89A2.07,2.07,0,0,1,73.1,75.11Zm.9,5.48a2.75,2.75,0,0,1,2,.74,2.71,2.71,0,0,1,.74,2,2.87,2.87,0,0,1-.72,2.07,2.74,2.74,0,0,1-2,.72,3.26,3.26,0,0,1-1.54-.32,2.29,2.29,0,0,1-.94-.92,3,3,0,0,1-.33-1.49,3.4,3.4,0,0,1,.29-1.5,2.24,2.24,0,0,1,.92-1A3,3,0,0,1,74,80.59Zm0,1.67a1.78,1.78,0,0,0-1.17.3,1,1,0,0,0-.36.82,1.07,1.07,0,0,0,.35.83,2,2,0,0,0,1.25.29,1.67,1.67,0,0,0,1.1-.31,1,1,0,0,0,.35-.83,1,1,0,0,0-.35-.8A1.8,1.8,0,0,0,74,82.25ZM46.56,77.1l1.53.35,2-.28-.36-.07v-.85l-.5-.07v-.9h.3v-.37h-.27v-.3h-.36v-.07h.19v-.46h-.19V70.84H49a.09.09,0,0,0,.09-.09.08.08,0,0,0-.09-.08h-.12v-.79h.63a.07.07,0,0,0,.08-.08.08.08,0,0,0,0-.07h.13v-.56h-.46c0-.5.13-.86-.35-1.06,0-.06-.08-.06-.1-.16v0h0v-.05h0s0-.06,0-.06.11.06.14-.06,0-.39.06-.26.09-.58-.23-.79a.37.37,0,0,0-.2-.05h-.19l-.12,0h0s0,0,0,0h0l-.09,0h0l0,0a0,0,0,0,1,0,0s0,0,0,0h0a.05.05,0,0,0,0,0s0,0,0,0a1.1,1.1,0,0,0-.17.13,0,0,0,0,1,0,0h0v0a1.53,1.53,0,0,0-.12.19h0s0,0,0,0,0,0,0,0,0,0,0,0a.57.57,0,0,0-.14.29s0,0,0,0,0,0,.06,0h0s0,0,0,0v.08l0,0s0,0,0,.05a.06.06,0,0,1,0,0,.17.17,0,0,0-.05.11c0,.07.06.08.13.11h.06s0,0,0,.09c-.3.3-.28.62-.39,1H47v.56h.1a.07.07,0,0,0,0,.07.07.07,0,0,0,.07.08h.69v.79h-.15a.09.09,0,0,0-.09.08.1.1,0,0,0,.09.09h.15v3.25h-.23v.46h.23v.07h-.4v.3h-.23v.37h.23v.93l-.42.06V77h0Zm1.53-9.23s0,0,.07,0h.53L48,68Zm-.61,14.2,4.86-.79-.56-.88c1.67-.41,3.47-.82,4.83.63,1.28-.52,5.79-.6,5.59.79-3,1.25-7.48,1-10.42.64s-4,1.1-4.56.93c-1.18-.66-3.55.8-3.51,1.38,1.23-.83,2.43-1.07,3.54,0a3.36,3.36,0,0,1,3.21.26c1.15,0,8.62-1.17,7.29.28A27.44,27.44,0,0,0,63,84.6c-3.47-.91-8.58-.09-12-.36A3.53,3.53,0,0,0,48.3,84c.59-.85,2.44-.93,3.2-.83,2.46.38,14.15.78,16.28-1.32A24.7,24.7,0,0,1,63,81.67c-1-2.08-4.53-1.72-6.35-1.42-1.71-1.58-3.78-.69-5.21-.42l-1.27-2.61-2,.33ZM37.94,74.9c-3.32-3.42,1.43-5.35,3.1-3.2a3.71,3.71,0,0,0,0,.93,2.7,2.7,0,0,1,2.72-2.46,2.61,2.61,0,0,0-1.53,0c-3.09-2.29.66-4.78,3-2-.19-.6.15-1.37,1.38-1.13a1,1,0,0,0-1.77.12c-4.81-2.53-4.41,3-3.14,3.64C36.59,68.1,34.56,73.67,37.94,74.9Zm-4.48,8.72c-.77.13-5.31,1.65-4.91,2,2.72-.34,5.5.24,8.23.43.06,1.55-2.79,3.09-3.44,3.39a6.06,6.06,0,0,0,5.07.86c-.5,2.85,7.81-1.25,7,.87,3.82-.48,1.83.89-3.37,1.61,2.36-.18,10.82.39,11.67-.36-7.89-.09-3.33-3.92,1.9-2.07,2.76,0,5.52-.13,8.27-.25,1.46-1-5.89-.46-6.84-.77a14.21,14.21,0,0,1,.55-1.67c.9-.73,6.52-.4,6.86.64-.73,0,2.32.42,2.45-1a3.37,3.37,0,0,1-2.32.09c-1.68-1-6.69-.77-6.72-.55-.8-1.12-4.21-.56-5.4-.56a10.62,10.62,0,0,0-4.65.18c-1.49.42-1.89-1.91-3.94-.58A50.44,50.44,0,0,1,38,85.55c.28-.51,4.11-.65,4.77-.66a13.11,13.11,0,0,0-2.53-.58c-1.15-4,3.65-3.26,5.09-3.32l2.1,1L48,77.54l-1.48-.39-1.39,3.31a7.11,7.11,0,0,0-5,.91A3.5,3.5,0,0,1,37.47,81a3,3,0,0,0-4.76,1c.2,0-2.92-.21-4.52,1.38A6.65,6.65,0,0,1,33.45,83.62Zm19.5,3.27a6,6,0,0,1,3.89.05l-.77,2.32a9,9,0,0,0-4.6.09c-.08-.37.15-.68.93-1A5.45,5.45,0,0,0,52.95,86.89Zm-5.28.16a6.42,6.42,0,0,1,4.63-.11,3.6,3.6,0,0,1-.45,1.19c-1,.32-.95,1-1.06,1.3-1.26,0-2.16,1.07-3.77.66A15.07,15.07,0,0,0,47.67,87.05Zm-.93-.13a8.87,8.87,0,0,1-.49,3.22c0-.56-.63-.67-1.61-.4a12.48,12.48,0,0,0-.17-3.51C45,85.88,45.79,86.27,46.74,86.92Zm-2.92-.6a11.53,11.53,0,0,1-.08,3.51c-2,.38-3.94,1-4.75.29a14.57,14.57,0,0,0,1.31-3.92A17.44,17.44,0,0,0,43.82,86.32Zm-4.12-.08a6.41,6.41,0,0,1-1.48,3.38c-2.13.41-2.64.08-3.37-.27A6.44,6.44,0,0,0,37.92,86,16.06,16.06,0,0,0,39.7,86.24Zm-3.3-5.07c.73,1.41,2,1,3.36,1a1.89,1.89,0,0,0-.45,2.27c-1.08-.21-6.3.72-4.81-1.12C32.87,81.53,35.2,80.73,36.4,81.17Zm-7-3.67c1.43-.59,2.34-.46,2.52.74,1.61-1.89,3.32-.94,4.31.2a2.44,2.44,0,0,1,3.52-1.72c-.86-2.45,2.07-3.44,3.47-3a1.76,1.76,0,0,0-.57,2.06,2.27,2.27,0,0,1,1-1.87l0,0,0,0A3.62,3.62,0,0,1,45,73.29a2.39,2.39,0,0,0-1.79.36c-1.48-.71-4.45-.57-4.45,2.25a2.41,2.41,0,0,0-2.72,1.69,2.67,2.67,0,0,0-3.93-.23,1.5,1.5,0,0,0-1.61-.62c1.2-2.1-.49-3.51-2.35-3.1C30.8,73.64,30.83,75.48,29.36,77.5ZM42.05,92.74a2.44,2.44,0,0,0-.46.06ZM59.37,70.8a2.17,2.17,0,0,0-.5-2c1.1-.74,2.74-1.31,3.57.16,3.13-.82,2.79,1.8,1.45,2.79,1.79.72,1,2.64-2.48,3.67a2.12,2.12,0,0,0-2.68.19c1.27-.45,2.68-.15,3.83,1.64a3,3,0,0,0-1-1.76c2.25-.1,3,1,3.38,2.51.81-1.27,1.84-1.14,3.15-.26-1.49-2.25-2.81-1.22-3-.36.22-.53-.85-2-2-2.13,3.4-.09,2.58-3.41,1.44-3.63,3-2,.35-4.3-1.83-3.19C62,67.53,61.15,67,59.12,68c.39-1.36-1.07-2.48-1.85-2.17a2.4,2.4,0,0,1,1.37,2.77A4.07,4.07,0,0,0,55.81,68C57.81,68.47,58.91,68.87,59.37,70.8Z"/></g></g></svg>