<svg xmlns="http://www.w3.org/2000/svg" viewBox="0 0 295.49 97.24"><title>Asset 126</title><g id="Layer_2" data-name="Layer 2"><g id="Main"><path d="M12,46.4H1.53c0-.89.05-1.76.14-2.61a18.52,18.52,0,0,1,3.57-9.54,19.5,19.5,0,0,1,11-7.18A30.77,30.77,0,0,1,26,26.25a23.07,23.07,0,0,1,8.49,2A16.67,16.67,0,0,1,44.47,41.6c.2,1.39.25,2.81.36,4.09,7-13,17.78-20.44,32.89-20.29s25.73,7.86,32.45,21.08c7.67-11.75,18.41-16.76,32.44-14.25a26.55,26.55,0,0,1,10.51,4.55,29.84,29.84,0,0,1,8,8.2,30.89,30.89,0,0,1,4.37,10.6v-25c.17.14.28.23.38.33q17.4,17.13,34.78,34.28c2,2,3.83,4.3,5.74,6.46.14.16.26.32.48.59V32.88h8.31V55.14l.1,0a3.11,3.11,0,0,0,.11-.34,28.65,28.65,0,0,1,21.38-22.46,30.53,30.53,0,0,1,25.22,4.74.61.61,0,0,1,.29.62c-.15,2.83-.29,5.66-.44,8.48a3.22,3.22,0,0,1-.07.38l-.92-.75a25.15,25.15,0,0,0-12.56-5.61c-5.12-.68-10.06-.15-14.55,2.62a19.35,19.35,0,0,0-9,13.16,24.46,24.46,0,0,0,1.09,14.44c2.48,6,6.77,10.15,13.19,11.67a23.47,23.47,0,0,0,15.49-1.8,29.49,29.49,0,0,0,6.8-4.43l.43-.35c0,.24,0,.4,0,.56,0,3.1,0,6.2,0,9.3a.92.92,0,0,1-.46.85A27.15,27.15,0,0,1,248.61,91,32.08,32.08,0,0,1,233.5,89.4c-8.87-3.3-14.59-9.62-17.44-18.6-.3-.93-.48-1.9-.72-2.85a.65.65,0,0,0-.19-.35V91.86l-.42-.38L179.27,56.66a45.94,45.94,0,0,1-5.14-6l-.36-.48V89.69h-8.33V67.23a29.69,29.69,0,0,1-8.59,15.58,28.18,28.18,0,0,1-15.84,8c-13.49,1.86-23.63-3.5-31-14.74A35.89,35.89,0,0,1,92.58,93.75,34.73,34.73,0,0,1,67.83,95.9,35.17,35.17,0,0,1,47.75,81.61c-5-7.16-6.73-15.19-6.06-23.88-.1.08-.15.1-.17.14a66.2,66.2,0,0,1-7.31,10.77C30.31,73.46,26.29,78.2,22.32,83c-.93,1.12-1.88,2.24-2.9,3.45h25.4v8.89H0A3.88,3.88,0,0,1,.24,95Q8.58,84.74,16.93,74.53c3.48-4.27,7-8.54,10.37-12.88a36.33,36.33,0,0,0,5.53-9.5,14.17,14.17,0,0,0,.54-9.34,9.27,9.27,0,0,0-7.51-6.71,12.1,12.1,0,0,0-7,.43,10.35,10.35,0,0,0-6.44,7.77C12.22,45,12.14,45.67,12,46.4ZM76.66,35.59c-.94.12-2.61.22-4.23.56A23.24,23.24,0,0,0,57.72,46c-5.08,7.3-6.07,15.33-3.42,23.73A24.31,24.31,0,0,0,76.09,86.78,23,23,0,0,0,88.44,84a25.92,25.92,0,0,0,13-27,25.58,25.58,0,0,0-6.79-13.85C89.93,38.21,84.17,35.74,76.66,35.59Zm39.2,24.7c0,6.65,1.89,11.65,5.57,15.76a19.48,19.48,0,0,0,23.37,4.59c6.86-3.5,10.68-9.27,11.54-16.89A21.18,21.18,0,0,0,151.22,47a19.54,19.54,0,0,0-25.45-4A20.55,20.55,0,0,0,115.86,60.29Z"/><path d="M295.49,81.45v8.25h-31V32.87h31v7.78H273.55V54.94h21.92V63H273.55V81.45Z"/><path d="M106.49,8.28,107.35,5c.36-1.4.73-2.8,1.08-4.2.06-.24.13-.37.42-.37h7.7a.93.93,0,0,1,.17,0V3.15h-1.12v9.52h1.13v2.77H110V12.71h1.14V4.35l-2.94,11.13c-1.46,0-2.88,0-4.29,0a.41.41,0,0,1-.3-.25q-1.36-5-2.68-9.92c-.09-.33-.1-.67-.22-1v8.38l1.17.05v2.72H96.08V12.71h1.1V3.18H96.1V.43c.15,0,.29,0,.44,0,2.42,0,4.83,0,7.25,0,.38,0,.5.12.59.47.65,2.48,1.33,4.94,2,7.41Z"/><path d="M144.91,15.45c0-.84,0-1.65,0-2.46,0-.1.19-.25.3-.26a7.16,7.16,0,0,1,.91,0V3.18H145V.39h.48c1.73,0,3.47,0,5.2,0a.75.75,0,0,1,.72.39c1.54,2.33,3.1,4.66,4.65,7l.37.55V3.19H155V.43h6.41V3.17H160V15.45l-.57,0c-1.2,0-2.4,0-3.6,0a.78.78,0,0,1-.76-.4c-1.61-2.43-3.23-4.85-4.86-7.27l-.37-.53v5.41h1.62v2.76Z"/><path d="M61.33,13.88l-.25,1.58H57.37V10.1h3.92c0,.17.06.37.12.55a2.15,2.15,0,0,0,2,1.48A5.9,5.9,0,0,0,65.14,12a.86.86,0,0,0,.75-.83c0-.46-.3-.67-.64-.79C64.16,10.06,63,9.78,62,9.36A11.87,11.87,0,0,1,59.23,8,4.27,4.27,0,0,1,59,1.46,6,6,0,0,1,65.92.81a4.15,4.15,0,0,1,.7.56c.21.21.38.45.63.75L67.49.42h3.64V5.77l-.35,0H67.31a2.43,2.43,0,0,0-1.85-2.36,2.28,2.28,0,0,0-1.84.1.94.94,0,0,0-.15,1.7A7,7,0,0,0,65,6c1,.39,2,.7,3,1.11a9,9,0,0,1,1.88,1,4,4,0,0,1-.12,6.59c-1.94,1.35-5.89,1.81-8.22-.62C61.52,14,61.45,14,61.33,13.88Z"/><path d="M238.22,8.3a22.67,22.67,0,0,1-.49,2.74,6.39,6.39,0,0,1-5.65,4.73,9.76,9.76,0,0,1-4-.19,6.44,6.44,0,0,1-4.78-4.46,9.93,9.93,0,0,1-.17-5.71A7.08,7.08,0,0,1,230,0a11.5,11.5,0,0,1,3.16.33c2.93.76,4.41,2.85,4.88,5.75C238.11,6.72,238.13,7.36,238.22,8.3Zm-5.36-.21a20.4,20.4,0,0,0-.35-2.48,4.71,4.71,0,0,0-.83-1.72,1.52,1.52,0,0,0-2.52.11,4.36,4.36,0,0,0-.62,1.24,9.18,9.18,0,0,0-.25,4.19,4.67,4.67,0,0,0,.94,2.38,1.59,1.59,0,0,0,2.72-.14,3.16,3.16,0,0,0,.48-1C232.61,9.76,232.72,8.87,232.85,8.09Z"/><path d="M195.26,9.34v3.29h1.25v2.81h-6.87V12.7l.35,0c.83,0,.83,0,.83-.82q0-4,0-7.95c0-.68,0-.68-.66-.69l-.52,0V.42l.43,0c2.25,0,4.5,0,6.75,0a13.08,13.08,0,0,1,3,.39c2.5.65,3.06,2.71,2.72,4.74a2.87,2.87,0,0,1-1.89,2.1c-.27.12-.56.2-.93.32l.48.2a3.18,3.18,0,0,1,2.15,3,3.8,3.8,0,0,0,.13,1,.59.59,0,0,0,.43.36.63.63,0,0,0,.41-.4,4.5,4.5,0,0,0,.08-.93h1.37a6.77,6.77,0,0,1-.28,2.9,2.68,2.68,0,0,1-2.65,1.68,6.79,6.79,0,0,1-1.87-.23,3.32,3.32,0,0,1-2.47-3.26c0-.47,0-.93-.06-1.4C197.24,9.58,196.59,9.12,195.26,9.34Zm0-6.19V6.92A14.63,14.63,0,0,0,197,6.77a1.58,1.58,0,0,0,1.28-1.72A1.64,1.64,0,0,0,197,3.27,15.72,15.72,0,0,0,195.28,3.15Z"/><path d="M171.34,3.2l-.86,0V.42l.45,0c2.45,0,4.9,0,7.34,0a.53.53,0,0,1,.62.46c1.15,3.75,2.33,7.49,3.48,11.24.14.46.34.66.82.59a6.3,6.3,0,0,1,.84,0v2.77h-8.56V12.69h2c-.15-.49-.26-.91-.42-1.3a.43.43,0,0,0-.33-.2c-1.28,0-2.56,0-3.85,0a.52.52,0,0,0-.38.27c-.15.36-.25.75-.38,1.19h1.64v2.79H167V12.7h1.43Zm4.88,5.38-1.38-4.51h-.1l-1.35,4.5Z"/><path d="M125.79.42H134l1.2,3.83c.83,2.65,1.66,5.3,2.47,8,.11.37.27.52.65.48s.62,0,1,0v2.76h-8.55V12.69h2c-.15-.49-.27-.92-.43-1.33a.44.44,0,0,0-.34-.18c-1.28,0-2.56,0-3.85,0a.47.47,0,0,0-.35.24c-.15.38-.25.78-.39,1.24h1.66v2.77H122.3V12.68c.38,0,.76,0,1.13,0a.48.48,0,0,0,.36-.23c1-3.06,1.9-6.13,2.86-9.24l-.85,0Zm5.73,8.16-1.38-4.51H130l-1.35,4.5Z"/><path d="M87.2,9.09h-4v3.5h3.43c0-.51,0-1,0-1.52,0-.34.09-.47.45-.46,1,0,1.93,0,2.9,0,.21,0,.4,0,.4.3,0,1.5,0,3,0,4.53h-13V12.65h1.3V3.24a9.6,9.6,0,0,1-1,0c-.12,0-.33-.15-.33-.24,0-.85,0-1.69,0-2.57h13V5.14H86.61V3.28H83.16V6.23h4Z"/><path d="M216,12.64h1.28v2.8h-7.1V12.66l1.3-.06V3.26h-1.29V.43h7.09V3.21L216,3.27Z"/></g></g></svg>