<svg xmlns="http://www.w3.org/2000/svg" viewBox="0 0 238.86 92.45"><title>Asset 130</title><g id="Layer_2" data-name="Layer 2"><g id="Main"><path d="M51,45.34c-.18-1-.79-1.63-1.35-1.51s-.75.69-.74,1.42l-1.37.28v.07a1.56,1.56,0,0,0-.86-.71V43.46c.69-.13,1.2-.53,1.21-1s-.75-1.09-1.69-1.1-1.7.47-1.7,1.07.49.89,1.17,1v1.46a1.58,1.58,0,0,0-.71.54l-1.36-.37c0-.68-.23-1.24-.66-1.35s-1.2.49-1.44,1.42,0,1.82.58,2,1-.32,1.32-1l1.25.34a1.64,1.64,0,0,0,.29,1L44,48.44c-.61-.36-1.26-.39-1.56,0s-.09,1.33.62,2,1.6.76,2,.31.17-1-.27-1.58L45.73,48l.07,0a1.49,1.49,0,0,0,.72,0l.61,1.26c-.56.44-.84,1-.62,1.48s1.15.61,2,.18,1.3-1.22,1-1.75-.83-.56-1.5-.37l-.65-1.33a1.63,1.63,0,0,0,.32-.63,1.76,1.76,0,0,0,0-.33l1.33-.27c.26.69.75,1.13,1.21,1s.88-1,.7-1.93"/><rect x="55.25" y="47.88" width="0.51" height="3.49" transform="translate(-9.83 85.35) rotate(-70.47)"/><rect x="53.46" y="51.14" width="0.51" height="3.53" transform="translate(-21.47 58.54) rotate(-48.85)"/><rect x="50.65" y="53.51" width="0.51" height="3.57" transform="translate(-19.94 30.21) rotate(-27.87)"/><rect x="47.19" y="54.65" width="0.51" height="3.6" transform="translate(-6.65 6.34) rotate(-7.14)"/><rect x="42.02" y="56" width="3.6" height="0.51" transform="translate(-20.99 85.99) rotate(-76.73)"/><rect x="38.72" y="54.45" width="3.56" height="0.51" transform="translate(-27.5 57.65) rotate(-55.96)"/><rect x="36.2" y="51.76" width="3.52" height="0.51" transform="translate(-22.92 31.02) rotate(-34.85)"/><rect x="34.78" y="48.3" width="3.48" height="0.51" transform="translate(-10 9.48) rotate(-13.02)"/><rect x="36.15" y="43.05" width="0.51" height="3.48" transform="translate(-13.43 73.9) rotate(-81.19)"/><rect x="37.34" y="39.48" width="0.51" height="3.51" transform="translate(-17.05 52.5) rotate(-59.29)"/><rect x="39.69" y="36.58" width="0.51" height="3.55" transform="translate(-15.15 32.78) rotate(-38.05)"/><polygon points="43.43 38.36 42.37 34.92 42.85 34.77 43.91 38.21 43.43 38.36"/><polygon points="46.9 37.92 46.39 37.89 46.6 34.29 47.1 34.32 46.9 37.92"/><rect x="48.48" y="36.76" width="3.58" height="0.51" transform="translate(-3.87 68.09) rotate(-66.22)"/><rect x="51.47" y="38.93" width="3.54" height="0.51" transform="translate(-12.07 49.4) rotate(-45.24)"/><rect x="53.51" y="42.06" width="3.5" height="0.51" transform="translate(-12.37 25.87) rotate(-23.78)"/><rect x="54.29" y="45.74" width="3.48" height="0.51" transform="translate(-1.43 1.8) rotate(-1.82)"/><path d="M46.22,11.88A34.35,34.35,0,1,0,80.57,46.22,34.35,34.35,0,0,0,46.22,11.88M62.52,51.69s8.74,9.08,6.78,11.87-13-3-13-3,1.92,12.67-1.24,13.73-8.79-10.35-8.79-10.35-5.63,11.42-8.79,10.35-1.24-13.73-1.24-13.73-11,5.81-13,3S30,51.69,30,51.69s-12.22-2-12.22-5.47S30,40.76,30,40.76s-8.74-9.08-6.78-11.86,13,3,13,3-1.92-12.67,1.24-13.73,8.79,10.35,8.79,10.35,5.63-11.42,8.79-10.35,1.24,13.73,1.24,13.73,11-5.81,13-3-6.78,11.86-6.78,11.86,12.22,2,12.22,5.47-12.22,5.47-12.22,5.47"/><path d="M46.22,0A46.22,46.22,0,1,0,92.45,46.23,46.22,46.22,0,0,0,46.22,0m0,86.34A40.12,40.12,0,1,1,86.34,46.23,40.12,40.12,0,0,1,46.22,86.34"/><path d="M121.1,71.9a.37.37,0,0,1-.17,0,.46.46,0,0,1-.24-.07.39.39,0,0,1-.16-.2l-.79-1.86h-3.63l-.79,1.86a.43.43,0,0,1-.24.24.41.41,0,0,1-.34,0,.43.43,0,0,1-.24-.24.4.4,0,0,1,0-.34l.9-2.13,2.11-4.95a.4.4,0,0,1,.16-.2.46.46,0,0,1,.25-.07.44.44,0,0,1,.24.07.4.4,0,0,1,.16.2l1.51,3.54,1.51,3.54a.45.45,0,0,1-.24.58m-3.18-6.35-1.44,3.36h2.87Z"/><path d="M128.41,70.77a3.95,3.95,0,0,1-2.83,1.17,3.87,3.87,0,0,1-1.56-.32,4,4,0,0,1-2.12-2.12,3.86,3.86,0,0,1-.32-1.56,3.75,3.75,0,0,1,.32-1.54,3.87,3.87,0,0,1,.86-1.24A4,4,0,0,1,125.58,64a4,4,0,0,1,2.83,1.17.43.43,0,0,1,.13.31.42.42,0,0,1-.13.31.44.44,0,0,1-.32.14.41.41,0,0,1-.31-.14,3.21,3.21,0,0,0-1-.68,3,3,0,0,0-1.19-.24,3.16,3.16,0,0,0-1.21.23,3.08,3.08,0,0,0-1,.64,3,3,0,0,0-.67,1,2.93,2.93,0,0,0-.25,1.2,3,3,0,0,0,.25,1.21,3.12,3.12,0,0,0,1.65,1.65,3,3,0,0,0,1.21.25,3.1,3.1,0,0,0,2.07-.78V68.38h-2a.44.44,0,0,1-.32-.13.43.43,0,0,1-.13-.31.44.44,0,0,1,.45-.45h2.46a.44.44,0,0,1,.45.45v2.51a.43.43,0,0,1-.13.31"/><path d="M133.92,71.94h-3.44a.44.44,0,0,1-.32-.13.42.42,0,0,1-.13-.31v-7a.42.42,0,0,1,.13-.31.43.43,0,0,1,.32-.13h3.44a.43.43,0,0,1,.32.13.44.44,0,0,1,0,.63.44.44,0,0,1-.32.13h-3v2.55h2.53a.43.43,0,0,1,.31.13.42.42,0,0,1,.13.32.45.45,0,0,1-.44.44h-2.53V71h3a.45.45,0,0,1,.45.45.43.43,0,0,1-.13.31.44.44,0,0,1-.32.13"/><path d="M140.11,71.94a.42.42,0,0,1-.38-.21L136.11,66v5.5a.43.43,0,0,1-.12.31.42.42,0,0,1-.32.13.44.44,0,0,1-.44-.44v-7a.45.45,0,0,1,.82-.24L139.66,70V64.48a.43.43,0,0,1,.13-.31.42.42,0,0,1,.32-.13.44.44,0,0,1,.44.44v7a.44.44,0,0,1-.44.44"/><path d="M145.77,71.94a3.87,3.87,0,0,1-1.56-.31,4,4,0,0,1-2.12-2.12,3.87,3.87,0,0,1-.32-1.56,3.77,3.77,0,0,1,.32-1.54,3.91,3.91,0,0,1,.86-1.24,4,4,0,0,1,1.27-.83,4,4,0,0,1,1.56-.3,4,4,0,0,1,1.52.29,3.92,3.92,0,0,1,1.29.87.45.45,0,0,1,.14.32.41.41,0,0,1-.14.31.44.44,0,0,1-.62,0,3,3,0,0,0-2.19-.91,3.16,3.16,0,0,0-2.2.88,3,3,0,0,0-.9,2.15,3,3,0,0,0,.25,1.21,3.12,3.12,0,0,0,1.65,1.65,3,3,0,0,0,1.21.24,3.09,3.09,0,0,0,1.18-.23,3.16,3.16,0,0,0,1-.67.44.44,0,1,1,.62.62,4,4,0,0,1-1.29.87,3.91,3.91,0,0,1-1.52.3"/><path d="M150.27,71.94a.44.44,0,0,1-.32-.13.42.42,0,0,1-.13-.31v-7a.42.42,0,0,1,.13-.31.43.43,0,0,1,.32-.13.45.45,0,0,1,.44.44v7a.45.45,0,0,1-.44.44"/><path d="M158.18,71.9a.37.37,0,0,1-.17,0,.46.46,0,0,1-.24-.07.39.39,0,0,1-.16-.2l-.79-1.86h-3.63l-.79,1.86a.43.43,0,0,1-.24.24.41.41,0,0,1-.34,0,.43.43,0,0,1-.24-.24.4.4,0,0,1,0-.34l.9-2.13,2.11-4.95a.41.41,0,0,1,.16-.2A.46.46,0,0,1,155,64a.44.44,0,0,1,.24.07.4.4,0,0,1,.16.2l1.51,3.54,1.51,3.54a.44.44,0,0,1,0,.34.43.43,0,0,1-.24.24M155,65.55l-1.44,3.36h2.87Z"/><path d="M165.35,71.94h-2.46a.45.45,0,0,1-.41-.61V64.48a.42.42,0,0,1,.13-.31.44.44,0,0,1,.32-.13h2.41a3.06,3.06,0,0,1,1.44.34,3.61,3.61,0,0,1,1.11.89,4.08,4.08,0,0,1,.71,1.25,4.33,4.33,0,0,1-.05,3,4.14,4.14,0,0,1-.8,1.26,3.62,3.62,0,0,1-1.13.82,3,3,0,0,1-1.27.29m0-7h-2v6.14h2a2.06,2.06,0,0,0,1-.27,2.91,2.91,0,0,0,.83-.72,3.4,3.4,0,0,0,.55-3.24,3.22,3.22,0,0,0-.54-1,2.65,2.65,0,0,0-.83-.68,2.26,2.26,0,0,0-1.07-.26"/><path d="M174,71.94h-3.44a.44.44,0,0,1-.32-.13.42.42,0,0,1-.13-.31v-7a.42.42,0,0,1,.13-.31.43.43,0,0,1,.32-.13H174a.43.43,0,0,1,.32.13.44.44,0,0,1,0,.63.44.44,0,0,1-.32.13h-3v2.55h2.53a.43.43,0,0,1,.31.13.42.42,0,0,1,.13.32.45.45,0,0,1-.44.44H171V71h3a.45.45,0,0,1,.45.45.43.43,0,0,1-.13.31.44.44,0,0,1-.32.13"/><path d="M181.41,71.94h-2.46a.45.45,0,0,1-.41-.61V64.48a.42.42,0,0,1,.13-.31A.44.44,0,0,1,179,64h2.41a3.06,3.06,0,0,1,1.44.34,3.61,3.61,0,0,1,1.11.89,4.08,4.08,0,0,1,.71,1.25,4.33,4.33,0,0,1-.05,3,4.14,4.14,0,0,1-.8,1.26,3.62,3.62,0,0,1-1.13.82,3,3,0,0,1-1.27.29m0-7h-2v6.14h2a2.06,2.06,0,0,0,1-.27,2.91,2.91,0,0,0,.83-.72,3.4,3.4,0,0,0,.55-3.24,3.22,3.22,0,0,0-.54-1,2.65,2.65,0,0,0-.83-.68,2.26,2.26,0,0,0-1.07-.26"/><path d="M190,71.94H186.6a.44.44,0,0,1-.32-.13.42.42,0,0,1-.13-.31v-7a.42.42,0,0,1,.13-.31.43.43,0,0,1,.32-.13H190a.43.43,0,0,1,.32.13.44.44,0,0,1,0,.63.44.44,0,0,1-.32.13h-3v2.55h2.53a.43.43,0,0,1,.31.13.42.42,0,0,1,.13.32.45.45,0,0,1-.44.44H187V71h3a.45.45,0,0,1,.45.45.43.43,0,0,1-.13.31.44.44,0,0,1-.32.13"/><path d="M193.19,71.94a2.14,2.14,0,0,1-.86-.17,2.28,2.28,0,0,1-.7-.48,2.25,2.25,0,0,1-.47-.7,2.12,2.12,0,0,1-.18-.86.44.44,0,0,1,.45-.45.42.42,0,0,1,.31.13.44.44,0,0,1,.13.32,1.28,1.28,0,0,0,.1.51,1.38,1.38,0,0,0,.29.42,1.34,1.34,0,0,0,.42.29,1.27,1.27,0,0,0,.51.1,1.3,1.3,0,0,0,.52-.1,1.34,1.34,0,0,0,.71-.71,1.26,1.26,0,0,0,.11-.51,1,1,0,0,0-.13-.54,1.23,1.23,0,0,0-.36-.38,1.61,1.61,0,0,0-.25-.15l-.29-.13-.31-.12-.33-.12c-.22-.08-.44-.17-.67-.27a2.5,2.5,0,0,1-.6-.37,1.77,1.77,0,0,1-.43-.56,1.8,1.8,0,0,1-.17-.82,2.12,2.12,0,0,1,.18-.86,2.25,2.25,0,0,1,1.18-1.18,2.14,2.14,0,0,1,.86-.17,2.17,2.17,0,0,1,.87.17,2.23,2.23,0,0,1,.71.48,2.27,2.27,0,0,1,.48.7,2.12,2.12,0,0,1,.17.86.43.43,0,0,1-.13.31.44.44,0,0,1-.32.13.44.44,0,0,1-.44-.44,1.3,1.3,0,0,0-.11-.52,1.32,1.32,0,0,0-.71-.71,1.3,1.3,0,0,0-.52-.11,1.27,1.27,0,0,0-.51.11,1.34,1.34,0,0,0-.71.71,1.31,1.31,0,0,0-.1.52.93.93,0,0,0,.12.5,1.16,1.16,0,0,0,.36.35,3.41,3.41,0,0,0,.54.27l.32.12.33.12c.22.08.44.17.67.28a2.46,2.46,0,0,1,.6.39,1.85,1.85,0,0,1,.43.58,2,2,0,0,1,.17.86,2.12,2.12,0,0,1-.17.86,2.24,2.24,0,0,1-1.18,1.18,2.17,2.17,0,0,1-.87.17"/><path d="M202.55,71.9a.37.37,0,0,1-.17,0,.46.46,0,0,1-.25-.07.39.39,0,0,1-.16-.2l-.79-1.86h-3.63l-.79,1.86a.43.43,0,0,1-.24.24.4.4,0,0,1-.34,0,.43.43,0,0,1-.24-.24.4.4,0,0,1,0-.34l.9-2.13L199,64.24a.4.4,0,0,1,.16-.2.46.46,0,0,1,.25-.07.45.45,0,0,1,.24.07.41.41,0,0,1,.16.2l1.51,3.54,1.51,3.54a.45.45,0,0,1-.24.58m-3.18-6.35-1.44,3.36h2.87Z"/><path d="M205.86,68.46h-.12l.13-.23,1.81,3a.48.48,0,0,1,.06.23.44.44,0,0,1-.44.44.45.45,0,0,1-.23-.06.45.45,0,0,1-.16-.16L205,68.46h-.43v3a.45.45,0,0,1-.44.44.43.43,0,0,1-.32-.13.42.42,0,0,1-.13-.31v-7a.42.42,0,0,1,.13-.31.43.43,0,0,1,.32-.13h1.76a2.17,2.17,0,0,1,.87.18,2.23,2.23,0,0,1,.71.48,2.27,2.27,0,0,1,.48.7,2.2,2.2,0,0,1,0,1.72,2.27,2.27,0,0,1-.48.7,2.24,2.24,0,0,1-.71.47,2.16,2.16,0,0,1-.87.18m0-3.54h-1.32v2.65h1.32a1.3,1.3,0,0,0,.52-.11,1.33,1.33,0,0,0,.71-.71,1.26,1.26,0,0,0,.11-.51,1.3,1.3,0,0,0-.11-.52,1.32,1.32,0,0,0-.71-.71,1.3,1.3,0,0,0-.52-.11"/><path d="M211.29,68.46h-.12l.13-.23,1.81,3a.48.48,0,0,1,.06.23.43.43,0,0,1-.13.31.42.42,0,0,1-.31.13.45.45,0,0,1-.23-.06.45.45,0,0,1-.16-.16l-1.94-3.25H210v3a.44.44,0,0,1-.44.44.44.44,0,0,1-.32-.13.43.43,0,0,1-.13-.31v-7a.43.43,0,0,1,.13-.31.44.44,0,0,1,.32-.13h1.76a2.17,2.17,0,0,1,.86.18,2.23,2.23,0,0,1,.71.48,2.25,2.25,0,0,1,.48.7,2.2,2.2,0,0,1,0,1.72,2.23,2.23,0,0,1-1.18,1.18,2.15,2.15,0,0,1-.86.18m0-3.54H210v2.65h1.32a1.29,1.29,0,0,0,.51-.11,1.34,1.34,0,0,0,.43-.29,1.36,1.36,0,0,0,.29-.42,1.26,1.26,0,0,0,.1-.51,1.3,1.3,0,0,0-.1-.52,1.32,1.32,0,0,0-.71-.71,1.29,1.29,0,0,0-.51-.11"/><path d="M218.08,71.94a3.86,3.86,0,0,1-1.54-.31,3.95,3.95,0,0,1-2.1-2.1,4,4,0,0,1,0-3.07,3.95,3.95,0,0,1,2.1-2.1,4,4,0,0,1,3.07,0,3.95,3.95,0,0,1,2.1,2.1,4,4,0,0,1,0,3.07,3.95,3.95,0,0,1-2.1,2.1,3.84,3.84,0,0,1-1.53.31m0-7a3,3,0,0,0-1.19.24,3.13,3.13,0,0,0-1,.65,3,3,0,0,0-.66,1,3.07,3.07,0,0,0,0,2.38,3.08,3.08,0,0,0,1.64,1.64,3.08,3.08,0,0,0,2.38,0,3.06,3.06,0,0,0,1-.66,3.15,3.15,0,0,0,.65-1,3.08,3.08,0,0,0,0-2.38,3,3,0,0,0-1.63-1.63,3,3,0,0,0-1.19-.24"/><path d="M226.37,71.94H223.7a.44.44,0,0,1-.44-.44v-7a.42.42,0,0,1,.13-.31.43.43,0,0,1,.31-.12.43.43,0,0,1,.44.44v6.58h2.23a.44.44,0,0,1,.32.13.44.44,0,0,1,0,.62.44.44,0,0,1-.32.13"/><path d="M230.65,71.94H228a.45.45,0,0,1-.44-.44v-7a.42.42,0,0,1,.13-.31.44.44,0,0,1,.75.31v6.58h2.23a.43.43,0,0,1,.32.13.43.43,0,0,1,0,.62.44.44,0,0,1-.32.13"/><path d="M234.91,71.94a3.86,3.86,0,0,1-1.54-.31,3.95,3.95,0,0,1-2.1-2.1,4,4,0,0,1,0-3.07,3.95,3.95,0,0,1,2.1-2.1,4,4,0,0,1,3.07,0,3.95,3.95,0,0,1,2.1,2.1,4,4,0,0,1,0,3.07,3.95,3.95,0,0,1-2.1,2.1,3.83,3.83,0,0,1-1.53.31m0-7a3,3,0,0,0-1.19.24,3.11,3.11,0,0,0-1,.65,3,3,0,0,0-.66,1,3.08,3.08,0,0,0,0,2.38,3.09,3.09,0,0,0,1.64,1.64,3.08,3.08,0,0,0,2.38,0,3,3,0,0,0,1-.66,3.13,3.13,0,0,0,.66-1,3.07,3.07,0,0,0,0-2.38,3,3,0,0,0-1.63-1.63,3,3,0,0,0-1.19-.24"/><path d="M191.55,80.48h-1.32v3a.44.44,0,0,1-.44.44.44.44,0,0,1-.32-.13.43.43,0,0,1-.13-.31v-7a.43.43,0,0,1,.13-.31.44.44,0,0,1,.32-.13h1.76a2.17,2.17,0,0,1,.87.18,2.24,2.24,0,0,1,1.18,1.18,2.2,2.2,0,0,1,0,1.72,2.23,2.23,0,0,1-1.18,1.18,2.16,2.16,0,0,1-.87.18m0-3.54h-1.32v2.65h1.32a1.3,1.3,0,0,0,.52-.11,1.35,1.35,0,0,0,.43-.29,1.36,1.36,0,0,0,.29-.42,1.26,1.26,0,0,0,.1-.51,1.3,1.3,0,0,0-.1-.52,1.32,1.32,0,0,0-.71-.71,1.3,1.3,0,0,0-.52-.11"/><path d="M199.95,83.91a.37.37,0,0,1-.17,0,.46.46,0,0,1-.24-.07.39.39,0,0,1-.16-.2l-.79-1.86h-3.63l-.79,1.86a.43.43,0,0,1-.24.24.41.41,0,0,1-.34,0,.43.43,0,0,1-.24-.24.4.4,0,0,1,0-.34l.9-2.13,2.11-4.95a.4.4,0,0,1,.16-.2.46.46,0,0,1,.25-.07.44.44,0,0,1,.24.07.4.4,0,0,1,.16.2l1.51,3.54,1.51,3.54a.44.44,0,0,1-.24.58m-3.18-6.35-1.44,3.36h2.87Z"/><path d="M205.07,76.71l-2.27,4.06v2.73a.44.44,0,0,1-.88,0V80.78l-2.27-4.06a.44.44,0,0,1,.07-.53.43.43,0,0,1,.31-.13.46.46,0,0,1,.39.22l1.94,3.47,1.94-3.47a.45.45,0,0,1,.17-.16.45.45,0,0,1,.23-.06.44.44,0,0,1,.44.44.42.42,0,0,1-.06.22"/><path d="M207.75,84a2.14,2.14,0,0,1-.86-.17,2.26,2.26,0,0,1-1.18-1.18,2.13,2.13,0,0,1-.18-.86.44.44,0,0,1,.45-.45.42.42,0,0,1,.31.13.44.44,0,0,1,.13.32,1.28,1.28,0,0,0,.1.51,1.36,1.36,0,0,0,.29.42,1.34,1.34,0,0,0,.42.29,1.27,1.27,0,0,0,.51.1,1.29,1.29,0,0,0,.51-.1,1.32,1.32,0,0,0,.43-.29,1.36,1.36,0,0,0,.29-.42,1.26,1.26,0,0,0,.1-.51,1,1,0,0,0-.13-.54,1.25,1.25,0,0,0-.36-.38,1.58,1.58,0,0,0-.25-.15l-.29-.13-.31-.12-.33-.12-.67-.27a2.51,2.51,0,0,1-.6-.37,1.77,1.77,0,0,1-.43-.56,1.8,1.8,0,0,1-.17-.82,2.13,2.13,0,0,1,.18-.86,2.26,2.26,0,0,1,1.18-1.18,2.14,2.14,0,0,1,.86-.17,2.17,2.17,0,0,1,.86.17,2.23,2.23,0,0,1,.71.48,2.25,2.25,0,0,1,.48.7,2.12,2.12,0,0,1,.17.86.42.42,0,0,1-.13.31.44.44,0,0,1-.32.13.45.45,0,0,1-.44-.44,1.29,1.29,0,0,0-.1-.52,1.32,1.32,0,0,0-.71-.71,1.29,1.29,0,0,0-.51-.11,1.27,1.27,0,0,0-.51.11,1.34,1.34,0,0,0-.71.71,1.31,1.31,0,0,0-.1.52.93.93,0,0,0,.13.5,1.16,1.16,0,0,0,.36.35,3.4,3.4,0,0,0,.54.27l.32.12.33.12q.33.12.67.28a2.48,2.48,0,0,1,.6.39,1.86,1.86,0,0,1,.43.58,2,2,0,0,1,.17.86,2.12,2.12,0,0,1-.17.86,2.24,2.24,0,0,1-1.18,1.18,2.17,2.17,0,0,1-.86.17"/><path d="M217.11,83.91a.37.37,0,0,1-.17,0,.46.46,0,0,1-.24-.07.39.39,0,0,1-.16-.2l-.79-1.86h-3.63l-.79,1.86a.43.43,0,0,1-.24.24.4.4,0,0,1-.34,0,.42.42,0,0,1-.24-.24.4.4,0,0,1,0-.34l.9-2.13,2.11-4.95a.4.4,0,0,1,.16-.2.46.46,0,0,1,.25-.07.45.45,0,0,1,.24.07.4.4,0,0,1,.16.2l1.51,3.54,1.51,3.54a.45.45,0,0,1-.24.58m-3.18-6.35-1.44,3.36h2.87Z"/><path d="M223.08,84a.42.42,0,0,1-.38-.21L219.09,78v5.5a.44.44,0,0,1-.12.31.44.44,0,0,1-.76-.31v-7a.44.44,0,0,1,.44-.44.43.43,0,0,1,.38.2L222.64,82V76.49a.43.43,0,0,1,.13-.31.44.44,0,0,1,.63,0,.42.42,0,0,1,.13.31v7a.45.45,0,0,1-.44.44"/><path d="M228,84h-2.46a.42.42,0,0,1-.23-.07.42.42,0,0,1-.16-.18.42.42,0,0,1,0-.36V76.49a.42.42,0,0,1,.13-.31.43.43,0,0,1,.32-.13h2.41a3.06,3.06,0,0,1,1.44.34,3.61,3.61,0,0,1,1.11.89,4.06,4.06,0,0,1,.71,1.25,4.32,4.32,0,0,1-.05,3,4.12,4.12,0,0,1-.8,1.26,3.62,3.62,0,0,1-1.13.82A3,3,0,0,1,228,84m0-7h-2v6.14h2a2.06,2.06,0,0,0,1-.27,2.92,2.92,0,0,0,.83-.72,3.4,3.4,0,0,0,.55-3.24,3.19,3.19,0,0,0-.54-1,2.66,2.66,0,0,0-.83-.68,2.26,2.26,0,0,0-1.07-.26"/><path d="M155.36,55.56a5,5,0,0,1-6.74-2.63l-2.25-5.07H126.73l-2.31,5.07a5.09,5.09,0,1,1-9.31-4.11l16.63-37.18a5.26,5.26,0,0,1,2.7-2.7,5.84,5.84,0,0,1,4.17,0,5.26,5.26,0,0,1,2.7,2.7l16.63,37.18a5.2,5.2,0,0,1-2.57,6.74M141.75,37.65,136.55,26l-5.2,11.69Z"/><path d="M202.88,32.25A23.79,23.79,0,0,1,179.12,56H168.46a5.07,5.07,0,0,1-4.94-5.14V13.63a5.15,5.15,0,0,1,5.14-5.14h10.47a23.79,23.79,0,0,1,23.76,23.76m-10.34,0a13.47,13.47,0,0,0-13.42-13.48h-5.33v27h5.33a13.47,13.47,0,0,0,13.42-13.48"/><path d="M237.23,23.2A14.77,14.77,0,0,1,222.46,38h-4.82V50.87a5.14,5.14,0,1,1-10.27,0V13.63a5.11,5.11,0,0,1,5.14-5.14h10a14.76,14.76,0,0,1,14.77,14.7M227,23.2a4.45,4.45,0,0,0-4.5-4.43h-4.82v8.93h4.82a4.43,4.43,0,0,0,4.5-4.5"/></g></g></svg>