<svg xmlns="http://www.w3.org/2000/svg" viewBox="0 0 146 146"><defs><style>.cls-1{fill:#fff;}</style></defs><title>bardge-white</title><g id="Layer_2" data-name="Layer 2"><g id="Main"><path class="cls-1" d="M73,146a73,73,0,1,1,73-73A73.09,73.09,0,0,1,73,146ZM73,2.29A70.71,70.71,0,1,0,143.71,73,70.79,70.79,0,0,0,73,2.29Z"/><path class="cls-1" d="M73,113.13A40.13,40.13,0,1,1,113.13,73,40.17,40.17,0,0,1,73,113.13Zm0-78A37.84,37.84,0,1,0,110.84,73,37.89,37.89,0,0,0,73,35.16Z"/><path class="cls-1" d="M28.33,52l-1,2.2-8.68-3.83-1.41,3.18-1.86-.82,3.78-8.57,1.87.82-1.41,3.19Z"/><path class="cls-1" d="M27.35,35.63l-3.52,5,2,1.39,3.24-4.59,1.66,1.17-3.23,4.6,2.44,1.71L33.6,39.7l1.67,1.17-5,7.16L20.8,41.4l4.88-6.94Z"/><path class="cls-1" d="M28.39,31.34l3.74-3.45c2.86-2.64,5.69-.75,7.17.86,1.67,1.82,3.37,5.1.57,7.68L36.2,39.81Zm8.2,5.41,1.72-1.59c1.44-1.33.58-3.22-.7-4.62-2.31-2.5-3.68-1.6-4.44-.91l-1.7,1.57Z"/><path class="cls-1" d="M50.9,28.66l-2.37,1.45-2.6-1.42.08,3L43.7,33.07l.21-5.23-4.57-2.11,2.33-1.43,2.53,1.37-.09-2.86,2.25-1.38-.21,5Z"/><path class="cls-1" d="M57.33,26.13l-1.5.42L52.72,15.46l5-1.4a3.14,3.14,0,0,1,4.16,2.2,3.21,3.21,0,0,1-2.37,4.21l-3.49,1Zm-1.67-6,3-.84c1.35-.37,2.12-1.12,1.7-2.62s-1.48-1.59-2.71-1.24l-3.05.85Z"/><path class="cls-1" d="M65.16,20.83l-.85,3.46-1.59.17,3.11-11.92,1.76-.18,5.35,11-1.7.18-1.48-3.22Zm3.9-1.8-2.22-4.87h0L65.5,19.4Z"/><path class="cls-1" d="M77.2,23.83l-1.55-.11L76,19.09,72.1,11.93l1.8.12,2.93,5.75,3.67-5.3,1.83.13L77.52,19.2Z"/><path class="cls-1" d="M91.32,18.41c.41-1.74-.86-2.68-2.11-3-.95-.27-2.61-.45-3.09,1.23A1.47,1.47,0,0,0,87,18.39L90,20a3,3,0,0,1,1.69,3.67c-.74,2.63-3.39,2.67-5.29,2.13a4.55,4.55,0,0,1-3.05-2A3.53,3.53,0,0,1,83,20.67l1.41.4c-.57,2,.91,3.06,2.33,3.46,1.08.3,3,.54,3.43-1.05.33-1.16-.11-1.69-1.81-2.63l-2.13-1.17a2.77,2.77,0,0,1-1.63-3.28c.49-1.73,2.1-3.11,4.79-2.35,3.88,1.09,3.61,3.52,3.33,4.76Z"/><path class="cls-1" d="M95.31,25.19,92.69,27.6l-1.42-.74,9.17-8.21,1.57.82-1.64,12.15-1.51-.79.55-3.5Zm4.24.65.84-5.28,0,0-4,3.65Z"/><path class="cls-1" d="M114.3,28.19l1.16,1L108.08,38l-1.34-1.12L108.2,26l0,0-6,7.15-1.16-1,7.37-8.85,1.42,1.18-1.53,10.84,0,0Z"/><path class="cls-1" d="M118.58,32.41l2.84,3.7c1.83,2.38,1.15,5.24-1.49,7.26-2.05,1.57-5.38,2.72-7.69-.29l-2.8-3.66Zm-7.14,7.44,1.84,2.39c1.23,1.61,3.29,1.68,5.6-.08s2.65-3.72,1.36-5.4l-1.77-2.31Z"/><path class="cls-1" d="M130.2,51.65l-6.79,3.13c-2.14,1-4.57.49-5.9-2.39s-.05-4.85,1.91-5.76l7-3.22.65,1.41-6.59,3c-2.27,1.05-2.26,2.72-1.67,4s1.87,2.48,4.14,1.43l6.62-3.06Zm-.73-4.26-.45-1,2.66.35.73,1.57Z"/><path class="cls-1" d="M117.67,94l1-2.2,8.68,3.83,1.41-3.18,1.86.82-3.78,8.57-1.87-.82,1.41-3.19Z"/><path class="cls-1" d="M118.65,110.36l3.52-5-2-1.39L117,108.56l-1.66-1.17,3.23-4.6-2.44-1.72-3.68,5.23-1.67-1.17,5-7.16,9.43,6.63-4.88,6.94Z"/><path class="cls-1" d="M117.61,114.66l-3.74,3.45c-2.86,2.64-5.69.75-7.17-.86-1.67-1.82-3.37-5.1-.57-7.68l3.67-3.38Zm-8.2-5.41-1.72,1.59c-1.44,1.33-.58,3.22.7,4.62,2.31,2.5,3.68,1.6,4.44.91l1.7-1.57Z"/><path class="cls-1" d="M95.1,117.34l2.37-1.45,2.6,1.42-.08-3,2.31-1.42-.21,5.23,4.57,2.11-2.33,1.43-2.53-1.37.09,2.86-2.26,1.38.22-5Z"/><path class="cls-1" d="M88.67,119.87l1.5-.42,3.11,11.09-5,1.4a3.14,3.14,0,0,1-4.16-2.2,3.21,3.21,0,0,1,2.37-4.21l3.49-1Zm1.67,6-3,.84c-1.35.37-2.12,1.12-1.7,2.62s1.48,1.59,2.71,1.24l3-.85Z"/><path class="cls-1" d="M80.84,125.17l.85-3.46,1.59-.17-3.11,11.92-1.76.18-5.35-11,1.7-.18,1.48,3.22Zm-3.9,1.8,2.22,4.87h0l1.31-5.23Z"/><path class="cls-1" d="M68.8,122.17l1.55.11L70,126.91l3.87,7.16L72.1,134l-2.93-5.75-3.67,5.3-1.83-.13,4.81-6.57Z"/><path class="cls-1" d="M54.68,127.59c-.41,1.74.86,2.68,2.11,3,1,.27,2.61.45,3.09-1.23a1.47,1.47,0,0,0-.92-1.78L56,126a3,3,0,0,1-1.69-3.67c.74-2.63,3.39-2.67,5.29-2.13a4.55,4.55,0,0,1,3,2,3.53,3.53,0,0,1,.34,3.13l-1.41-.4c.57-2-.91-3.06-2.33-3.46-1.08-.3-3-.54-3.43,1-.33,1.16.11,1.69,1.81,2.63l2.13,1.17a2.77,2.77,0,0,1,1.63,3.28c-.49,1.73-2.1,3.11-4.79,2.35-3.88-1.09-3.61-3.52-3.33-4.76Z"/><path class="cls-1" d="M50.69,120.81l2.62-2.41,1.42.74-9.17,8.21L44,126.53l1.64-12.15,1.51.79-.55,3.5Zm-4.24-.65-.84,5.28,0,0,4-3.65Z"/><path class="cls-1" d="M31.7,117.81l-1.16-1L37.92,108l1.34,1.12L37.8,120l0,0,6-7.15,1.16,1-7.38,8.85-1.41-1.18,1.53-10.84,0,0Z"/><path class="cls-1" d="M27.42,113.59l-2.85-3.7c-1.82-2.38-1.14-5.24,1.5-7.26,2.05-1.57,5.38-2.72,7.69.29l2.8,3.66Zm7.14-7.44-1.84-2.39c-1.23-1.61-3.29-1.68-5.6.08s-2.65,3.72-1.36,5.4l1.77,2.31Z"/><path class="cls-1" d="M16.53,98.61l.45,1-2.66-.35-.73-1.57Zm-.73-4.26,6.79-3.13c2.14-1,4.57-.49,5.9,2.39s.05,4.85-1.91,5.76l-7,3.22L19,101.18l6.59-3.05c2.27-1,2.26-2.72,1.67-4s-1.87-2.48-4.14-1.43l-6.62,3.06Z"/><rect class="cls-1" x="17.58" y="66.67" width="3.06" height="11.89" transform="translate(-45.75 34.78) rotate(-45)"/><rect class="cls-1" x="13.16" y="71.09" width="11.89" height="3.06" transform="translate(-45.75 34.78) rotate(-45)"/><rect class="cls-1" x="125.36" y="66.67" width="3.06" height="11.89" transform="translate(-14.18 110.99) rotate(-45)"/><rect class="cls-1" x="120.94" y="71.09" width="11.89" height="3.06" transform="translate(-14.18 110.99) rotate(-45)"/></g></g></svg>