<svg xmlns="http://www.w3.org/2000/svg" viewBox="0 0 34.51 34.51"><defs><style>.cls-1{fill-rule:evenodd;}</style></defs><title>icon-ig</title><g id="Layer_2" data-name="Layer 2"><g id="Main"><path class="cls-1" d="M17.26,3.11c4.6,0,5.15,0,7,.1a9.77,9.77,0,0,1,3.2.59,5.41,5.41,0,0,1,2,1.3,5.27,5.27,0,0,1,1.29,2,9.31,9.31,0,0,1,.59,3.2c.09,1.82.1,2.37.1,7s0,5.15-.1,7a9.25,9.25,0,0,1-.59,3.2,5.68,5.68,0,0,1-3.28,3.28,9.25,9.25,0,0,1-3.2.59c-1.82.09-2.37.1-7,.1s-5.16,0-7-.1a9.31,9.31,0,0,1-3.2-.59,5.39,5.39,0,0,1-2-1.29,5.52,5.52,0,0,1-1.29-2,9.77,9.77,0,0,1-.59-3.2c-.08-1.82-.1-2.37-.1-7s0-5.16.1-7a9.83,9.83,0,0,1,.59-3.2,5.4,5.4,0,0,1,1.29-2,5.41,5.41,0,0,1,2-1.3,9.83,9.83,0,0,1,3.2-.59c1.82-.08,2.37-.1,7-.1m0-3.11C12.57,0,12,0,10.14.1A12.72,12.72,0,0,0,6,.91a8.46,8.46,0,0,0-3.05,2A8.46,8.46,0,0,0,.91,6,12.72,12.72,0,0,0,.1,10.14C0,12,0,12.57,0,17.26s0,5.27.1,7.11a12.72,12.72,0,0,0,.81,4.19,8.83,8.83,0,0,0,5,5.05,12.75,12.75,0,0,0,4.19.8c1.84.08,2.43.1,7.12.1s5.27,0,7.11-.1a12.75,12.75,0,0,0,4.19-.8,8.8,8.8,0,0,0,5.05-5.05,12.75,12.75,0,0,0,.8-4.19c.08-1.84.1-2.43.1-7.11s0-5.28-.1-7.12A12.75,12.75,0,0,0,33.61,6a8.83,8.83,0,0,0-5.05-5A12.72,12.72,0,0,0,24.37.1C22.53,0,21.94,0,17.26,0Zm0,8.42a8.87,8.87,0,1,0,8.87,8.87,8.87,8.87,0,0,0-8.87-8.87Zm0,14.63a5.76,5.76,0,1,1,5.76-5.76,5.76,5.76,0,0,1-5.76,5.76ZM28.49,8a2.06,2.06,0,1,1-2.06-2A2.06,2.06,0,0,1,28.49,8Z"/></g></g></svg>