<svg xmlns="http://www.w3.org/2000/svg" viewBox="0 0 33 33"><title>icon-in</title><g id="Layer_2" data-name="Layer 2"><g id="Main"><path d="M28.11,27.62H23.23V20c0-1.82,0-4.17-2.55-4.17s-2.94,2-2.94,4v7.79H12.86V11.88h4.69V14h.07a5.13,5.13,0,0,1,4.63-2.54c4.95,0,5.87,3.26,5.87,7.5v8.64ZM7.34,9.72a2.84,2.84,0,1,1,2.84-2.84A2.84,2.84,0,0,1,7.34,9.72Zm2.45,17.9H4.89V11.88h4.9ZM30.56,0H2.44A2.41,2.41,0,0,0,0,2.38V30.62A2.41,2.41,0,0,0,2.44,33H30.56A2.41,2.41,0,0,0,33,30.62V2.38A2.41,2.41,0,0,0,30.56,0Z"/></g></g></svg>