<svg xmlns="http://www.w3.org/2000/svg" viewBox="0 0 34.51 29.58"><defs><style>.cls-1{fill-rule:evenodd;}</style></defs><title>icon-tw</title><g id="Layer_2" data-name="Layer 2"><g id="Main"><path class="cls-1" d="M30.45,4.68A7.47,7.47,0,0,0,33.56.55a14,14,0,0,1-4.5,1.81A6.91,6.91,0,0,0,23.89,0a7.27,7.27,0,0,0-7.07,7.47A7.38,7.38,0,0,0,17,9.17,19.76,19.76,0,0,1,2.4,1.36a7.78,7.78,0,0,0-1,3.76,7.59,7.59,0,0,0,3.15,6.22,6.75,6.75,0,0,1-3.2-.94v.1a7.37,7.37,0,0,0,5.68,7.32,6.81,6.81,0,0,1-1.87.26A6.45,6.45,0,0,1,3.87,18a7.13,7.13,0,0,0,6.61,5.18,13.69,13.69,0,0,1-8.79,3.2A13.46,13.46,0,0,1,0,26.23a19.28,19.28,0,0,0,10.85,3.35C23.88,29.58,31,18.2,31,8.33c0-.32,0-.64,0-1A14.67,14.67,0,0,0,34.51,3.5a13.39,13.39,0,0,1-4.06,1.18Z"/></g></g></svg>