<svg xmlns="http://www.w3.org/2000/svg" viewBox="0 0 36 25.36"><defs><style>.cls-1{fill:red;}.cls-2{fill:#fff;}</style></defs><title>icon-streaming</title><g id="Layer_2" data-name="Layer 2"><g id="Main"><g id="_Group_" data-name="&lt;Group&gt;"><path id="_Path_" data-name="&lt;Path&gt;" class="cls-1" d="M35.25,4A4.52,4.52,0,0,0,32.06.76C29.26,0,18,0,18,0S6.74,0,3.94.76A4.52,4.52,0,0,0,.75,4C0,6.79,0,12.68,0,12.68s0,5.9.75,8.72a4.55,4.55,0,0,0,3.19,3.21c2.8.75,14.06.75,14.06.75s11.26,0,14.06-.75a4.55,4.55,0,0,0,3.19-3.21c.75-2.82.75-8.72.75-8.72S36,6.79,35.25,4Z"/></g><path class="cls-2" d="M22.94,7.59,21.53,9a5.27,5.27,0,0,1,0,7.28l1.41,1.45a7.34,7.34,0,0,0,0-10.18Zm2.83-2.91L24.36,6.13A9.42,9.42,0,0,1,27,12.69a9.29,9.29,0,0,1-2.64,6.54l1.4,1.45a11.51,11.51,0,0,0,0-16ZM13.06,7.59a7.34,7.34,0,0,0,0,10.18l1.41-1.45a5.27,5.27,0,0,1,0-7.28ZM11.64,6.13l-1.4-1.45a11.51,11.51,0,0,0,0,16l1.41-1.45A9.42,9.42,0,0,1,9,12.67,9.29,9.29,0,0,1,11.64,6.13Z"/><circle class="cls-2" cx="18" cy="12.68" r="3"/></g></g></svg>