<svg xmlns="http://www.w3.org/2000/svg" viewBox="0 0 32.75 32.75"><defs><style>.cls-1{fill:#ff2b06;}</style></defs><title>icon-fb-red</title><g id="Layer_2" data-name="Layer 2"><g id="Main"><path class="cls-1" d="M30.95,0H1.81A1.81,1.81,0,0,0,0,1.81V30.95a1.81,1.81,0,0,0,1.81,1.81h15.7V20.09H13.24v-5h4.26V11.48c0-4.23,2.59-6.53,6.36-6.53a36.25,36.25,0,0,1,3.81.19V9.56h-2.6c-2.06,0-2.46,1-2.46,2.41v3.16h4.91l-.64,5h-4.3V32.75h8.36a1.81,1.81,0,0,0,1.81-1.81h0V1.81A1.81,1.81,0,0,0,30.95,0Z"/></g></g></svg>