<svg xmlns="http://www.w3.org/2000/svg" viewBox="0 0 34.51 34.51"><defs><style>.cls-1{fill:#ff2b06;fill-rule:evenodd;}</style></defs><title>icon-ig-red</title><g id="Layer_2" data-name="Layer 2"><g id="Main"><path class="cls-1" d="M17.26,3.11c4.61,0,5.15,0,7,.1a9.57,9.57,0,0,1,3.2.59,5.35,5.35,0,0,1,2,1.29,5.35,5.35,0,0,1,1.29,2,9.55,9.55,0,0,1,.59,3.2c.08,1.82.1,2.37.1,7s0,5.15-.1,7a9.55,9.55,0,0,1-.59,3.2,5.72,5.72,0,0,1-3.28,3.28,9.56,9.56,0,0,1-3.2.59c-1.82.08-2.36.1-7,.1s-5.15,0-7-.1a9.56,9.56,0,0,1-3.2-.59,5.35,5.35,0,0,1-2-1.29,5.35,5.35,0,0,1-1.29-2,9.54,9.54,0,0,1-.59-3.2c-.08-1.82-.1-2.37-.1-7s0-5.15.1-7a9.55,9.55,0,0,1,.59-3.2,5.34,5.34,0,0,1,1.29-2,5.35,5.35,0,0,1,2-1.29,9.57,9.57,0,0,1,3.2-.59c1.82-.08,2.37-.1,7-.1m0-3.11C12.57,0,12,0,10.14.1A12.67,12.67,0,0,0,6,.91a8.46,8.46,0,0,0-3.06,2A8.46,8.46,0,0,0,.91,6a12.67,12.67,0,0,0-.8,4.19C0,12,0,12.57,0,17.26s0,5.27.1,7.11a12.67,12.67,0,0,0,.8,4.19,8.46,8.46,0,0,0,2,3.06,8.46,8.46,0,0,0,3.06,2,12.67,12.67,0,0,0,4.19.8c1.84.08,2.43.1,7.11.1s5.27,0,7.11-.1a12.67,12.67,0,0,0,4.19-.8,8.82,8.82,0,0,0,5-5,12.68,12.68,0,0,0,.8-4.19c.08-1.84.1-2.43.1-7.11s0-5.27-.1-7.11A12.68,12.68,0,0,0,33.61,6a8.47,8.47,0,0,0-2-3.06,8.46,8.46,0,0,0-3.06-2A12.66,12.66,0,0,0,24.37.1C22.53,0,21.94,0,17.26,0Zm0,8.42a8.87,8.87,0,1,0,8.87,8.87,8.87,8.87,0,0,0-8.87-8.87Zm0,14.62A5.76,5.76,0,1,1,23,17.29,5.76,5.76,0,0,1,17.29,23ZM28.49,8A2.05,2.05,0,1,1,26.43,6,2.05,2.05,0,0,1,28.49,8Zm0,0"/></g></g></svg>