<svg xmlns="http://www.w3.org/2000/svg" viewBox="0 0 68 20"><defs><style>.cls-1{fill:#ff2b06;}.cls-2{fill:#fff;}</style></defs><title>live-tag</title><g id="Layer_2" data-name="Layer 2"><g id="Main"><rect class="cls-1" width="68" height="20"/><path class="cls-2" d="M14.76,7.18H9.42V9.3h4.91v1.78H9.42v2.6H15v1.78H7.37V5.4h7.39Z"/><path class="cls-2" d="M22.84,5.4h2V15.46H22.7L18.59,8.29h0v7.17h-2V5.4h2.21l4,7h0Z"/><path class="cls-2" d="M35.41,5.4H37.6L34.18,15.46h-2L28.79,5.4H31L33.2,13h0Z"/><path class="cls-2" d="M40.85,15.46h-2.1V5.4h2.1Z"/><path class="cls-2" d="M48.64,5.4h2.19L47.41,15.46h-2L42,5.4h2.25L46.43,13h0Z"/><path class="cls-2" d="M55.84,5.14c1.33,0,4.83.57,4.83,5.29s-3.5,5.3-4.83,5.3S51,15.15,51,10.43,54.5,5.14,55.84,5.14Zm0,8.81c1.13,0,2.73-.7,2.73-3.52S57,6.92,55.84,6.92s-2.74.7-2.74,3.51S54.7,14,55.84,14Z"/></g></g></svg>