<svg xmlns="http://www.w3.org/2000/svg" viewBox="0 0 150 20.74"><defs><style>.cls-1{fill:#ff2b06;}</style></defs><title>logo-tedx-black</title><g id="Layer_2" data-name="Layer 2"><g id="Main"><path class="cls-1" d="M4.42,4.41H0v-4H13.68v4H9.27V16.13H4.42Z"/><path class="cls-1" d="M14.44.37H27.72v4H19.29v2h8.43v3.75H19.29v2h8.43v4H14.44Z"/><path class="cls-1" d="M28.54.37h8c5.25,0,7.11,3.89,7.11,7.86,0,4.83-2.56,7.9-8.06,7.9h-7ZM33.4,12.09h1.89c3,0,3.47-2.45,3.47-3.93a3.48,3.48,0,0,0-3.82-3.75H33.4Z"/><path class="cls-1" d="M50.59,10.06,49.11,7.6l-1.44,2.46H44.11l3.38-5L44.24.34h3.55l1.32,2.35L50.47.34H54L50.78,5.09l3.37,5Z"/><path d="M59.7,16.06H57.58V.35h7.07a4.29,4.29,0,0,1,4.66,4.42,4.38,4.38,0,0,1-4.66,4.66h-5Zm0-8.45h4.23c1.9,0,3.19-.7,3.19-2.82S65.76,2.17,64,2.17H59.7Z"/><path d="M70.77,8.1c.09-2.74,1.91-3.81,4.73-3.81.92,0,4.24.26,4.24,3.19v6.59c0,.48.24.68.64.68a4.14,4.14,0,0,0,.63-.09v1.4a3.41,3.41,0,0,1-1.05.22c-1.7,0-2-.88-2-1.75a5.23,5.23,0,0,1-4.14,1.86,3.3,3.3,0,0,1-3.59-3.31c0-1,.29-3.19,3.48-3.58l3.18-.4c.46,0,1-.22,1-1.35S77,5.89,75.17,5.89c-2.19,0-2.49,1.33-2.62,2.21Zm7,2.12c-.31.24-.79.41-3.17.72-.94.13-2.45.42-2.45,1.86a1.8,1.8,0,0,0,2.07,2c1.8,0,3.55-1.16,3.55-2.69Z"/><path d="M89.5,4.62h2.13C90.29,8.36,89,12.1,87.51,15.84c-1.81,4.64-2,4.9-4.48,4.9a2.67,2.67,0,0,1-.81-.17V18.82a3.57,3.57,0,0,0,1.16.19c1,0,1.11-.28,2-2.64L81.17,4.62h2.18l3.05,9.32h0Z"/><path d="M99.79,7.88c0-.73-.29-1.93-2.72-1.93-.59,0-2.27.2-2.27,1.62,0,.94.59,1.16,2.08,1.53l1.92.48c2.39.59,3.22,1.47,3.22,3,0,2.37-2,3.79-4.53,3.79-4.53,0-4.86-2.63-4.92-4h1.86c.06.9.32,2.35,3,2.35,1.38,0,2.62-.55,2.62-1.82,0-.92-.63-1.23-2.27-1.64l-2.24-.55c-1.59-.39-2.64-1.2-2.64-2.78,0-2.51,2.08-3.65,4.33-3.65,4.09,0,4.38,3,4.38,3.59Z"/><path d="M104.16,8.1c.09-2.74,1.91-3.81,4.73-3.81.92,0,4.24.26,4.24,3.19v6.59c0,.48.24.68.64.68a4.14,4.14,0,0,0,.63-.09v1.4a3.47,3.47,0,0,1-1.05.22c-1.71,0-2-.88-2-1.75a5.23,5.23,0,0,1-4.14,1.86,3.3,3.3,0,0,1-3.59-3.31c0-1,.29-3.19,3.48-3.58l3.17-.4c.46,0,1-.22,1-1.35s-.87-1.86-2.69-1.86a2.28,2.28,0,0,0-2.63,2.21Zm7,2.12c-.31.24-.79.41-3.18.72-.94.13-2.45.42-2.45,1.86a1.81,1.81,0,0,0,2.08,2c1.8,0,3.55-1.16,3.55-2.69Z"/><path d="M125.71,16.06h-1.92V9c0-2-.57-3-2.45-3-1.1,0-3,.7-3,3.8v6.24h-1.93V4.62h1.82V6.24h0a4.15,4.15,0,0,1,3.46-1.95c1.77,0,4,.72,4,4Z"/><path d="M138.05,16.06h-1.81V14.49h-.05a3.44,3.44,0,0,1-3.26,1.9c-3.89,0-5-3.66-5-6.39,0-3.22,1.73-5.71,4.77-5.71a3.84,3.84,0,0,1,3.41,2l0-.16V.35h1.92ZM133,14.73c1.22,0,3.13-.81,3.13-3.86C136.11,9,135.8,6,133,6c-3,0-3.13,2.82-3.13,4.29C129.89,12.82,130.88,14.73,133,14.73Z"/><path d="M148.18,16.06V14.4l0-.05a3.76,3.76,0,0,1-3.63,2c-1.69,0-3.72-.81-3.72-3.55V4.62h1.92v7.59c0,1.88,1,2.52,2.21,2.52,2.43,0,3.15-2.15,3.15-3.81V4.62H150V16.06Zm-2.29-13h-1.47l2-3.09h2.36Z"/></g></g></svg>