<svg xmlns="http://www.w3.org/2000/svg" viewBox="0 0 381 150.18"><defs><style>.cls-1{fill:#ff2b06;}</style></defs><title>logo-description</title><g id="Layer_2" data-name="Layer 2"><g id="Main"><path class="cls-1" d="M5.16,140l-3.68-5.31H5l2,2.93,2-2.93h3.4L8.63,140l4.14,6H9.26L6.92,142.4l-2.34,3.53H1.13Z"/><path d="M27.35,139.3H16.41V137H27.35Zm0,4.64H16.41v-2.32H27.35Z"/><path d="M35.74,133H32.66v-2.54h3.08Zm-3.08,1.73h3.08v11.2H32.66Z"/><path d="M37.73,134.73h2.93v1.56h.06a4,4,0,0,1,3.42-1.86c3.28,0,4.1,1.84,4.1,4.61v6.89H45.16v-6.32c0-1.85-.54-2.76-2-2.76-1.67,0-2.38.94-2.38,3.21v5.87H37.73Z"/><path d="M58.14,144.5h0a3.71,3.71,0,0,1-3.4,1.74c-3.38,0-5-2.91-5-6s1.67-5.8,5-5.8A3.92,3.92,0,0,1,58,136.1h0v-5.64h3.08v15.47H58.14Zm-2.68-7.75c-2,0-2.71,1.73-2.71,3.57s.8,3.6,2.71,3.6,2.64-1.78,2.64-3.62S57.45,136.75,55.46,136.75Z"/><path d="M65.49,141.08c.08,1.95,1,2.84,2.75,2.84a2.55,2.55,0,0,0,2.43-1.45h2.71a5,5,0,0,1-5.25,3.77c-3.53,0-5.72-2.43-5.72-5.9a5.61,5.61,0,0,1,5.72-5.91c3.81,0,5.66,3.2,5.44,6.65Zm5-2c-.28-1.56-.95-2.38-2.45-2.38a2.41,2.41,0,0,0-2.55,2.38Z"/><path d="M75,134.73h2.92v1.43h.05a3.72,3.72,0,0,1,3.33-1.73c3.51,0,5.09,2.84,5.09,6,0,3-1.64,5.79-4.91,5.79a4,4,0,0,1-3.36-1.69h0v5.33H75Zm8.32,5.63c0-1.77-.72-3.61-2.69-3.61s-2.66,1.79-2.66,3.61.69,3.56,2.68,3.56S83.28,142.18,83.28,140.36Z"/><path d="M90.3,141.08c.08,1.95,1,2.84,2.75,2.84a2.55,2.55,0,0,0,2.43-1.45h2.71a5,5,0,0,1-5.25,3.77c-3.53,0-5.72-2.43-5.72-5.9a5.61,5.61,0,0,1,5.72-5.91c3.82,0,5.66,3.2,5.44,6.65Zm5-2c-.28-1.56-1-2.38-2.45-2.38a2.41,2.41,0,0,0-2.55,2.38Z"/><path d="M99.77,134.73h2.92v1.56h.07a4,4,0,0,1,3.42-1.86c3.27,0,4.1,1.84,4.1,4.61v6.89H107.2v-6.32c0-1.85-.54-2.76-2-2.76-1.67,0-2.39.94-2.39,3.21v5.87H99.77Z"/><path d="M120.18,144.5h0a3.73,3.73,0,0,1-3.41,1.74c-3.38,0-5-2.91-5-6s1.66-5.8,5-5.8A3.92,3.92,0,0,1,120,136.1h0v-5.64h3.07v15.47h-2.92Zm-2.69-7.75c-2,0-2.71,1.73-2.71,3.57s.8,3.6,2.71,3.6,2.65-1.78,2.65-3.62S119.48,136.75,117.49,136.75Z"/><path d="M127.52,141.08c.09,1.95,1,2.84,2.76,2.84a2.53,2.53,0,0,0,2.42-1.45h2.71a5,5,0,0,1-5.24,3.77c-3.54,0-5.72-2.43-5.72-5.9a5.61,5.61,0,0,1,5.72-5.91c3.81,0,5.65,3.2,5.44,6.65Zm5-2c-.28-1.56-.95-2.38-2.45-2.38a2.43,2.43,0,0,0-2.56,2.38Z"/><path d="M137,134.73h2.93v1.56H140a4,4,0,0,1,3.43-1.86c3.27,0,4.09,1.84,4.09,4.61v6.89h-3.07v-6.32c0-1.85-.55-2.76-2-2.76-1.67,0-2.38.94-2.38,3.21v5.87H137Z"/><path d="M153.31,134.73h2.25v2.06h-2.25v5.55c0,1,.26,1.3,1.3,1.3a5.09,5.09,0,0,0,.95-.09V146a12.76,12.76,0,0,1-1.8.1c-1.88,0-3.53-.43-3.53-2.66v-6.61h-1.86v-2.06h1.86v-3.36h3.08Z"/><path d="M156.69,130.46h3.08v15.47h-3.08Z"/><path d="M167.28,147.34c-.67,1.8-1.73,2.54-3.85,2.54-.63,0-1.26,0-1.89-.11v-2.54a15.26,15.26,0,0,0,1.8.11,1.45,1.45,0,0,0,1.06-2.1l-3.94-10.51h3.29l2.54,7.67h0l2.45-7.67H172Z"/><path d="M183.6,134.43c3.53,0,5.81,2.34,5.81,5.91a5.5,5.5,0,0,1-5.81,5.9c-3.51,0-5.78-2.34-5.78-5.9S180.09,134.43,183.6,134.43Zm0,9.49c2.1,0,2.73-1.8,2.73-3.58s-.63-3.59-2.73-3.59-2.71,1.79-2.71,3.59S181.52,143.92,183.6,143.92Z"/><path d="M190.53,134.73h2.93v2.08h0a4,4,0,0,1,3.58-2.38,2.41,2.41,0,0,1,.67.1v2.87a5.25,5.25,0,0,0-1.1-.11c-2.26,0-3,1.62-3,3.59v5.05h-3.08Z"/><path d="M209.3,145.22c0,1.84-.65,5-5.81,5-2.21,0-4.79-1-4.94-3.6h3.06a2.07,2.07,0,0,0,2.29,1.54c1.72,0,2.5-1.17,2.47-2.77v-1.48h0a3.76,3.76,0,0,1-3.36,1.74c-3.36,0-4.79-2.56-4.79-5.64,0-2.9,1.67-5.54,4.81-5.54a3.47,3.47,0,0,1,3.34,1.8h0v-1.5h2.93Zm-2.93-5c0-1.82-.62-3.44-2.62-3.44-1.73,0-2.49,1.51-2.49,3.18s.61,3.36,2.49,3.36S206.37,141.79,206.37,140.19Z"/><path d="M210.77,138.18c.18-2.89,2.75-3.75,5.27-3.75,2.23,0,4.92.49,4.92,3.18v5.83a5.74,5.74,0,0,0,.39,2.49h-3.12a4.32,4.32,0,0,1-.22-1.08,5.12,5.12,0,0,1-3.77,1.39c-2.12,0-3.81-1.07-3.81-3.36,0-2.54,1.9-3.14,3.81-3.4s3.64-.22,3.64-1.48-.91-1.51-2-1.51-1.93.47-2,1.69Zm7.11,2.27a6,6,0,0,1-2.56.65c-.95.2-1.82.52-1.82,1.65s.89,1.43,1.89,1.43a2.29,2.29,0,0,0,2.49-2.58Z"/><path d="M222.91,134.73h2.92v1.56h.07a4,4,0,0,1,3.42-1.86c3.27,0,4.1,1.84,4.1,4.61v6.89h-3.08v-6.32c0-1.85-.54-2.76-2-2.76-1.67,0-2.39.94-2.39,3.21v5.87h-3.07Z"/><path d="M238.05,133H235v-2.54h3.07ZM235,134.73h3.07v11.2H235Z"/><path d="M239.35,143.61l5.83-6.56h-5.39v-2.32h9.44v2.32l-5.82,6.56h6.24v2.32h-10.3Z"/><path d="M253.39,141.08c.09,1.95,1,2.84,2.76,2.84a2.53,2.53,0,0,0,2.42-1.45h2.71a5,5,0,0,1-5.24,3.77c-3.53,0-5.72-2.43-5.72-5.9a5.61,5.61,0,0,1,5.72-5.91c3.81,0,5.65,3.2,5.44,6.65Zm5-2c-.28-1.56-.95-2.38-2.45-2.38a2.43,2.43,0,0,0-2.56,2.38Z"/><path d="M270.86,144.5h0a3.73,3.73,0,0,1-3.41,1.74c-3.38,0-5-2.91-5-6s1.67-5.8,5-5.8a3.92,3.92,0,0,1,3.34,1.67h0v-5.64h3.08v15.47h-2.93Zm-2.69-7.75c-2,0-2.71,1.73-2.71,3.57s.81,3.6,2.71,3.6,2.65-1.78,2.65-3.62S270.17,136.75,268.17,136.75Z"/><path d="M285,133.32h-4.64v-2.86h12.68v2.86h-4.64v12.61H285Z"/><path d="M294.39,130.46H306v2.86h-8.17v3.32h7.5v2.64h-7.5v3.79h8.35v2.86H294.39Z"/><path d="M307.57,130.46h6.67c4,0,7,2.51,7,7.65,0,4.49-2.3,7.82-7,7.82h-6.67Zm3.4,12.61h3c2,0,3.86-1.21,3.86-4.63,0-3.13-1.08-5.12-4.47-5.12H311Z"/><path d="M331,141.08c.09,1.95,1,2.84,2.75,2.84a2.54,2.54,0,0,0,2.43-1.45h2.71a5,5,0,0,1-5.25,3.77c-3.53,0-5.72-2.43-5.72-5.9a5.61,5.61,0,0,1,5.72-5.91c3.82,0,5.66,3.2,5.44,6.65Zm5-2c-.28-1.56-.95-2.38-2.44-2.38a2.42,2.42,0,0,0-2.56,2.38Z"/><path d="M346.22,145.93H342.8L339,134.73h3.23l2.36,7.65h.05l2.36-7.65H350Z"/><path d="M353,141.08c.09,1.95,1,2.84,2.75,2.84a2.53,2.53,0,0,0,2.43-1.45h2.71a5,5,0,0,1-5.25,3.77c-3.53,0-5.72-2.43-5.72-5.9a5.61,5.61,0,0,1,5.72-5.91c3.82,0,5.66,3.2,5.44,6.65Zm5-2c-.28-1.56-1-2.38-2.45-2.38a2.42,2.42,0,0,0-2.56,2.38Z"/><path d="M362.43,134.73h2.93v1.56h.06a4,4,0,0,1,3.42-1.86c3.28,0,4.1,1.84,4.1,4.61v6.89h-3.08v-6.32c0-1.85-.54-2.76-2-2.76-1.67,0-2.38.94-2.38,3.21v5.87h-3.08Z"/><path d="M378.75,134.73H381v2.06h-2.25v5.55c0,1,.26,1.3,1.3,1.3a5.09,5.09,0,0,0,.95-.09V146a12.76,12.76,0,0,1-1.8.1c-1.88,0-3.53-.43-3.53-2.66v-6.61h-1.86v-2.06h1.86v-3.36h3.08Z"/><path class="cls-1" d="M14.44,13.3H0V.1H44.73V13.3H30.3V51.62H14.44Z"/><path class="cls-1" d="M47.2.1H90.62V13.3H63.07v6.42H90.62V32H63.07v6.42H90.63V51.62H47.2Z"/><path class="cls-1" d="M93.29.1h26.05c17.17,0,23.24,12.7,23.24,25.68,0,15.81-8.37,25.84-26.34,25.84H93.29Zm15.87,38.31h6.21c9.89,0,11.33-8,11.33-12.85,0-3.24-1-12.26-12.48-12.26h-5.06Z"/><path class="cls-1" d="M165.38,31.76l-4.84-8-4.72,8H144.19l11-16.23L144.6,0h11.63l4.31,7.68L165,0H176.6L166,15.53l11,16.23Z"/><path d="M13.56,116.13H6.62V64.78h23.1C39.23,64.78,45,70.93,45,79.23c0,7.15-4.08,15.23-15.24,15.23H13.56Zm0-27.6h13.8c6.22,0,10.44-2.29,10.44-9.23,0-6.51-4.43-8.58-10.15-8.58H13.56Z"/><path d="M49.75,90.1C50,81.16,56,77.66,65.2,77.66c3,0,13.87.86,13.87,10.44v21.53c0,1.57.79,2.21,2.08,2.21a12.24,12.24,0,0,0,2.07-.28v4.57a11.47,11.47,0,0,1-3.43.72c-5.58,0-6.44-2.86-6.66-5.72a17,17,0,0,1-13.51,6.08c-6.87,0-11.73-4.37-11.73-10.8,0-3.15.93-10.44,11.37-11.73l10.37-1.29c1.5-.14,3.29-.71,3.29-4.43,0-3.94-2.86-6.08-8.8-6.08-7.15,0-8.15,4.36-8.58,7.22Zm23,6.94c-1,.78-2.58,1.36-10.37,2.36-3.08.43-8,1.36-8,6.08,0,4.07,2.07,6.5,6.79,6.5,5.87,0,11.59-3.79,11.59-8.79Z"/><path d="M111,78.73h6.94c-4.37,12.23-8.66,24.46-13.45,36.69-5.93,15.16-6.58,16-14.66,16a9.57,9.57,0,0,1-2.65-.57v-5.72a11.25,11.25,0,0,0,3.8.64c3.28,0,3.64-.93,6.65-8.66L83.72,78.73h7.15l9.94,30.47H101Z"/><path d="M144.59,89.39c-.08-2.36-.93-6.3-8.87-6.3-1.93,0-7.44.65-7.44,5.29,0,3.08,1.93,3.79,6.79,5l6.3,1.57c7.79,1.94,10.51,4.8,10.51,9.87,0,7.73-6.36,12.38-14.8,12.38-14.81,0-15.88-8.59-16.1-13.09h6.08c.22,2.93,1.08,7.65,9.94,7.65,4.51,0,8.59-1.79,8.59-5.94,0-3-2.08-4-7.44-5.36l-7.3-1.79c-5.22-1.28-8.65-3.93-8.65-9.08,0-8.22,6.79-11.94,14.16-11.94,13.37,0,14.3,9.87,14.3,11.73Z"/><path d="M158.89,90.1c.29-8.94,6.22-12.44,15.45-12.44,3,0,13.87.86,13.87,10.44v21.53c0,1.57.79,2.21,2.08,2.21a12.11,12.11,0,0,0,2.07-.28v4.57a11.47,11.47,0,0,1-3.43.72c-5.58,0-6.44-2.86-6.65-5.72a17.05,17.05,0,0,1-13.52,6.08c-6.87,0-11.73-4.37-11.73-10.8,0-3.15.93-10.44,11.37-11.73l10.37-1.29c1.5-.14,3.29-.71,3.29-4.43,0-3.94-2.86-6.08-8.79-6.08-7.16,0-8.16,4.36-8.59,7.22Zm23,6.94c-1,.78-2.58,1.36-10.37,2.36-3.08.43-8,1.36-8,6.08,0,4.07,2.07,6.5,6.79,6.5,5.87,0,11.59-3.79,11.59-8.79Z"/><path d="M229.34,116.13H223v-23c0-6.51-1.86-9.8-8-9.8-3.57,0-9.86,2.29-9.86,12.44v20.38h-6.3V78.73h5.94V84H205a13.57,13.57,0,0,1,11.3-6.36c5.79,0,13.09,2.36,13.09,13Z"/><path d="M269.68,116.13h-5.94V111h-.14a11.28,11.28,0,0,1-10.66,6.23c-12.73,0-16.45-11.95-16.45-20.89,0-10.51,5.65-18.66,15.59-18.66,6.8,0,9.66,4.22,11.16,6.36l.14-.5V64.78h6.3Zm-16.6-4.36c4,0,10.23-2.65,10.23-12.59,0-6.07-1-15.87-10.08-15.87-9.73,0-10.23,9.22-10.23,14C243,105.55,246.22,111.77,253.08,111.77Z"/><path d="M302.79,116.13V110.7l-.14-.14c-2.65,4.36-5.87,6.65-11.87,6.65-5.51,0-12.16-2.65-12.16-11.59V78.73h6.29v24.82c0,6.15,3.15,8.22,7.22,8.22,7.94,0,10.3-7,10.3-12.44V78.73h6.3v37.4Zm-7.51-42.41h-4.79l6.36-10.08h7.73Z"/></g></g></svg>