<svg xmlns="http://www.w3.org/2000/svg" viewBox="0 0 121.63 50.85"><defs><style>.cls-1{fill:#ff2b06;}.cls-2{fill:#fff;}</style></defs><title>logo-tedx-twostory</title><g id="Layer_2" data-name="Layer 2"><g id="Main"><path class="cls-1" d="M6,5.36H.23V0h18V5.36H12.42V20.78H6Z"/><path class="cls-1" d="M19.23,0H36.71V5.36H25.62V7.94H36.71v4.94H25.62v2.58H36.71v5.32H19.23Z"/><path class="cls-1" d="M37.78,0H48.27c6.91,0,9.35,5.11,9.35,10.34,0,6.36-3.36,10.4-10.6,10.4H37.78Zm6.39,15.42h2.5c4,0,4.56-3.22,4.56-5.17,0-1.3-.4-4.93-5-4.93h-2Z"/><path class="cls-1" d="M66.81,12.79l-2-3.23L63,12.79H58.27l4.45-6.54L58.44,0h4.68l1.74,3.09L66.64,0h4.68L67.05,6.25l4.44,6.54Z"/><path class="cls-2" d="M2.79,44.69H0V24H9.3c3.83,0,6.13,2.48,6.13,5.82,0,2.88-1.64,6.13-6.13,6.13H2.79Zm0-11.12H8.35c2.51,0,4.2-.92,4.2-3.71,0-2.62-1.78-3.46-4.08-3.46H2.79Z"/><path class="cls-2" d="M17.36,34.2c.12-3.6,2.51-5,6.22-5,1.21,0,5.59.35,5.59,4.21v8.66c0,.64.32.9.83.9a4.71,4.71,0,0,0,.84-.12v1.85a4.88,4.88,0,0,1-1.38.28c-2.25,0-2.6-1.15-2.68-2.3a6.84,6.84,0,0,1-5.44,2.45c-2.77,0-4.73-1.76-4.73-4.35,0-1.27.38-4.2,4.58-4.72l4.18-.52c.6-.06,1.32-.29,1.32-1.79s-1.15-2.44-3.54-2.44c-2.88,0-3.28,1.75-3.46,2.9ZM26.63,37c-.4.31-1,.54-4.17,1-1.24.17-3.23.54-3.23,2.44C19.23,42,20.07,43,22,43c2.36,0,4.66-1.53,4.66-3.55Z"/><path class="cls-2" d="M42,29.63H44.8c-1.75,4.92-3.48,9.84-5.41,14.77-2.39,6.1-2.65,6.45-5.9,6.45a3.88,3.88,0,0,1-1.07-.23V48.31a4.37,4.37,0,0,0,1.53.26c1.32,0,1.47-.37,2.68-3.48L31,29.63h2.88l4,12.26H38Z"/><path class="cls-2" d="M55.54,33.92c0-1-.37-2.54-3.57-2.54-.77,0-3,.26-3,2.13,0,1.24.78,1.53,2.73,2l2.54.63c3.14.78,4.23,1.93,4.23,4,0,3.11-2.56,5-6,5-6,0-6.39-3.46-6.48-5.27h2.45c.08,1.18.43,3.08,4,3.08,1.82,0,3.46-.72,3.46-2.39,0-1.21-.84-1.61-3-2.16L50,37.66c-2.1-.52-3.48-1.58-3.48-3.66,0-3.31,2.74-4.81,5.7-4.81,5.39,0,5.76,4,5.76,4.73Z"/><path class="cls-2" d="M61.3,34.2c.12-3.6,2.51-5,6.22-5,1.21,0,5.59.35,5.59,4.21v8.66c0,.64.31.9.83.9a4.71,4.71,0,0,0,.84-.12v1.85A4.88,4.88,0,0,1,73.4,45c-2.25,0-2.6-1.15-2.68-2.3a6.84,6.84,0,0,1-5.44,2.45c-2.77,0-4.73-1.76-4.73-4.35,0-1.27.38-4.2,4.58-4.72l4.18-.52c.6-.06,1.32-.29,1.32-1.79s-1.15-2.44-3.54-2.44c-2.88,0-3.28,1.75-3.46,2.9ZM70.57,37c-.4.31-1,.54-4.17,1-1.24.17-3.23.54-3.23,2.44C63.17,42,64,43,65.91,43c2.36,0,4.66-1.53,4.66-3.55Z"/><path class="cls-2" d="M89.66,44.69H87.13V35.41c0-2.62-.75-3.94-3.22-3.94-1.44,0-4,.92-4,5v8.21H77.4V29.63h2.39v2.13h.06a5.43,5.43,0,0,1,4.54-2.57c2.34,0,5.27.95,5.27,5.24Z"/><path class="cls-2" d="M105.9,44.69h-2.39V42.61h-.05a4.54,4.54,0,0,1-4.29,2.51c-5.13,0-6.63-4.81-6.63-8.41,0-4.23,2.28-7.52,6.28-7.52a5.07,5.07,0,0,1,4.49,2.57l.06-.21V24h2.53Zm-6.68-1.76c1.62,0,4.12-1.07,4.12-5.07,0-2.45-.4-6.39-4.06-6.39-3.92,0-4.12,3.71-4.12,5.64C95.16,40.42,96.46,42.93,99.22,42.93Z"/><path class="cls-2" d="M119.24,44.69V42.5l-.06-.06a5,5,0,0,1-4.78,2.68c-2.22,0-4.9-1.07-4.9-4.67V29.63H112v10c0,2.47,1.26,3.31,2.9,3.31,3.2,0,4.15-2.82,4.15-5V29.63h2.54V44.69Zm-3-17.08h-1.93l2.57-4.06H120Z"/></g></g></svg>