<svg xmlns="http://www.w3.org/2000/svg" viewBox="0 0 197.4 27.3"><defs><style>.cls-1{fill:#ff2b06;}.cls-2{fill:#fff;}</style></defs><title>logo-tedx-white</title><g id="Layer_2" data-name="Layer 2"><g id="Main"><path class="cls-1" d="M5.81,5.81H0V.49H18V5.81H12.2V21.23H5.81Z"/><path class="cls-1" d="M19,.49H36.48V5.81H25.39V8.39H36.48v4.94H25.39v2.58h11.1v5.32H19Z"/><path class="cls-1" d="M37.56.49H48C55,.49,57.4,5.6,57.4,10.83c0,6.36-3.37,10.4-10.6,10.4H37.56ZM44,15.91h2.5c4,0,4.56-3.22,4.56-5.17,0-1.3-.41-4.93-5-4.93H44Z"/><path class="cls-1" d="M66.58,13.24l-2-3.23-1.9,3.23H58.05L62.49,6.7,58.21.45H62.9l1.73,3.09L66.42.45H71.1L66.82,6.7l4.44,6.54Z"/><path class="cls-2" d="M78.57,21.14h-2.8V.46h9.31c3.83,0,6.13,2.48,6.13,5.82,0,2.88-1.64,6.13-6.13,6.13H78.57Zm0-11.12h5.56c2.5,0,4.2-.92,4.2-3.71,0-2.62-1.79-3.46-4.09-3.46H78.57Z"/><path class="cls-2" d="M93.14,10.65c.11-3.6,2.5-5,6.22-5,1.21,0,5.58.35,5.58,4.21v8.67c0,.63.32.89.84.89a4.49,4.49,0,0,0,.83-.12v1.85a4.81,4.81,0,0,1-1.38.28c-2.24,0-2.59-1.15-2.68-2.3a6.83,6.83,0,0,1-5.44,2.45c-2.76,0-4.72-1.76-4.72-4.35,0-1.27.37-4.2,4.58-4.72l4.17-.52c.61-.06,1.33-.29,1.33-1.79s-1.15-2.44-3.54-2.44c-2.88,0-3.29,1.75-3.46,2.9Zm9.27,2.8c-.4.31-1,.54-4.18,1C97,14.57,95,14.94,95,16.85c0,1.64.83,2.62,2.73,2.62,2.37,0,4.67-1.53,4.67-3.55Z"/><path class="cls-2" d="M117.79,6.08h2.79c-1.76,4.92-3.49,9.84-5.41,14.77-2.4,6.1-2.65,6.45-5.91,6.45a3.89,3.89,0,0,1-1.06-.23V24.76a4.25,4.25,0,0,0,1.52.26c1.33,0,1.47-.37,2.68-3.48L106.81,6.08h2.88l4,12.26h0Z"/><path class="cls-2" d="M131.32,10.37c0-.95-.38-2.54-3.57-2.54-.78,0-3,.26-3,2.13,0,1.24.78,1.53,2.74,2l2.53.63c3.14.78,4.24,1.93,4.24,4,0,3.11-2.57,5-6,5-6,0-6.39-3.46-6.47-5.27h2.44c.09,1.18.44,3.08,4,3.08,1.81,0,3.45-.72,3.45-2.39,0-1.21-.83-1.61-3-2.16l-2.94-.72c-2.1-.52-3.48-1.58-3.48-3.66,0-3.31,2.73-4.81,5.7-4.81,5.38,0,5.76,4,5.76,4.73Z"/><path class="cls-2" d="M137.08,10.65c.11-3.6,2.5-5,6.22-5,1.21,0,5.58.35,5.58,4.21v8.67c0,.63.32.89.84.89a4.61,4.61,0,0,0,.83-.12v1.85a4.81,4.81,0,0,1-1.38.28c-2.25,0-2.59-1.15-2.68-2.3a6.83,6.83,0,0,1-5.44,2.45c-2.76,0-4.72-1.76-4.72-4.35,0-1.27.37-4.2,4.58-4.72l4.17-.52c.61-.06,1.33-.29,1.33-1.79s-1.16-2.44-3.55-2.44c-2.88,0-3.28,1.75-3.45,2.9Zm9.27,2.8c-.4.31-1,.54-4.18,1-1.23.17-3.22.54-3.22,2.45,0,1.64.83,2.62,2.73,2.62,2.37,0,4.67-1.53,4.67-3.55Z"/><path class="cls-2" d="M165.44,21.14h-2.53V11.86c0-2.62-.75-3.94-3.23-3.94-1.44,0-4,.92-4,5v8.21h-2.54V6.08h2.39V8.21h.06a5.46,5.46,0,0,1,4.55-2.57c2.33,0,5.27,1,5.27,5.24Z"/><path class="cls-2" d="M181.68,21.14h-2.39V19.06h-.06a4.53,4.53,0,0,1-4.29,2.51c-5.12,0-6.62-4.81-6.62-8.41,0-4.23,2.27-7.52,6.28-7.52a5.09,5.09,0,0,1,4.49,2.57l0-.21V.46h2.54ZM175,19.38c1.61,0,4.12-1.07,4.12-5.07,0-2.45-.41-6.39-4.06-6.39-3.92,0-4.12,3.71-4.12,5.64C170.94,16.87,172.23,19.38,175,19.38Z"/><path class="cls-2" d="M195,21.14V19l-.06-.06a5,5,0,0,1-4.78,2.68c-2.21,0-4.89-1.07-4.89-4.67V6.08h2.53v10c0,2.47,1.27,3.31,2.91,3.31,3.2,0,4.15-2.82,4.15-5V6.08h2.53V21.14ZM192,4.06h-1.93L192.62,0h3.11Z"/></g></g></svg>