<svg xmlns="http://www.w3.org/2000/svg" viewBox="0 0 457.71 419.51"><defs><style>.cls-1{fill:#fff;}.cls-2{fill:#ff2b06;}</style></defs><title>raffle</title><g id="Layer_2" data-name="Layer 2"><g id="Main"><path class="cls-1" d="M15.68,206.28l-6.06-3.83,82.15-73.6,6.06,3.83Z"/><path class="cls-2" d="M294.85,40.62H302l30.08,106.11h-7.17Z"/><path class="cls-2" d="M201,226.23l4.43,5.63-64.79,89.25-4.43-5.63Z"/><path class="cls-2" d="M222.61,49.13l-4.82,5.3L119,5.3,123.86,0Z"/><path class="cls-1" d="M164.27,72.8l6.55,2.91L155.25,184.9,148.69,182Z"/><path class="cls-1" d="M107.44,74l-.27,7.16L0,107.18.27,100Z"/><path class="cls-1" d="M380.14,194.21l6.88-2,58.49,93.51-6.88,2Z"/><path class="cls-1" d="M433.31,74l7.12.85,17.29,108.93-7.12-.85Z"/><path class="cls-1" d="M365.14,266.93l7.15.48,22.84,107.9-7.15-.48Z"/><path class="cls-1" d="M270.4,150.2l6.57,2.86L262.14,262.36l-6.57-2.86Z"/><path class="cls-1" d="M305.6,409.63l-4,5.92L196.95,380.62l4-5.92Z"/><path class="cls-1" d="M224.69,419.51l-4.84-5.29,58-93.82,4.84,5.29Z"/><path class="cls-1" d="M93.68,260.47l6,3.86L68,370l-6-3.86Z"/></g></g></svg>