<svg xmlns="http://www.w3.org/2000/svg" xmlns:xlink="http://www.w3.org/1999/xlink" viewBox="0 0 32 32"><defs><style>.cls-1{fill:#03c;}.cls-2{fill:url(#linear-gradient);}</style><linearGradient id="linear-gradient" x1="16" y1="16" x2="32" y2="16" gradientUnits="userSpaceOnUse"><stop offset="0" stop-color="#ffc5c5"/><stop offset="1" stop-color="#ffecec"/></linearGradient></defs><title>symbol</title><g id="Layer_2" data-name="Layer 2"><g id="Layer_1-2" data-name="Layer 1"><path class="cls-1" d="M16,0h0a0,0,0,0,1,0,0V32a0,0,0,0,1,0,0h0A16,16,0,0,1,0,16v0A16,16,0,0,1,16,0Z"/><path class="cls-2" d="M16,0h0A16,16,0,0,1,32,16v0A16,16,0,0,1,16,32h0a0,0,0,0,1,0,0V0A0,0,0,0,1,16,0Z"/></g></g></svg>